M48
; DRILL file {KiCad 9.0.1} date 2025-06-09T08:29:25+0200
; FORMAT={-:-/ absolute / inch / decimal}
; #@! TF.CreationDate,2025-06-09T08:29:25+02:00
; #@! TF.GenerationSoftware,Kicad,Pcbnew,9.0.1
; #@! TF.FileFunction,Plated,1,2,PTH
FMAT,2
INCH
; #@! TA.AperFunction,Plated,PTH,ViaDrill
T1C0.0118
; #@! TA.AperFunction,Plated,PTH,ViaDrill
T2C0.0157
; #@! TA.AperFunction,Plated,PTH,ComponentDrill
T3C0.0236
; #@! TA.AperFunction,Plated,PTH,ComponentDrill
T4C0.0300
; #@! TA.AperFunction,Plated,PTH,ComponentDrill
T5C0.0400
%
G90
G05
T1
X0.4181Y-1.4843
X1.2598Y-4.0118
X1.4488Y-3.7618
X1.5354Y-3.5591
X1.5413Y-3.313
X1.565Y-3.3366
X1.6083Y-3.998
X1.6457Y-3.9449
X1.7126Y-3.2835
X1.7602Y-3.3293
X1.7652Y-4.8923
X1.7811Y-3.3502
X1.786Y-4.8715
X1.8268Y-3.3061
X1.8409Y-3.2504
X1.8543Y-3.4055
X1.878Y-3.3819
X1.9094Y-5.1024
X1.9557Y-5.1358
X2.0Y-5.1358
X2.0374Y-1.7992
X2.0472Y-5.1654
X2.0591Y-1.8445
X2.2008Y-3.0335
X2.2362Y-3.126
X2.2461Y-2.6555
X2.2719Y-2.7187
X2.5126Y-2.0484
X2.5469Y-2.0059
X2.6106Y-1.9906
X2.6756Y-1.9846
X2.7008Y-2.1142
X2.724Y-2.085
X2.7264Y-1.9551
X2.7642Y-1.9098
X2.7783Y-2.0579
X2.813Y-1.8614
X2.8496Y-1.9823
X2.8661Y-1.8
X2.8909Y-1.9406
X2.9689Y-1.8626
T2
X0.4197Y-2.6685
X0.4197Y-3.2614
X0.4201Y-2.0768
X0.4201Y-3.8512
X0.4213Y-2.8937
X0.4213Y-4.0354
X0.4232Y-3.4843
X0.4252Y-1.7087
X0.4252Y-2.2992
X0.7874Y-4.2126
X1.126Y-0.7795
X1.2283Y-3.4272
X1.2854Y-3.1594
X1.2992Y-0.0984
X1.3386Y-0.1378
X1.3484Y-3.7106
X1.376Y-2.937
X1.378Y-0.1772
X1.4173Y-0.2165
X1.4213Y-3.4646
X1.4291Y-4.7913
X1.4311Y-3.8209
X1.4567Y-0.2559
X1.4646Y-3.872
X1.4764Y-3.3169
X1.4783Y-3.6791
X1.4843Y-2.7736
X1.4941Y-3.5433
X1.4961Y-0.2953
X1.5039Y-3.6142
X1.5354Y-0.3346
X1.5728Y-3.378
X1.5748Y-0.374
X1.5807Y-2.5335
X1.5807Y-3.2717
X1.6142Y-0.4134
X1.6476Y-2.3622
X1.6535Y-0.4528
X1.685Y-0.7795
X1.6929Y-0.4921
X1.7185Y-2.939
X1.7303Y-2.122
X1.7323Y-0.5315
X1.7323Y-3.4724
X1.7323Y-3.8701
X1.7343Y-4.1772
X1.7402Y-3.2559
X1.748Y-4.0118
X1.7717Y-0.5709
X1.7992Y-3.3878
X1.811Y-0.6102
X1.8268Y-4.0236
X1.8268Y-4.1398
X1.8504Y-0.6496
X1.8819Y-2.5512
X1.8898Y-0.689
X1.9024Y-1.9398
X1.9173Y-2.8465
X1.9291Y-0.7283
X1.9685Y-0.7677
X1.9764Y-2.4882
X2.0079Y-0.8071
X2.0394Y-3.4902
X2.0472Y-0.8465
X2.0866Y-0.8858
X2.0945Y-2.0236
X2.1024Y-1.8819
X2.1024Y-2.3228
X2.1024Y-2.4409
X2.1024Y-2.5276
X2.1024Y-2.7874
X2.1102Y-2.2283
X2.126Y-0.9252
X2.1654Y-0.9646
X2.2047Y-1.0039
X2.2441Y-1.0433
X2.2441Y-2.5984
X2.2441Y-2.7559
X2.2677Y-2.5118
X2.2835Y-1.0827
X2.313Y-2.4075
X2.3228Y-1.122
X2.3622Y-1.1614
X2.4016Y-1.2008
X2.4409Y-1.2402
X2.4803Y-1.2795
X2.5197Y-1.3189
X2.5591Y-1.3583
X2.561Y-2.189
X2.5945Y-2.6476
X2.5984Y-1.3976
X2.6122Y-2.5
X2.6378Y-1.437
X2.6398Y-2.0941
X2.6772Y-1.4764
X2.7165Y-1.5157
X2.7559Y-1.5551
X2.7953Y-1.5945
X2.8051Y-2.2933
X2.8346Y-1.6339
X2.874Y-1.6732
X2.9094Y-2.0551
X2.9134Y-1.7126
X2.9528Y-1.752
X2.9626Y-2.002
X3.0118Y-1.811
X3.0512Y-1.8504
X3.0906Y-1.8898
X3.1299Y-1.9291
X3.1693Y-1.9685
X3.2087Y-2.0079
X3.248Y-2.0472
X3.2874Y-2.0866
X3.3268Y-2.126
X3.3661Y-2.1654
X3.4055Y-2.2047
X3.4449Y-2.2441
X3.4843Y-2.2835
X3.5236Y-2.3228
X3.563Y-2.3622
X3.6024Y-2.4016
X3.6417Y-2.4409
X3.6811Y-2.4803
X3.7205Y-2.5197
X3.7598Y-2.5591
X3.7992Y-2.5984
X3.8386Y-2.6378
X3.878Y-2.6772
T4
X0.7874Y-2.6378
X0.7874Y-4.7244
X3.1496Y-2.6378
X3.1496Y-4.7244
T5
X0.8472Y-0.6594
X0.8472Y-0.7594
X0.9472Y-0.6594
X0.9472Y-0.7594
X1.0472Y-0.6594
X1.0472Y-0.7594
T3
G00X1.7984Y-5.2537
M15
G01X1.7984Y-5.2104
M16
G05
G00X1.7984Y-5.4085
M15
G01X1.7984Y-5.3848
M16
G05
G00X2.1386Y-5.2537
M15
G01X2.1386Y-5.2104
M16
G05
G00X2.1386Y-5.4085
M15
G01X2.1386Y-5.3848
M16
G05
M30
