%TF.GenerationSoftware,KiCad,Pcbnew,9.0.1*%
%TF.CreationDate,2025-06-09T08:29:22+02:00*%
%TF.ProjectId,circle-badge,63697263-6c65-42d6-9261-6467652e6b69,1.1*%
%TF.SameCoordinates,PX2faf080PY1c9c380*%
%TF.FileFunction,Soldermask,Bot*%
%TF.FilePolarity,Negative*%
%FSLAX46Y46*%
G04 Gerber Fmt 4.6, Leading zero omitted, Abs format (unit mm)*
G04 Created by KiCad (PCBNEW 9.0.1) date 2025-06-09 08:29:22*
%MOMM*%
%LPD*%
G01*
G04 APERTURE LIST*
G04 Aperture macros list*
%AMRoundRect*
0 Rectangle with rounded corners*
0 $1 Rounding radius*
0 $2 $3 $4 $5 $6 $7 $8 $9 X,Y pos of 4 corners*
0 Add a 4 corners polygon primitive as box body*
4,1,4,$2,$3,$4,$5,$6,$7,$8,$9,$2,$3,0*
0 Add four circle primitives for the rounded corners*
1,1,$1+$1,$2,$3*
1,1,$1+$1,$4,$5*
1,1,$1+$1,$6,$7*
1,1,$1+$1,$8,$9*
0 Add four rect primitives between the rounded corners*
20,1,$1+$1,$2,$3,$4,$5,0*
20,1,$1+$1,$4,$5,$6,$7,0*
20,1,$1+$1,$6,$7,$8,$9,0*
20,1,$1+$1,$8,$9,$2,$3,0*%
%AMRotRect*
0 Rectangle, with rotation*
0 The origin of the aperture is its center*
0 $1 length*
0 $2 width*
0 $3 Rotation angle, in degrees counterclockwise*
0 Add horizontal line*
21,1,$1,$2,0,0,$3*%
%AMFreePoly0*
4,1,6,0.725000,-0.725000,-0.125000,-0.725000,-0.725000,-0.125000,-0.725000,0.725000,0.725000,0.725000,0.725000,-0.725000,0.725000,-0.725000,$1*%
G04 Aperture macros list end*
%ADD10C,0.000000*%
%ADD11C,0.650000*%
%ADD12R,0.280000X1.130000*%
%ADD13O,1.000000X1.600000*%
%ADD14O,1.000000X2.100000*%
%ADD15O,1.727200X1.727200*%
%ADD16R,1.727200X1.727200*%
%ADD17C,1.727200*%
%ADD18RoundRect,0.200000X-0.200000X-0.275000X0.200000X-0.275000X0.200000X0.275000X-0.200000X0.275000X0*%
%ADD19RoundRect,0.300000X-0.187294X-0.463596X0.187313X0.463588X0.187294X0.463596X-0.187313X-0.463588X0*%
%ADD20RoundRect,0.250000X-0.856245X0.750396X-1.137200X0.055008X0.856245X-0.750396X1.137200X-0.055008X0*%
%ADD21RoundRect,0.250000X0.480922X-0.544829X0.724417X0.057840X-0.480922X0.544829X-0.724417X-0.057840X0*%
%ADD22RotRect,0.400000X0.800000X338.000000*%
%ADD23RotRect,0.400000X0.800000X68.000000*%
%ADD24RotRect,1.450000X1.450000X338.000000*%
%ADD25FreePoly0,68.000000*%
%ADD26RotRect,0.700000X0.700000X338.000000*%
%ADD27RoundRect,0.200000X0.288454X0.180054X-0.082420X0.329897X-0.288454X-0.180054X0.082420X-0.329897X0*%
%ADD28R,1.300000X0.420000*%
%ADD29RoundRect,0.150000X-0.081004X-0.600912X0.359159X0.488530X0.081004X0.600912X-0.359159X-0.488530X0*%
%ADD30RoundRect,0.250000X0.544829X0.480922X-0.057840X0.724417X-0.544829X-0.480922X0.057840X-0.724417X0*%
%ADD31RotRect,1.000000X0.800000X248.000000*%
%ADD32C,0.900000*%
%ADD33RotRect,0.700000X1.500000X248.000000*%
%ADD34RoundRect,0.200000X-0.288454X-0.180054X0.082420X-0.329897X0.288454X0.180054X-0.082420X0.329897X0*%
%ADD35RoundRect,0.225000X-0.147509X0.302268X-0.316082X-0.114965X0.147509X-0.302268X0.316082X0.114965X0*%
%ADD36C,2.000000*%
%ADD37RoundRect,0.200000X0.180054X-0.288454X0.329897X0.082420X-0.180054X0.288454X-0.329897X-0.082420X0*%
%ADD38RoundRect,0.200000X0.200000X0.275000X-0.200000X0.275000X-0.200000X-0.275000X0.200000X-0.275000X0*%
%ADD39RoundRect,0.150000X0.081004X0.600912X-0.359159X-0.488530X-0.081004X-0.600912X0.359159X0.488530X0*%
%ADD40RoundRect,0.225000X-0.335876X-0.017678X-0.017678X-0.335876X0.335876X0.017678X0.017678X0.335876X0*%
%ADD41RoundRect,0.218750X0.026517X-0.335876X0.335876X-0.026517X-0.026517X0.335876X-0.335876X0.026517X0*%
%ADD42RoundRect,0.225000X0.302268X0.147509X-0.114965X0.316082X-0.302268X-0.147509X0.114965X-0.316082X0*%
%ADD43RoundRect,0.150000X-0.052908X-0.531373X0.331063X0.418991X0.052908X0.531373X-0.331063X-0.418991X0*%
%ADD44RotRect,1.700000X1.000000X68.000000*%
%ADD45RoundRect,0.150000X0.523299X-0.373207X0.635681X-0.095052X-0.523299X0.373207X-0.635681X0.095052X0*%
%ADD46RoundRect,0.250000X0.471557X-0.568009X0.733782X0.081020X-0.471557X0.568009X-0.733782X-0.081020X0*%
%ADD47RotRect,1.700000X1.000000X248.000000*%
%ADD48RoundRect,0.150000X0.494975X0.000000X0.000000X0.494975X-0.494975X0.000000X0.000000X-0.494975X0*%
G04 APERTURE END LIST*
D10*
%TO.C,J3*%
G36*
X53210000Y-132895000D02*
G01*
X53190000Y-132895000D01*
X53190000Y-131765000D01*
X53210000Y-131765000D01*
X53210000Y-132895000D01*
G37*
G36*
X52410000Y-132895000D02*
G01*
X52390000Y-132895000D01*
X52390000Y-131765000D01*
X52410000Y-131765000D01*
X52410000Y-132895000D01*
G37*
G36*
X47610000Y-132895000D02*
G01*
X47590000Y-132895000D01*
X47590000Y-131765000D01*
X47610000Y-131765000D01*
X47610000Y-132895000D01*
G37*
G36*
X46810000Y-132895000D02*
G01*
X46790000Y-132895000D01*
X46790000Y-131765000D01*
X46810000Y-131765000D01*
X46810000Y-132895000D01*
G37*
%TO.C,G\u002A\u002A\u002A*%
G36*
X5276503Y-56451864D02*
G01*
X5430149Y-56513822D01*
X5569028Y-56608150D01*
X5687522Y-56733275D01*
X5777374Y-56881949D01*
X5810750Y-56958804D01*
X5830220Y-57024284D01*
X5839293Y-57095812D01*
X5841481Y-57190809D01*
X5841464Y-57199980D01*
X5822494Y-57388479D01*
X5767078Y-57555604D01*
X5675685Y-57700563D01*
X5548785Y-57822563D01*
X5427229Y-57900327D01*
X5355746Y-57936193D01*
X5295033Y-57958363D01*
X5229326Y-57970618D01*
X5142862Y-57976736D01*
X5102408Y-57978202D01*
X4962900Y-57976769D01*
X4853896Y-57963238D01*
X4818447Y-57953930D01*
X4691793Y-57895892D01*
X4567727Y-57809383D01*
X4461998Y-57706238D01*
X4425088Y-57658264D01*
X4340235Y-57500150D01*
X4293854Y-57333355D01*
X4284853Y-57163839D01*
X4312137Y-56997558D01*
X4374616Y-56840470D01*
X4471196Y-56698535D01*
X4600784Y-56577709D01*
X4626650Y-56559264D01*
X4783165Y-56475978D01*
X4947392Y-56431367D01*
X5113711Y-56423854D01*
X5276503Y-56451864D01*
G37*
G36*
X5211700Y-54477143D02*
G01*
X5340465Y-54478991D01*
X5444608Y-54483124D01*
X5532997Y-54490137D01*
X5614498Y-54500623D01*
X5697978Y-54515176D01*
X5737995Y-54523097D01*
X6120439Y-54621614D01*
X6483649Y-54757871D01*
X6827429Y-54931779D01*
X7151585Y-55143250D01*
X7210248Y-55187141D01*
X7326719Y-55279486D01*
X7411602Y-55356509D01*
X7469535Y-55424879D01*
X7505156Y-55491264D01*
X7523103Y-55562334D01*
X7528013Y-55644090D01*
X7508224Y-55765017D01*
X7452779Y-55870830D01*
X7367558Y-55954773D01*
X7258442Y-56010088D01*
X7196533Y-56024935D01*
X7102775Y-56027619D01*
X7008937Y-56003171D01*
X6907099Y-55948551D01*
X6807746Y-55875661D01*
X6529417Y-55675853D01*
X6239967Y-55515210D01*
X5933313Y-55390834D01*
X5603371Y-55299830D01*
X5593708Y-55297728D01*
X5483529Y-55280527D01*
X5342925Y-55268349D01*
X5183552Y-55261289D01*
X5017065Y-55259438D01*
X4855122Y-55262893D01*
X4709377Y-55271745D01*
X4591487Y-55286089D01*
X4572800Y-55289521D01*
X4266388Y-55368489D01*
X3969903Y-55480942D01*
X3691961Y-55623015D01*
X3441176Y-55790846D01*
X3422319Y-55805447D01*
X3291369Y-55903412D01*
X3183125Y-55972530D01*
X3091256Y-56014832D01*
X3009434Y-56032354D01*
X2931330Y-56027130D01*
X2850614Y-56001193D01*
X2834810Y-55994250D01*
X2726901Y-55923900D01*
X2650782Y-55828655D01*
X2609468Y-55714741D01*
X2605970Y-55588386D01*
X2614865Y-55539723D01*
X2641298Y-55467637D01*
X2688101Y-55395155D01*
X2759144Y-55318435D01*
X2858298Y-55233638D01*
X2989433Y-55136922D01*
X3089898Y-55068351D01*
X3427723Y-54866767D01*
X3778479Y-54704996D01*
X4145896Y-54581460D01*
X4371549Y-54525964D01*
X4455175Y-54509240D01*
X4534120Y-54496796D01*
X4617065Y-54488005D01*
X4712689Y-54482240D01*
X4829670Y-54478874D01*
X4976688Y-54477280D01*
X5049448Y-54476988D01*
X5211700Y-54477143D01*
G37*
G36*
X5310686Y-52511942D02*
G01*
X5496864Y-52519917D01*
X5662260Y-52531827D01*
X5769715Y-52543747D01*
X6252669Y-52629532D01*
X6717355Y-52753536D01*
X7164477Y-52916061D01*
X7594736Y-53117409D01*
X8008835Y-53357883D01*
X8407474Y-53637784D01*
X8523676Y-53729101D01*
X8674207Y-53854364D01*
X8791335Y-53961884D01*
X8877960Y-54055787D01*
X8936979Y-54140197D01*
X8971291Y-54219238D01*
X8983795Y-54297036D01*
X8977803Y-54375360D01*
X8937288Y-54495696D01*
X8864585Y-54591711D01*
X8764753Y-54659290D01*
X8642852Y-54694323D01*
X8580437Y-54698376D01*
X8500419Y-54691189D01*
X8425819Y-54666484D01*
X8347837Y-54619548D01*
X8257672Y-54545666D01*
X8205911Y-54497755D01*
X7993002Y-54313552D01*
X7747389Y-54132401D01*
X7478643Y-53960151D01*
X7196337Y-53802649D01*
X6910043Y-53665743D01*
X6712417Y-53585306D01*
X6303386Y-53453958D01*
X5880403Y-53360846D01*
X5448499Y-53306298D01*
X5012706Y-53290639D01*
X4578055Y-53314199D01*
X4149579Y-53377302D01*
X4000824Y-53409064D01*
X3793175Y-53464326D01*
X3566314Y-53537077D01*
X3336438Y-53621517D01*
X3119741Y-53711846D01*
X3002645Y-53766527D01*
X2801563Y-53873485D01*
X2587998Y-54001686D01*
X2374600Y-54142710D01*
X2174020Y-54288137D01*
X1998910Y-54429548D01*
X1974850Y-54450575D01*
X1891390Y-54522574D01*
X1813240Y-54586699D01*
X1748937Y-54636151D01*
X1707019Y-54664132D01*
X1705802Y-54664774D01*
X1624134Y-54690392D01*
X1525971Y-54697782D01*
X1429639Y-54687258D01*
X1353464Y-54659134D01*
X1352784Y-54658714D01*
X1249230Y-54575784D01*
X1183938Y-54477405D01*
X1154137Y-54358693D01*
X1151533Y-54303914D01*
X1158728Y-54225844D01*
X1183130Y-54152804D01*
X1228960Y-54078539D01*
X1300441Y-53996792D01*
X1401794Y-53901305D01*
X1453733Y-53856072D01*
X1835341Y-53553526D01*
X2228474Y-53290620D01*
X2635685Y-53066221D01*
X3059528Y-52879195D01*
X3502559Y-52728410D01*
X3967331Y-52612734D01*
X4435102Y-52533826D01*
X4567888Y-52520955D01*
X4732326Y-52512409D01*
X4917930Y-52508110D01*
X5114212Y-52507980D01*
X5310686Y-52511942D01*
G37*
G36*
X6053789Y-36026228D02*
G01*
X6035296Y-36084966D01*
X6004659Y-36179455D01*
X5962613Y-36307496D01*
X5909893Y-36466887D01*
X5847235Y-36655426D01*
X5775373Y-36870913D01*
X5695045Y-37111145D01*
X5606984Y-37373922D01*
X5511926Y-37657043D01*
X5410606Y-37958307D01*
X5303760Y-38275511D01*
X5192124Y-38606454D01*
X5076432Y-38948937D01*
X5047996Y-39033044D01*
X4929981Y-39382043D01*
X4814856Y-39722501D01*
X4703435Y-40052010D01*
X4596532Y-40368161D01*
X4494961Y-40668545D01*
X4399538Y-40950754D01*
X4311075Y-41212379D01*
X4230389Y-41451012D01*
X4158293Y-41664243D01*
X4095602Y-41849663D01*
X4043130Y-42004866D01*
X4001691Y-42127440D01*
X3972101Y-42214979D01*
X3955172Y-42265072D01*
X3953947Y-42268702D01*
X3880557Y-42486023D01*
X2886770Y-42486023D01*
X2686119Y-42485888D01*
X2499024Y-42485502D01*
X2329626Y-42484892D01*
X2182066Y-42484085D01*
X2060484Y-42483108D01*
X1969022Y-42481989D01*
X1911821Y-42480755D01*
X1892984Y-42479490D01*
X1900086Y-42458185D01*
X1920637Y-42400175D01*
X1953502Y-42308569D01*
X1997547Y-42186474D01*
X2051638Y-42037000D01*
X2114640Y-41863254D01*
X2185420Y-41668345D01*
X2262842Y-41455382D01*
X2345773Y-41227471D01*
X2433079Y-40987723D01*
X2523625Y-40739245D01*
X2616276Y-40485146D01*
X2709900Y-40228533D01*
X2803361Y-39972516D01*
X2895525Y-39720202D01*
X2985258Y-39474700D01*
X3071426Y-39239119D01*
X3152895Y-39016566D01*
X3228529Y-38810150D01*
X3297196Y-38622979D01*
X3357760Y-38458162D01*
X3409087Y-38318807D01*
X3450044Y-38208022D01*
X3479496Y-38128915D01*
X3496309Y-38084596D01*
X3499826Y-38076048D01*
X3524497Y-38054170D01*
X3578810Y-38017107D01*
X3655102Y-37969778D01*
X3745712Y-37917102D01*
X3759487Y-37909366D01*
X4165944Y-37663833D01*
X4554719Y-37392774D01*
X4739819Y-37249169D01*
X4862610Y-37146996D01*
X5004656Y-37023346D01*
X5158806Y-36884907D01*
X5317906Y-36738365D01*
X5474801Y-36590407D01*
X5622340Y-36447720D01*
X5753368Y-36316990D01*
X5860732Y-36204906D01*
X5883451Y-36180125D01*
X5949249Y-36109073D01*
X6004434Y-36052406D01*
X6043135Y-36015951D01*
X6059401Y-36005445D01*
X6053789Y-36026228D01*
G37*
G36*
X3995166Y-97672627D02*
G01*
X4250375Y-97730157D01*
X4493093Y-97827059D01*
X4725362Y-97964165D01*
X4949222Y-98142308D01*
X4970856Y-98162072D01*
X5114700Y-98295010D01*
X5256844Y-98158540D01*
X5389754Y-98038872D01*
X5516197Y-97944082D01*
X5652115Y-97863061D01*
X5753951Y-97812114D01*
X5880241Y-97756290D01*
X5994504Y-97716004D01*
X6108295Y-97688967D01*
X6233167Y-97672890D01*
X6380674Y-97665486D01*
X6500574Y-97664236D01*
X6632315Y-97665108D01*
X6732145Y-97668450D01*
X6810498Y-97675351D01*
X6877809Y-97686901D01*
X6944511Y-97704191D01*
X6976474Y-97713934D01*
X7235740Y-97816085D01*
X7471262Y-97950991D01*
X7680393Y-98116131D01*
X7860486Y-98308983D01*
X8008893Y-98527029D01*
X8122968Y-98767747D01*
X8143876Y-98825485D01*
X8212468Y-99088523D01*
X8242442Y-99358543D01*
X8234676Y-99629896D01*
X8190043Y-99896932D01*
X8109421Y-100154000D01*
X7993685Y-100395451D01*
X7871916Y-100579512D01*
X7839245Y-100616640D01*
X7779101Y-100678871D01*
X7694426Y-100763445D01*
X7588161Y-100867605D01*
X7463247Y-100988593D01*
X7322627Y-101123651D01*
X7169240Y-101270020D01*
X7006030Y-101424942D01*
X6835937Y-101585660D01*
X6661903Y-101749416D01*
X6486869Y-101913451D01*
X6313777Y-102075007D01*
X6145569Y-102231326D01*
X5985184Y-102379651D01*
X5835566Y-102517222D01*
X5699656Y-102641283D01*
X5580395Y-102749074D01*
X5480724Y-102837838D01*
X5403585Y-102904818D01*
X5351919Y-102947253D01*
X5331829Y-102961227D01*
X5237767Y-102993422D01*
X5125451Y-103008593D01*
X5016214Y-103004825D01*
X4965484Y-102994081D01*
X4894917Y-102964940D01*
X4828021Y-102926104D01*
X4827831Y-102925969D01*
X4797891Y-102901120D01*
X4740224Y-102849943D01*
X4657856Y-102775273D01*
X4553814Y-102679951D01*
X4431126Y-102566812D01*
X4292818Y-102438695D01*
X4141917Y-102298438D01*
X3981450Y-102148879D01*
X3814443Y-101992855D01*
X3643923Y-101833205D01*
X3472917Y-101672765D01*
X3304453Y-101514374D01*
X3141556Y-101360870D01*
X2987254Y-101215090D01*
X2844573Y-101079872D01*
X2716540Y-100958055D01*
X2606183Y-100852475D01*
X2516527Y-100765970D01*
X2450600Y-100701379D01*
X2411428Y-100661539D01*
X2404995Y-100654431D01*
X2245788Y-100437288D01*
X2123275Y-100199253D01*
X2037722Y-99941092D01*
X1989398Y-99663574D01*
X1977721Y-99431845D01*
X1991804Y-99171088D01*
X2035596Y-98934509D01*
X2111415Y-98713936D01*
X2221579Y-98501195D01*
X2258083Y-98443162D01*
X2423546Y-98226805D01*
X2615462Y-98042557D01*
X2830862Y-97892015D01*
X3066774Y-97776779D01*
X3320229Y-97698446D01*
X3588256Y-97658614D01*
X3725428Y-97653635D01*
X3995166Y-97672627D01*
G37*
G36*
X5189719Y-66999060D02*
G01*
X5296157Y-67037580D01*
X5305793Y-67043352D01*
X5336505Y-67066493D01*
X5395618Y-67114788D01*
X5479751Y-67185349D01*
X5585526Y-67275285D01*
X5709563Y-67381706D01*
X5848483Y-67501724D01*
X5998907Y-67632447D01*
X6157455Y-67770988D01*
X6186619Y-67796552D01*
X6401540Y-67985892D01*
X6584153Y-68148610D01*
X6734842Y-68285062D01*
X6853988Y-68395601D01*
X6941973Y-68480584D01*
X6999180Y-68540364D01*
X7025990Y-68575297D01*
X7026562Y-68576445D01*
X7056401Y-68678093D01*
X7060275Y-68790751D01*
X7038769Y-68896830D01*
X7014185Y-68949579D01*
X6987829Y-68980644D01*
X6933144Y-69035812D01*
X6853938Y-69111555D01*
X6754020Y-69204343D01*
X6637197Y-69310648D01*
X6507279Y-69426941D01*
X6368074Y-69549691D01*
X6341691Y-69572753D01*
X6204062Y-69693349D01*
X6077258Y-69805349D01*
X5964663Y-69905694D01*
X5869663Y-69991329D01*
X5795643Y-70059195D01*
X5745988Y-70106237D01*
X5724082Y-70129398D01*
X5723358Y-70131149D01*
X5740254Y-70147513D01*
X5785600Y-70188652D01*
X5855910Y-70251476D01*
X5947697Y-70332895D01*
X6057475Y-70429819D01*
X6181759Y-70539156D01*
X6317062Y-70657817D01*
X6347756Y-70684687D01*
X6487345Y-70807606D01*
X6618401Y-70924463D01*
X6737097Y-71031737D01*
X6839606Y-71125908D01*
X6922100Y-71203454D01*
X6980753Y-71260854D01*
X7011736Y-71294589D01*
X7013754Y-71297380D01*
X7048985Y-71381626D01*
X7062318Y-71485729D01*
X7053151Y-71592890D01*
X7027229Y-71673814D01*
X7001586Y-71707662D01*
X6944449Y-71767309D01*
X6855612Y-71852942D01*
X6734873Y-71964750D01*
X6582026Y-72102923D01*
X6396868Y-72267649D01*
X6179194Y-72459118D01*
X6174560Y-72463176D01*
X6014432Y-72603121D01*
X5862625Y-72735317D01*
X5722373Y-72856980D01*
X5596910Y-72965327D01*
X5489472Y-73057573D01*
X5403292Y-73130936D01*
X5341605Y-73182631D01*
X5307646Y-73209876D01*
X5303660Y-73212672D01*
X5250686Y-73235787D01*
X5180841Y-73254186D01*
X5112258Y-73264243D01*
X5063067Y-73262332D01*
X5060040Y-73261389D01*
X5024665Y-73251435D01*
X4982231Y-73241389D01*
X4911071Y-73209801D01*
X4837050Y-73151716D01*
X4774617Y-73079341D01*
X4757402Y-73051485D01*
X4748804Y-73032269D01*
X4741547Y-73006194D01*
X4735462Y-72969483D01*
X4730382Y-72918360D01*
X4726139Y-72849047D01*
X4722565Y-72757767D01*
X4719491Y-72640744D01*
X4716751Y-72494200D01*
X4714176Y-72314358D01*
X4711598Y-72097441D01*
X4710499Y-71996714D01*
X4705045Y-71487777D01*
X5494318Y-71487777D01*
X5494984Y-71626859D01*
X5496852Y-71750615D01*
X5499728Y-71853143D01*
X5503416Y-71928539D01*
X5507724Y-71970901D01*
X5510463Y-71978009D01*
X5531008Y-71964736D01*
X5577730Y-71927976D01*
X5645053Y-71872318D01*
X5727404Y-71802351D01*
X5796452Y-71742570D01*
X5885381Y-71664140D01*
X5961799Y-71595143D01*
X6020494Y-71540413D01*
X6056254Y-71504789D01*
X6064885Y-71493446D01*
X6049370Y-71476053D01*
X6008078Y-71436844D01*
X5947471Y-71381517D01*
X5874012Y-71315768D01*
X5794164Y-71245295D01*
X5714389Y-71175794D01*
X5641149Y-71112964D01*
X5580908Y-71062501D01*
X5540127Y-71030103D01*
X5535359Y-71026633D01*
X5522284Y-71018636D01*
X5512329Y-71018775D01*
X5505070Y-71031828D01*
X5500081Y-71062575D01*
X5496936Y-71115792D01*
X5495212Y-71196258D01*
X5494481Y-71308750D01*
X5494320Y-71458046D01*
X5494318Y-71487777D01*
X4705045Y-71487777D01*
X4699906Y-71008324D01*
X4244444Y-71410440D01*
X4123032Y-71516424D01*
X4007762Y-71614785D01*
X3903587Y-71701470D01*
X3815461Y-71772427D01*
X3748335Y-71823603D01*
X3707165Y-71850945D01*
X3704243Y-71852413D01*
X3587339Y-71886899D01*
X3473658Y-71883889D01*
X3368939Y-71848216D01*
X3278922Y-71784714D01*
X3209344Y-71698215D01*
X3165946Y-71593554D01*
X3154466Y-71475563D01*
X3165657Y-71398821D01*
X3173337Y-71368226D01*
X3182476Y-71340404D01*
X3195892Y-71312541D01*
X3216405Y-71281826D01*
X3246834Y-71245445D01*
X3289999Y-71200585D01*
X3348719Y-71144433D01*
X3425812Y-71074176D01*
X3524100Y-70987002D01*
X3646400Y-70880098D01*
X3795533Y-70750650D01*
X3945166Y-70621081D01*
X4074672Y-70508582D01*
X4193421Y-70404678D01*
X4297728Y-70312650D01*
X4383911Y-70235779D01*
X4448286Y-70177348D01*
X4487169Y-70140638D01*
X4497446Y-70129102D01*
X4482280Y-70112347D01*
X4438505Y-70070878D01*
X4369528Y-70007758D01*
X4278756Y-69926048D01*
X4169596Y-69828809D01*
X4045455Y-69719103D01*
X3909739Y-69599990D01*
X3868422Y-69563880D01*
X3728038Y-69440569D01*
X3596751Y-69323840D01*
X3478249Y-69217078D01*
X3376220Y-69123667D01*
X3294350Y-69046988D01*
X3236328Y-68990427D01*
X3205840Y-68957366D01*
X3203059Y-68953354D01*
X3158456Y-68839765D01*
X3151237Y-68725274D01*
X3177040Y-68616213D01*
X3231502Y-68518912D01*
X3310258Y-68439700D01*
X3408946Y-68384908D01*
X3523202Y-68360866D01*
X3608312Y-68365431D01*
X3641080Y-68371856D01*
X3673131Y-68382036D01*
X3708272Y-68398840D01*
X3750309Y-68425137D01*
X3803050Y-68463795D01*
X3870301Y-68517685D01*
X3955870Y-68589676D01*
X4063563Y-68682636D01*
X4197187Y-68799436D01*
X4276220Y-68868820D01*
X4699906Y-69241070D01*
X4705113Y-68753538D01*
X5494318Y-68753538D01*
X5494827Y-68892499D01*
X5496255Y-69016129D01*
X5498452Y-69118520D01*
X5501270Y-69193765D01*
X5504561Y-69235954D01*
X5506636Y-69242951D01*
X5525872Y-69229677D01*
X5571366Y-69192919D01*
X5637630Y-69137272D01*
X5719173Y-69067331D01*
X5787328Y-69008019D01*
X5876498Y-68929386D01*
X5953804Y-68860122D01*
X6013864Y-68805138D01*
X6051296Y-68769345D01*
X6061274Y-68758069D01*
X6047841Y-68740798D01*
X6008420Y-68701642D01*
X5949297Y-68646187D01*
X5876760Y-68580019D01*
X5797095Y-68508724D01*
X5716588Y-68437888D01*
X5641528Y-68373098D01*
X5578200Y-68319940D01*
X5532891Y-68284000D01*
X5513327Y-68271192D01*
X5507656Y-68289328D01*
X5502738Y-68344815D01*
X5498771Y-68432606D01*
X5495954Y-68547652D01*
X5494486Y-68684905D01*
X5494318Y-68753538D01*
X4705113Y-68753538D01*
X4710499Y-68249234D01*
X4721091Y-67257398D01*
X4779371Y-67169291D01*
X4859368Y-67082939D01*
X4961184Y-67024166D01*
X5074682Y-66995398D01*
X5189719Y-66999060D01*
G37*
G36*
X3844880Y-81425192D02*
G01*
X3917284Y-81432390D01*
X3979374Y-81448289D01*
X4047145Y-81476080D01*
X4074969Y-81489112D01*
X4228661Y-81584030D01*
X4353040Y-81705250D01*
X4446173Y-81847199D01*
X4506129Y-82004300D01*
X4530978Y-82170981D01*
X4518788Y-82341667D01*
X4467626Y-82510783D01*
X4445429Y-82558333D01*
X4395504Y-82656939D01*
X4568877Y-83026113D01*
X4742250Y-83395288D01*
X5102396Y-83395288D01*
X5240605Y-83395903D01*
X5345614Y-83398335D01*
X5426579Y-83403460D01*
X5492659Y-83412156D01*
X5553012Y-83425300D01*
X5616794Y-83443770D01*
X5620512Y-83444935D01*
X5800436Y-83511734D01*
X5973414Y-83594960D01*
X6123961Y-83686908D01*
X6160785Y-83713777D01*
X6222058Y-83757362D01*
X6263275Y-83776386D01*
X6295473Y-83775094D01*
X6307523Y-83770216D01*
X6336102Y-83752200D01*
X6393681Y-83712441D01*
X6475272Y-83654511D01*
X6575884Y-83581982D01*
X6690528Y-83498424D01*
X6807746Y-83412188D01*
X7263209Y-83075628D01*
X7278797Y-82919990D01*
X7296960Y-82808984D01*
X7326384Y-82701849D01*
X7346336Y-82650781D01*
X7418134Y-82532799D01*
X7519004Y-82419238D01*
X7636415Y-82322536D01*
X7734861Y-82265189D01*
X7800690Y-82237217D01*
X7861128Y-82220148D01*
X7930655Y-82211435D01*
X8023750Y-82208532D01*
X8057621Y-82208413D01*
X8160374Y-82210096D01*
X8235313Y-82216840D01*
X8296916Y-82231195D01*
X8359663Y-82255705D01*
X8380381Y-82265189D01*
X8508343Y-82343781D01*
X8628100Y-82451580D01*
X8726845Y-82575766D01*
X8773519Y-82658820D01*
X8801475Y-82725056D01*
X8818551Y-82786183D01*
X8827308Y-82856740D01*
X8830311Y-82951270D01*
X8830466Y-82981849D01*
X8829007Y-83084447D01*
X8822499Y-83159103D01*
X8808440Y-83220201D01*
X8784328Y-83282127D01*
X8774490Y-83303592D01*
X8678910Y-83461080D01*
X8555655Y-83588426D01*
X8408774Y-83682870D01*
X8242315Y-83741652D01*
X8103916Y-83760845D01*
X7955710Y-83759143D01*
X7840024Y-83737994D01*
X7738940Y-83706591D01*
X7246863Y-84067665D01*
X7120889Y-84160114D01*
X7006528Y-84244064D01*
X6908096Y-84316347D01*
X6829905Y-84373792D01*
X6776270Y-84413233D01*
X6751504Y-84431500D01*
X6750346Y-84432372D01*
X6754234Y-84452724D01*
X6768467Y-84503717D01*
X6790291Y-84575666D01*
X6798571Y-84601985D01*
X6843230Y-84785408D01*
X6869453Y-84987823D01*
X6876822Y-85195526D01*
X6864918Y-85394813D01*
X6833322Y-85571981D01*
X6828729Y-85589165D01*
X6814992Y-85642215D01*
X6808061Y-85675949D01*
X6807864Y-85678533D01*
X6825209Y-85693109D01*
X6873956Y-85726124D01*
X6949072Y-85774377D01*
X7045523Y-85834667D01*
X7158277Y-85903792D01*
X7235198Y-85950305D01*
X7662650Y-86207447D01*
X7807510Y-86160830D01*
X7985881Y-86124155D01*
X8161127Y-86127294D01*
X8327903Y-86168000D01*
X8480860Y-86244025D01*
X8614652Y-86353121D01*
X8723932Y-86493041D01*
X8762001Y-86562016D01*
X8794925Y-86632725D01*
X8815305Y-86691197D01*
X8826103Y-86752155D01*
X8830280Y-86830319D01*
X8830849Y-86904308D01*
X8829577Y-87003606D01*
X8823788Y-87075243D01*
X8810521Y-87133934D01*
X8786817Y-87194392D01*
X8762001Y-87246511D01*
X8663627Y-87402247D01*
X8538970Y-87525214D01*
X8390519Y-87613773D01*
X8220760Y-87666285D01*
X8104129Y-87680114D01*
X7994704Y-87680555D01*
X7895431Y-87671586D01*
X7844281Y-87661071D01*
X7682922Y-87594511D01*
X7541825Y-87495142D01*
X7425967Y-87368742D01*
X7340321Y-87221088D01*
X7289865Y-87057959D01*
X7282546Y-87008766D01*
X7269196Y-86890692D01*
X6839066Y-86632431D01*
X6717214Y-86559732D01*
X6607149Y-86494951D01*
X6514149Y-86441121D01*
X6443490Y-86401275D01*
X6400448Y-86378447D01*
X6389869Y-86374169D01*
X6364706Y-86388330D01*
X6324449Y-86423833D01*
X6308582Y-86440002D01*
X6208277Y-86528845D01*
X6077526Y-86619107D01*
X5927561Y-86704572D01*
X5769612Y-86779020D01*
X5614911Y-86836235D01*
X5568464Y-86849744D01*
X5439100Y-86875514D01*
X5284746Y-86892363D01*
X5121998Y-86899473D01*
X4967454Y-86896024D01*
X4858789Y-86884788D01*
X4601151Y-86824285D01*
X4357620Y-86727211D01*
X4132021Y-86596937D01*
X3928180Y-86436836D01*
X3749921Y-86250279D01*
X3601071Y-86040638D01*
X3485455Y-85811285D01*
X3419547Y-85616198D01*
X3395438Y-85526089D01*
X2943343Y-85526089D01*
X2491249Y-85526089D01*
X2411830Y-85623090D01*
X2281596Y-85750916D01*
X2131673Y-85844154D01*
X1967897Y-85901441D01*
X1796104Y-85921418D01*
X1622132Y-85902721D01*
X1456197Y-85846057D01*
X1304083Y-85752905D01*
X1180414Y-85628790D01*
X1083905Y-85472411D01*
X1080697Y-85465690D01*
X1047513Y-85390630D01*
X1027526Y-85327587D01*
X1017484Y-85260372D01*
X1014134Y-85172798D01*
X1013940Y-85133406D01*
X1014270Y-85111627D01*
X4542487Y-85111627D01*
X4550352Y-85251534D01*
X4592859Y-85386896D01*
X4653821Y-85487996D01*
X4762673Y-85597912D01*
X4892033Y-85673844D01*
X5034984Y-85714135D01*
X5184611Y-85717123D01*
X5334000Y-85681150D01*
X5378886Y-85661968D01*
X5485682Y-85590319D01*
X5578880Y-85488548D01*
X5651265Y-85367995D01*
X5695623Y-85240001D01*
X5706162Y-85147506D01*
X5686533Y-85002744D01*
X5631421Y-84866499D01*
X5546486Y-84746708D01*
X5437387Y-84651306D01*
X5309783Y-84588228D01*
X5306523Y-84587172D01*
X5193730Y-84558623D01*
X5094221Y-84553749D01*
X4987175Y-84572368D01*
X4945359Y-84584019D01*
X4813200Y-84643749D01*
X4704621Y-84733235D01*
X4621834Y-84845617D01*
X4567052Y-84974034D01*
X4542487Y-85111627D01*
X1014270Y-85111627D01*
X1015417Y-85035994D01*
X1022165Y-84965120D01*
X1037467Y-84904966D01*
X1064605Y-84839715D01*
X1082682Y-84802176D01*
X1181794Y-84647514D01*
X1312074Y-84520595D01*
X1465587Y-84426986D01*
X1528374Y-84400040D01*
X1585964Y-84383256D01*
X1651878Y-84374345D01*
X1739638Y-84371015D01*
X1797655Y-84370729D01*
X1899369Y-84371970D01*
X1972053Y-84377181D01*
X2029016Y-84388844D01*
X2083570Y-84409443D01*
X2132955Y-84433282D01*
X2228494Y-84493365D01*
X2326215Y-84574529D01*
X2370161Y-84618651D01*
X2483909Y-84741615D01*
X2938763Y-84741615D01*
X3393616Y-84741615D01*
X3440656Y-84598502D01*
X3509777Y-84415158D01*
X3591730Y-84253826D01*
X3694054Y-84102296D01*
X3824289Y-83948363D01*
X3876048Y-83893535D01*
X4029553Y-83734520D01*
X3856306Y-83359680D01*
X3683059Y-82984839D01*
X3598322Y-82970354D01*
X3450113Y-82925019D01*
X3308162Y-82844398D01*
X3181547Y-82735516D01*
X3079344Y-82605399D01*
X3043264Y-82540828D01*
X2996989Y-82407648D01*
X2974449Y-82254685D01*
X2976346Y-82097746D01*
X3003384Y-81952641D01*
X3015468Y-81916519D01*
X3087261Y-81779497D01*
X3192452Y-81652959D01*
X3322083Y-81546424D01*
X3414172Y-81492919D01*
X3487830Y-81458702D01*
X3548593Y-81437985D01*
X3612314Y-81427454D01*
X3694847Y-81423792D01*
X3746167Y-81423502D01*
X3844880Y-81425192D01*
G37*
G36*
X6162069Y-36227095D02*
G01*
X6184358Y-36286083D01*
X6219531Y-36380627D01*
X6266802Y-36508577D01*
X6325382Y-36667781D01*
X6394486Y-36856090D01*
X6473326Y-37071350D01*
X6561116Y-37311412D01*
X6657069Y-37574125D01*
X6760397Y-37857337D01*
X6870314Y-38158898D01*
X6986033Y-38476656D01*
X7106767Y-38808461D01*
X7231729Y-39152161D01*
X7295232Y-39326924D01*
X7422024Y-39675925D01*
X7544934Y-40014232D01*
X7663177Y-40339686D01*
X7775969Y-40650124D01*
X7882523Y-40943385D01*
X7982055Y-41217310D01*
X8073779Y-41469736D01*
X8156910Y-41698503D01*
X8230663Y-41901449D01*
X8294251Y-42076414D01*
X8346892Y-42221236D01*
X8387797Y-42333754D01*
X8416184Y-42411808D01*
X8431265Y-42453236D01*
X8433564Y-42459520D01*
X8427678Y-42464477D01*
X8404547Y-42468816D01*
X8361881Y-42472572D01*
X8297390Y-42475781D01*
X8208786Y-42478477D01*
X8093777Y-42480698D01*
X7950076Y-42482479D01*
X7775391Y-42483855D01*
X7567433Y-42484861D01*
X7323913Y-42485534D01*
X7042541Y-42485909D01*
X6730483Y-42486023D01*
X5017495Y-42486023D01*
X4768667Y-41788420D01*
X4732992Y-41687896D01*
X4907737Y-41687896D01*
X4912180Y-41709099D01*
X4928871Y-41763184D01*
X4955522Y-41843200D01*
X4989845Y-41942199D01*
X5012274Y-42005323D01*
X5123593Y-42315963D01*
X5287771Y-42316185D01*
X5364913Y-42314405D01*
X5422268Y-42309487D01*
X5449750Y-42302401D01*
X5450781Y-42300505D01*
X5443469Y-42276036D01*
X5424074Y-42219020D01*
X5395133Y-42136712D01*
X5359181Y-42036365D01*
X5337724Y-41977174D01*
X5225835Y-41669745D01*
X5070177Y-41675427D01*
X4993912Y-41679035D01*
X4936362Y-41683311D01*
X4908598Y-41687405D01*
X4907737Y-41687896D01*
X4732992Y-41687896D01*
X4716445Y-41641270D01*
X5378011Y-41641270D01*
X5381180Y-41663869D01*
X5396956Y-41719439D01*
X5423188Y-41801201D01*
X5457723Y-41902377D01*
X5487675Y-41986637D01*
X5608423Y-42320912D01*
X5959169Y-42308342D01*
X6092155Y-42303776D01*
X6254117Y-42298529D01*
X6431674Y-42293017D01*
X6611448Y-42287652D01*
X6780060Y-42282852D01*
X6791858Y-42282527D01*
X6963571Y-42276852D01*
X7099214Y-42270306D01*
X7197183Y-42263006D01*
X7255874Y-42255069D01*
X7273801Y-42247260D01*
X7266900Y-42221308D01*
X7247674Y-42162023D01*
X7218338Y-42075901D01*
X7181111Y-41969437D01*
X7138206Y-41849127D01*
X7133543Y-41836181D01*
X7080830Y-41692676D01*
X7039188Y-41585924D01*
X7006955Y-41512236D01*
X6982469Y-41467921D01*
X6964069Y-41449289D01*
X6958773Y-41448153D01*
X6920830Y-41451152D01*
X6848805Y-41458559D01*
X6748352Y-41469681D01*
X6625122Y-41483828D01*
X6484768Y-41500310D01*
X6332942Y-41518437D01*
X6175296Y-41537517D01*
X6017482Y-41556860D01*
X5865154Y-41575776D01*
X5723962Y-41593574D01*
X5599560Y-41609564D01*
X5497600Y-41623055D01*
X5423733Y-41633356D01*
X5383613Y-41639778D01*
X5378011Y-41641270D01*
X4716445Y-41641270D01*
X4710500Y-41624519D01*
X4657159Y-41472626D01*
X4610278Y-41337517D01*
X4571490Y-41223967D01*
X4542430Y-41136752D01*
X4524731Y-41080649D01*
X4519840Y-41061068D01*
X4526303Y-41026424D01*
X4543146Y-40965748D01*
X4549753Y-40945044D01*
X4631472Y-40945044D01*
X4641531Y-40973108D01*
X4663009Y-41033300D01*
X4693119Y-41117803D01*
X4729072Y-41218794D01*
X4744393Y-41261853D01*
X4785115Y-41375247D01*
X4815195Y-41454407D01*
X4837869Y-41505164D01*
X4856375Y-41533348D01*
X4873952Y-41544789D01*
X4893836Y-41545317D01*
X4901157Y-41544144D01*
X4954814Y-41535539D01*
X5026851Y-41525159D01*
X5054744Y-41521396D01*
X5113398Y-41510925D01*
X5149848Y-41499148D01*
X5155728Y-41493530D01*
X5149213Y-41469475D01*
X5130994Y-41412597D01*
X5103450Y-41330065D01*
X5068959Y-41229049D01*
X5046434Y-41164028D01*
X4936781Y-40849128D01*
X4860712Y-40861713D01*
X4758776Y-40882200D01*
X4683153Y-40904835D01*
X4639464Y-40927574D01*
X4631472Y-40945044D01*
X4549753Y-40945044D01*
X4563757Y-40901163D01*
X4592782Y-40815144D01*
X5080679Y-40815144D01*
X5084469Y-40837066D01*
X5100661Y-40892062D01*
X5127085Y-40973388D01*
X5161566Y-41074303D01*
X5191218Y-41158254D01*
X5235775Y-41281436D01*
X5269365Y-41369842D01*
X5294699Y-41428829D01*
X5314488Y-41463754D01*
X5331445Y-41479973D01*
X5348279Y-41482845D01*
X5354882Y-41481630D01*
X5399126Y-41473621D01*
X5468680Y-41463815D01*
X5531391Y-41456285D01*
X5599901Y-41446245D01*
X5640439Y-41436312D01*
X7217990Y-41436312D01*
X7222233Y-41464869D01*
X7241615Y-41531665D01*
X7275725Y-41635494D01*
X7324149Y-41775150D01*
X7386476Y-41949428D01*
X7462292Y-42157122D01*
X7494924Y-42245559D01*
X7512669Y-42255593D01*
X7559456Y-42261309D01*
X7639202Y-42262870D01*
X7755828Y-42260443D01*
X7807296Y-42258635D01*
X7915413Y-42254384D01*
X8006901Y-42250490D01*
X8074185Y-42247298D01*
X8109686Y-42245155D01*
X8113284Y-42244674D01*
X8107533Y-42224850D01*
X8089544Y-42172235D01*
X8061852Y-42093779D01*
X8026990Y-41996435D01*
X7987492Y-41887154D01*
X7945893Y-41772887D01*
X7904727Y-41660586D01*
X7866528Y-41557202D01*
X7833829Y-41469687D01*
X7809166Y-41404993D01*
X7795073Y-41370071D01*
X7792967Y-41366000D01*
X7767078Y-41362408D01*
X7709380Y-41364452D01*
X7629442Y-41370963D01*
X7536834Y-41380770D01*
X7441126Y-41392704D01*
X7351886Y-41405593D01*
X7278684Y-41418268D01*
X7231089Y-41429559D01*
X7217990Y-41436312D01*
X5640439Y-41436312D01*
X5647740Y-41434523D01*
X5663793Y-41424670D01*
X5657144Y-41401979D01*
X5639078Y-41347424D01*
X5612416Y-41269081D01*
X5579977Y-41175023D01*
X5544582Y-41073325D01*
X5509052Y-40972062D01*
X5476206Y-40879309D01*
X5448865Y-40803139D01*
X5429850Y-40751629D01*
X5422234Y-40733097D01*
X5401871Y-40735256D01*
X5352339Y-40745351D01*
X5285447Y-40760545D01*
X5213005Y-40778001D01*
X5146821Y-40794884D01*
X5098705Y-40808355D01*
X5080679Y-40815144D01*
X4592782Y-40815144D01*
X4607675Y-40771008D01*
X4720928Y-40745641D01*
X4788384Y-40728969D01*
X4839650Y-40713473D01*
X4857075Y-40706115D01*
X4859629Y-40693721D01*
X5583506Y-40693721D01*
X5588481Y-40714154D01*
X5605283Y-40766912D01*
X5631292Y-40844458D01*
X5663887Y-40939254D01*
X5700449Y-41043763D01*
X5738358Y-41150448D01*
X5774993Y-41251770D01*
X5807734Y-41340194D01*
X5813801Y-41356238D01*
X5828804Y-41382484D01*
X5854370Y-41397715D01*
X5897726Y-41402451D01*
X5966095Y-41397210D01*
X6066701Y-41382513D01*
X6100949Y-41376887D01*
X6252117Y-41351715D01*
X6121901Y-40987515D01*
X6079733Y-40870750D01*
X6041871Y-40768119D01*
X6010801Y-40686183D01*
X5989008Y-40631504D01*
X5979203Y-40610823D01*
X5956056Y-40611024D01*
X5903065Y-40618973D01*
X5831530Y-40632302D01*
X5752753Y-40648644D01*
X5678034Y-40665630D01*
X5618676Y-40680894D01*
X5585978Y-40692067D01*
X5583506Y-40693721D01*
X4859629Y-40693721D01*
X4862741Y-40678623D01*
X4848805Y-40614839D01*
X4815632Y-40515523D01*
X4785241Y-40430641D01*
X4768142Y-40373149D01*
X4763071Y-40330615D01*
X4768763Y-40290607D01*
X4783956Y-40240692D01*
X4786820Y-40232052D01*
X4822343Y-40125012D01*
X4915209Y-40387262D01*
X4950285Y-40485305D01*
X4980505Y-40567884D01*
X5003003Y-40627308D01*
X5014917Y-40655883D01*
X5015755Y-40657198D01*
X5037661Y-40655547D01*
X5088448Y-40645585D01*
X5156140Y-40630228D01*
X5228761Y-40612394D01*
X5294335Y-40595002D01*
X5340887Y-40580968D01*
X5356282Y-40574236D01*
X5353620Y-40561873D01*
X6179577Y-40561873D01*
X6182831Y-40586692D01*
X6198660Y-40644719D01*
X6225012Y-40729364D01*
X6259838Y-40834037D01*
X6300315Y-40949979D01*
X6351916Y-41091475D01*
X6392731Y-41195817D01*
X6424294Y-41266422D01*
X6448137Y-41306708D01*
X6465795Y-41320093D01*
X6466424Y-41320117D01*
X6501351Y-41317698D01*
X6567241Y-41311032D01*
X6653036Y-41301283D01*
X6707121Y-41294731D01*
X6797966Y-41281295D01*
X6867384Y-41266752D01*
X6907262Y-41253002D01*
X6913668Y-41246344D01*
X6906740Y-41219979D01*
X6887782Y-41161800D01*
X6859529Y-41079388D01*
X6824720Y-40980325D01*
X6786089Y-40872191D01*
X6746375Y-40762569D01*
X6708314Y-40659039D01*
X6674642Y-40569183D01*
X6648097Y-40500582D01*
X6631415Y-40460817D01*
X6627716Y-40454201D01*
X6603135Y-40453642D01*
X6548414Y-40462252D01*
X6474137Y-40477487D01*
X6390885Y-40496805D01*
X6309241Y-40517663D01*
X6239785Y-40537519D01*
X6193102Y-40553830D01*
X6179577Y-40561873D01*
X5353620Y-40561873D01*
X5351735Y-40553115D01*
X5335093Y-40500266D01*
X5309215Y-40423635D01*
X5276958Y-40331171D01*
X5241181Y-40230821D01*
X5204742Y-40130532D01*
X5170499Y-40038250D01*
X5141311Y-39961924D01*
X5120035Y-39909501D01*
X5109926Y-39889233D01*
X5084985Y-39889493D01*
X5033731Y-39903326D01*
X4986118Y-39920492D01*
X4919284Y-39943829D01*
X4887221Y-39947034D01*
X4884341Y-39937171D01*
X4892312Y-39913523D01*
X4912797Y-39852525D01*
X4922714Y-39822969D01*
X5267021Y-39822969D01*
X5271964Y-39844726D01*
X5290930Y-39903291D01*
X5322924Y-39995827D01*
X5366946Y-40119494D01*
X5421999Y-40271451D01*
X5485770Y-40445297D01*
X5509872Y-40501043D01*
X5532873Y-40524386D01*
X5563649Y-40524131D01*
X5564907Y-40523821D01*
X5608113Y-40512930D01*
X5677482Y-40495420D01*
X5758096Y-40475057D01*
X5759122Y-40474798D01*
X5831459Y-40453755D01*
X5884254Y-40433127D01*
X5907162Y-40417035D01*
X5907413Y-40415711D01*
X5903627Y-40398002D01*
X6832591Y-40398002D01*
X6837744Y-40418313D01*
X6854942Y-40471346D01*
X6881673Y-40550000D01*
X6915426Y-40647175D01*
X6953691Y-40755768D01*
X6993955Y-40868680D01*
X7033709Y-40978809D01*
X7070441Y-41079054D01*
X7101639Y-41162314D01*
X7116216Y-41200041D01*
X7141540Y-41228304D01*
X7186817Y-41228268D01*
X7231070Y-41221113D01*
X7305339Y-41210721D01*
X7397552Y-41198739D01*
X7457619Y-41191332D01*
X7550123Y-41179158D01*
X7627375Y-41167111D01*
X7679334Y-41156864D01*
X7695051Y-41151804D01*
X7695492Y-41127528D01*
X7680855Y-41066874D01*
X7652023Y-40972739D01*
X7609881Y-40848025D01*
X7559289Y-40706512D01*
X7512735Y-40579569D01*
X7470913Y-40466666D01*
X7436031Y-40373677D01*
X7410300Y-40306473D01*
X7395929Y-40270928D01*
X7393863Y-40266897D01*
X7372253Y-40269090D01*
X7318821Y-40279446D01*
X7242836Y-40295801D01*
X7153568Y-40315990D01*
X7060287Y-40337846D01*
X6972264Y-40359204D01*
X6898767Y-40377900D01*
X6849068Y-40391768D01*
X6832591Y-40398002D01*
X5903627Y-40398002D01*
X5900335Y-40382605D01*
X5881027Y-40320270D01*
X5852378Y-40236357D01*
X5817274Y-40138516D01*
X5778603Y-40034398D01*
X5739254Y-39931654D01*
X5702115Y-39837933D01*
X5670072Y-39760887D01*
X5646015Y-39708166D01*
X5632831Y-39687419D01*
X5632476Y-39687358D01*
X5605755Y-39694369D01*
X5551499Y-39712580D01*
X5481123Y-39737753D01*
X5406042Y-39765653D01*
X5337671Y-39792045D01*
X5287424Y-39812692D01*
X5267021Y-39822969D01*
X4922714Y-39822969D01*
X4944840Y-39757029D01*
X4987254Y-39630576D01*
X5833254Y-39630576D01*
X5840186Y-39657680D01*
X5859456Y-39717781D01*
X5888759Y-39804085D01*
X5925790Y-39909798D01*
X5965656Y-40020982D01*
X6016101Y-40157548D01*
X6055489Y-40257605D01*
X6085613Y-40325046D01*
X6108269Y-40363769D01*
X6125251Y-40377669D01*
X6129848Y-40377492D01*
X6163971Y-40368347D01*
X6227543Y-40351658D01*
X6308981Y-40330457D01*
X6341691Y-40321982D01*
X6424885Y-40299149D01*
X6492430Y-40278185D01*
X6533680Y-40262493D01*
X6540403Y-40258481D01*
X6538328Y-40235477D01*
X6524188Y-40180177D01*
X6500503Y-40100100D01*
X6469795Y-40002761D01*
X6434582Y-39895677D01*
X6397387Y-39786366D01*
X6360730Y-39682344D01*
X6327130Y-39591128D01*
X6299110Y-39520234D01*
X6279188Y-39477181D01*
X6277401Y-39474144D01*
X6258485Y-39459974D01*
X6222443Y-39463474D01*
X6168755Y-39481378D01*
X6095234Y-39508786D01*
X6006788Y-39541587D01*
X5955077Y-39560689D01*
X5891012Y-39588066D01*
X5846885Y-39614108D01*
X5833254Y-39630576D01*
X4987254Y-39630576D01*
X4987485Y-39629888D01*
X5039774Y-39473955D01*
X5073333Y-39373861D01*
X6451082Y-39373861D01*
X6521575Y-39567713D01*
X6562241Y-39679549D01*
X6609179Y-39808647D01*
X6654176Y-39932419D01*
X6667691Y-39969596D01*
X6700000Y-40057445D01*
X6727494Y-40130289D01*
X6746674Y-40178970D01*
X6753366Y-40193908D01*
X6775510Y-40193966D01*
X6829250Y-40185085D01*
X6905307Y-40169482D01*
X6994402Y-40149374D01*
X7087256Y-40126978D01*
X7174588Y-40104511D01*
X7247120Y-40084190D01*
X7295571Y-40068231D01*
X7310144Y-40060890D01*
X7305616Y-40039876D01*
X7289187Y-39985996D01*
X7263289Y-39906291D01*
X7230357Y-39807797D01*
X7192825Y-39697555D01*
X7153126Y-39582601D01*
X7113693Y-39469974D01*
X7076961Y-39366714D01*
X7045364Y-39279857D01*
X7021335Y-39216443D01*
X7007307Y-39183510D01*
X7006010Y-39181331D01*
X6985276Y-39185347D01*
X6932172Y-39201737D01*
X6854035Y-39228080D01*
X6758204Y-39261959D01*
X6725797Y-39273706D01*
X6451082Y-39373861D01*
X5073333Y-39373861D01*
X5100752Y-39292083D01*
X5169462Y-39087124D01*
X5244947Y-38861933D01*
X5326251Y-38619361D01*
X5412417Y-38362262D01*
X5502490Y-38093488D01*
X5516932Y-38050390D01*
X5607377Y-37781069D01*
X5694164Y-37523767D01*
X5776337Y-37281255D01*
X5852940Y-37056303D01*
X5923016Y-36851683D01*
X5985609Y-36670164D01*
X6039764Y-36514518D01*
X6084524Y-36387515D01*
X6118933Y-36291926D01*
X6142034Y-36230522D01*
X6152873Y-36206074D01*
X6153451Y-36205816D01*
X6162069Y-36227095D01*
G37*
%TD*%
D11*
%TO.C,J3*%
X52890000Y-133395000D03*
X47110000Y-133395000D03*
D12*
X53350000Y-132330000D03*
X52550000Y-132330000D03*
X51250000Y-132330001D03*
X50250000Y-132330000D03*
X49750000Y-132330000D03*
X48750000Y-132330001D03*
X47450000Y-132330000D03*
X46650000Y-132330000D03*
X46950000Y-132330000D03*
X47750000Y-132330000D03*
X48250000Y-132330000D03*
X49250000Y-132330000D03*
X50750000Y-132330000D03*
X51750000Y-132330000D03*
X52250000Y-132330000D03*
X53050000Y-132330000D03*
D13*
X54320000Y-137075000D03*
D14*
X54320000Y-132895000D03*
D13*
X45680000Y-137075000D03*
D14*
X45680000Y-132895000D03*
%TD*%
D15*
%TO.C,X1*%
X21520000Y-16750000D03*
D16*
X21520000Y-19290000D03*
D15*
X24060000Y-16750000D03*
X24060000Y-19290000D03*
D17*
X26600000Y-16750000D03*
X26600000Y-19290000D03*
%TD*%
D18*
%TO.C,R9*%
X52175000Y-128500000D03*
X53825000Y-128500000D03*
%TD*%
D19*
%TO.C,U3*%
X65242664Y-65330252D03*
X64065141Y-64854502D03*
X62887618Y-64378752D03*
X61710094Y-63903001D03*
X60532572Y-63427250D03*
X59355047Y-62951500D03*
X58177523Y-62475750D03*
X57000000Y-61999999D03*
X64428479Y-53784538D03*
X65606003Y-54260289D03*
X66783526Y-54736039D03*
X67961051Y-55211790D03*
%TD*%
D20*
%TO.C,L1*%
X54699449Y-66526944D03*
X53650551Y-69123056D03*
%TD*%
D21*
%TO.C,C4*%
X46647455Y-69042597D03*
X47752545Y-66307403D03*
%TD*%
D22*
%TO.C,U4*%
X45995160Y-100457373D03*
X45253413Y-100157687D03*
X44511664Y-99858004D03*
X43769920Y-99558317D03*
X43028171Y-99258632D03*
X42286425Y-98958947D03*
X41544677Y-98659261D03*
X40802930Y-98359578D03*
X40061183Y-98059891D03*
X39319434Y-97760205D03*
X38577689Y-97460521D03*
D23*
X38155291Y-96103473D03*
X38454974Y-95361725D03*
X38754662Y-94619977D03*
X39054347Y-93878231D03*
X39354032Y-93136484D03*
X39653718Y-92394738D03*
X39953402Y-91652989D03*
X40253088Y-90911242D03*
X40552774Y-90169496D03*
X40852458Y-89427748D03*
X41152144Y-88686002D03*
X41451830Y-87944254D03*
X41751515Y-87202508D03*
D22*
X42998047Y-86519753D03*
X43739795Y-86819434D03*
X44481541Y-87119122D03*
X45223288Y-87418808D03*
X45965035Y-87718492D03*
X46706783Y-88018179D03*
X47448531Y-88317863D03*
X48190277Y-88617549D03*
X48932023Y-88917234D03*
X49673772Y-89216919D03*
X50415520Y-89516604D03*
D23*
X50837916Y-90873652D03*
X50538232Y-91615399D03*
X50238546Y-92357145D03*
X49938859Y-93098893D03*
X49639175Y-93840641D03*
X49339489Y-94582389D03*
X49039805Y-95324134D03*
X48740118Y-96065881D03*
X48440432Y-96807629D03*
X48140748Y-97549375D03*
X47841064Y-98291123D03*
X47541378Y-99032868D03*
X47241692Y-99774616D03*
D24*
X41925568Y-94579903D03*
X43756756Y-95319751D03*
D25*
X45587944Y-96059597D03*
D24*
X46327792Y-94228412D03*
X42665415Y-92748715D03*
X44496604Y-93488563D03*
X45236452Y-91657375D03*
X47067640Y-92397223D03*
X43405264Y-90917525D03*
D26*
X51315073Y-89826122D03*
X42135953Y-86117516D03*
X37678134Y-97151003D03*
X46857255Y-100859609D03*
%TD*%
D27*
%TO.C,R11*%
X43139927Y-63234050D03*
X41610073Y-62615950D03*
%TD*%
D28*
%TO.C,D2*%
X10650000Y-84590000D03*
X10650000Y-83725000D03*
X10650000Y-86275000D03*
X10650000Y-85425000D03*
%TD*%
D29*
%TO.C,Q2*%
X46279631Y-73900111D03*
X44517982Y-73188359D03*
X46101194Y-71805765D03*
%TD*%
D30*
%TO.C,C2*%
X52192597Y-65802545D03*
X49457403Y-64697455D03*
%TD*%
D29*
%TO.C,Q1*%
X44829631Y-77525111D03*
X43067982Y-76813359D03*
X44651194Y-75430765D03*
%TD*%
D28*
%TO.C,D1*%
X10650000Y-99590000D03*
X10650000Y-98725000D03*
X10650000Y-101275000D03*
X10650000Y-100425000D03*
%TD*%
D31*
%TO.C,SW1*%
X61973187Y-77571466D03*
X59924111Y-76743586D03*
D32*
X60147881Y-79152843D03*
X59024061Y-81934396D03*
D31*
X59238559Y-84339908D03*
X57189483Y-83512028D03*
D33*
X58796992Y-77798149D03*
X57673172Y-80579700D03*
X57111262Y-81970476D03*
%TD*%
D34*
%TO.C,R13*%
X36460073Y-86765950D03*
X37989927Y-87384050D03*
%TD*%
D35*
%TO.C,C8*%
X43340320Y-102656433D03*
X42759680Y-104093567D03*
%TD*%
D36*
%TO.C,BT1*%
X80000000Y-67000000D03*
X80000000Y-120000000D03*
%TD*%
D37*
%TO.C,R12*%
X41315950Y-103539927D03*
X41934050Y-102010073D03*
%TD*%
%TO.C,R4*%
X47640950Y-74789927D03*
X48259050Y-73260073D03*
%TD*%
D28*
%TO.C,D3*%
X10650000Y-69590000D03*
X10650000Y-68725000D03*
X10650000Y-71275000D03*
X10650000Y-70425000D03*
%TD*%
D38*
%TO.C,R10*%
X47825000Y-128500000D03*
X46175000Y-128500000D03*
%TD*%
D39*
%TO.C,U2*%
X49620369Y-67249889D03*
X51382018Y-67961641D03*
X49798806Y-69344235D03*
%TD*%
D40*
%TO.C,C5*%
X71951992Y-51951992D03*
X73048008Y-53048008D03*
%TD*%
D36*
%TO.C,BT2*%
X20000000Y-67000000D03*
X20000000Y-120000000D03*
%TD*%
D41*
%TO.C,L2*%
X71443153Y-49556847D03*
X72556847Y-48443153D03*
%TD*%
D42*
%TO.C,C7*%
X40318567Y-62090320D03*
X38881433Y-61509680D03*
%TD*%
D43*
%TO.C,U1*%
X35829710Y-79498048D03*
X34948885Y-79142172D03*
X34068060Y-78786295D03*
X34920290Y-76676952D03*
X36681940Y-77388705D03*
%TD*%
D28*
%TO.C,D4*%
X10650000Y-54590000D03*
X10650000Y-53725000D03*
X10650000Y-56275000D03*
X10650000Y-55425000D03*
%TD*%
%TO.C,D5*%
X10650000Y-39590000D03*
X10650000Y-38725000D03*
X10650000Y-41275000D03*
X10650000Y-40425000D03*
%TD*%
D35*
%TO.C,C6*%
X44765320Y-103231433D03*
X44184680Y-104668567D03*
%TD*%
D42*
%TO.C,C3*%
X37443567Y-75665320D03*
X36006433Y-75084680D03*
%TD*%
D37*
%TO.C,R3*%
X46490950Y-77614927D03*
X47109050Y-76085073D03*
%TD*%
D44*
%TO.C,SW5*%
X43731639Y-60732382D03*
X46091660Y-54891123D03*
X40208340Y-59308877D03*
X42568361Y-53467618D03*
%TD*%
D45*
%TO.C,J4*%
X48422458Y-48199989D03*
X48797064Y-47272805D03*
X49171671Y-46345621D03*
X49546278Y-45418436D03*
D46*
X44342632Y-47953727D03*
X46440429Y-42761498D03*
%TD*%
D40*
%TO.C,C9*%
X74951992Y-48951992D03*
X76048008Y-50048008D03*
%TD*%
D42*
%TO.C,C1*%
X35168567Y-81265320D03*
X33731433Y-80684680D03*
%TD*%
D34*
%TO.C,R14*%
X37035073Y-85340950D03*
X38564927Y-85959050D03*
%TD*%
D47*
%TO.C,SW4*%
X38318361Y-63967618D03*
X35958340Y-69808877D03*
X41841660Y-65391123D03*
X39481639Y-71232382D03*
%TD*%
D48*
%TO.C,AE1*%
X76358757Y-44647339D03*
X80954951Y-49243533D03*
%TD*%
M02*
