%TF.GenerationSoftware,KiCad,Pcbnew,9.0.1*%
%TF.CreationDate,2025-06-08T19:27:13+02:00*%
%TF.ProjectId,circle-badge,63697263-6c65-42d6-9261-6467652e6b69,1.1*%
%TF.SameCoordinates,PX2faf080PY1c9c380*%
%TF.FileFunction,Soldermask,Top*%
%TF.FilePolarity,Negative*%
%FSLAX46Y46*%
G04 Gerber Fmt 4.6, Leading zero omitted, Abs format (unit mm)*
G04 Created by KiCad (PCBNEW 9.0.1) date 2025-06-08 19:27:13*
%MOMM*%
%LPD*%
G01*
G04 APERTURE LIST*
%ADD10C,0.000000*%
%ADD11O,1.727200X1.727200*%
%ADD12R,1.727200X1.727200*%
%ADD13C,1.727200*%
%ADD14C,0.650000*%
%ADD15O,1.000000X1.600000*%
%ADD16O,1.000000X2.100000*%
%ADD17C,0.900000*%
%ADD18C,2.000000*%
G04 APERTURE END LIST*
D10*
%TO.C,G\u002A\u002A\u002A*%
G36*
X5280016Y-56454489D02*
G01*
X5433662Y-56516447D01*
X5572541Y-56610775D01*
X5691035Y-56735900D01*
X5780887Y-56884574D01*
X5814263Y-56961429D01*
X5833733Y-57026909D01*
X5842806Y-57098437D01*
X5844994Y-57193434D01*
X5844977Y-57202605D01*
X5826007Y-57391104D01*
X5770591Y-57558229D01*
X5679198Y-57703188D01*
X5552298Y-57825188D01*
X5430742Y-57902952D01*
X5359259Y-57938818D01*
X5298546Y-57960988D01*
X5232839Y-57973243D01*
X5146375Y-57979361D01*
X5105921Y-57980827D01*
X4966413Y-57979394D01*
X4857409Y-57965863D01*
X4821960Y-57956555D01*
X4695306Y-57898517D01*
X4571240Y-57812008D01*
X4465511Y-57708863D01*
X4428601Y-57660889D01*
X4343748Y-57502775D01*
X4297367Y-57335980D01*
X4288366Y-57166464D01*
X4315650Y-57000183D01*
X4378129Y-56843095D01*
X4474709Y-56701160D01*
X4604297Y-56580334D01*
X4630163Y-56561889D01*
X4786678Y-56478603D01*
X4950905Y-56433992D01*
X5117224Y-56426479D01*
X5280016Y-56454489D01*
G37*
G36*
X5215213Y-54479768D02*
G01*
X5343978Y-54481616D01*
X5448121Y-54485749D01*
X5536510Y-54492762D01*
X5618011Y-54503248D01*
X5701491Y-54517801D01*
X5741508Y-54525722D01*
X6123952Y-54624239D01*
X6487162Y-54760496D01*
X6830942Y-54934404D01*
X7155098Y-55145875D01*
X7213761Y-55189766D01*
X7330232Y-55282111D01*
X7415115Y-55359134D01*
X7473048Y-55427504D01*
X7508669Y-55493889D01*
X7526616Y-55564959D01*
X7531526Y-55646715D01*
X7511737Y-55767642D01*
X7456292Y-55873455D01*
X7371071Y-55957398D01*
X7261955Y-56012713D01*
X7200046Y-56027560D01*
X7106288Y-56030244D01*
X7012450Y-56005796D01*
X6910612Y-55951176D01*
X6811259Y-55878286D01*
X6532930Y-55678478D01*
X6243480Y-55517835D01*
X5936826Y-55393459D01*
X5606884Y-55302455D01*
X5597221Y-55300353D01*
X5487042Y-55283152D01*
X5346438Y-55270974D01*
X5187065Y-55263914D01*
X5020578Y-55262063D01*
X4858635Y-55265518D01*
X4712890Y-55274370D01*
X4595000Y-55288714D01*
X4576313Y-55292146D01*
X4269901Y-55371114D01*
X3973416Y-55483567D01*
X3695474Y-55625640D01*
X3444689Y-55793471D01*
X3425832Y-55808072D01*
X3294882Y-55906037D01*
X3186638Y-55975155D01*
X3094769Y-56017457D01*
X3012947Y-56034979D01*
X2934843Y-56029755D01*
X2854127Y-56003818D01*
X2838323Y-55996875D01*
X2730414Y-55926525D01*
X2654295Y-55831280D01*
X2612981Y-55717366D01*
X2609483Y-55591011D01*
X2618378Y-55542348D01*
X2644811Y-55470262D01*
X2691614Y-55397780D01*
X2762657Y-55321060D01*
X2861811Y-55236263D01*
X2992946Y-55139547D01*
X3093411Y-55070976D01*
X3431236Y-54869392D01*
X3781992Y-54707621D01*
X4149409Y-54584085D01*
X4375062Y-54528589D01*
X4458688Y-54511865D01*
X4537633Y-54499421D01*
X4620578Y-54490630D01*
X4716202Y-54484865D01*
X4833183Y-54481499D01*
X4980201Y-54479905D01*
X5052961Y-54479613D01*
X5215213Y-54479768D01*
G37*
G36*
X5314199Y-52514567D02*
G01*
X5500377Y-52522542D01*
X5665773Y-52534452D01*
X5773228Y-52546372D01*
X6256182Y-52632157D01*
X6720868Y-52756161D01*
X7167990Y-52918686D01*
X7598249Y-53120034D01*
X8012348Y-53360508D01*
X8410987Y-53640409D01*
X8527189Y-53731726D01*
X8677720Y-53856989D01*
X8794848Y-53964509D01*
X8881473Y-54058412D01*
X8940492Y-54142822D01*
X8974804Y-54221863D01*
X8987308Y-54299661D01*
X8981316Y-54377985D01*
X8940801Y-54498321D01*
X8868098Y-54594336D01*
X8768266Y-54661915D01*
X8646365Y-54696948D01*
X8583950Y-54701001D01*
X8503932Y-54693814D01*
X8429332Y-54669109D01*
X8351350Y-54622173D01*
X8261185Y-54548291D01*
X8209424Y-54500380D01*
X7996515Y-54316177D01*
X7750902Y-54135026D01*
X7482156Y-53962776D01*
X7199850Y-53805274D01*
X6913556Y-53668368D01*
X6715930Y-53587931D01*
X6306899Y-53456583D01*
X5883916Y-53363471D01*
X5452012Y-53308923D01*
X5016219Y-53293264D01*
X4581568Y-53316824D01*
X4153092Y-53379927D01*
X4004337Y-53411689D01*
X3796688Y-53466951D01*
X3569827Y-53539702D01*
X3339951Y-53624142D01*
X3123254Y-53714471D01*
X3006158Y-53769152D01*
X2805076Y-53876110D01*
X2591511Y-54004311D01*
X2378113Y-54145335D01*
X2177533Y-54290762D01*
X2002423Y-54432173D01*
X1978363Y-54453200D01*
X1894903Y-54525199D01*
X1816753Y-54589324D01*
X1752450Y-54638776D01*
X1710532Y-54666757D01*
X1709315Y-54667399D01*
X1627647Y-54693017D01*
X1529484Y-54700407D01*
X1433152Y-54689883D01*
X1356977Y-54661759D01*
X1356297Y-54661339D01*
X1252743Y-54578409D01*
X1187451Y-54480030D01*
X1157650Y-54361318D01*
X1155046Y-54306539D01*
X1162241Y-54228469D01*
X1186643Y-54155429D01*
X1232473Y-54081164D01*
X1303954Y-53999417D01*
X1405307Y-53903930D01*
X1457246Y-53858697D01*
X1838854Y-53556151D01*
X2231987Y-53293245D01*
X2639198Y-53068846D01*
X3063041Y-52881820D01*
X3506072Y-52731035D01*
X3970844Y-52615359D01*
X4438615Y-52536451D01*
X4571401Y-52523580D01*
X4735839Y-52515034D01*
X4921443Y-52510735D01*
X5117725Y-52510605D01*
X5314199Y-52514567D01*
G37*
G36*
X6057302Y-36028853D02*
G01*
X6038809Y-36087591D01*
X6008172Y-36182080D01*
X5966126Y-36310121D01*
X5913406Y-36469512D01*
X5850748Y-36658051D01*
X5778886Y-36873538D01*
X5698558Y-37113770D01*
X5610497Y-37376547D01*
X5515439Y-37659668D01*
X5414119Y-37960932D01*
X5307273Y-38278136D01*
X5195637Y-38609079D01*
X5079945Y-38951562D01*
X5051509Y-39035669D01*
X4933494Y-39384668D01*
X4818369Y-39725126D01*
X4706948Y-40054635D01*
X4600045Y-40370786D01*
X4498474Y-40671170D01*
X4403051Y-40953379D01*
X4314588Y-41215004D01*
X4233902Y-41453637D01*
X4161806Y-41666868D01*
X4099115Y-41852288D01*
X4046643Y-42007491D01*
X4005204Y-42130065D01*
X3975614Y-42217604D01*
X3958685Y-42267697D01*
X3957460Y-42271327D01*
X3884070Y-42488648D01*
X2890283Y-42488648D01*
X2689632Y-42488513D01*
X2502537Y-42488127D01*
X2333139Y-42487517D01*
X2185579Y-42486710D01*
X2063997Y-42485733D01*
X1972535Y-42484614D01*
X1915334Y-42483380D01*
X1896497Y-42482115D01*
X1903599Y-42460810D01*
X1924150Y-42402800D01*
X1957015Y-42311194D01*
X2001060Y-42189099D01*
X2055151Y-42039625D01*
X2118153Y-41865879D01*
X2188933Y-41670970D01*
X2266355Y-41458007D01*
X2349286Y-41230096D01*
X2436592Y-40990348D01*
X2527138Y-40741870D01*
X2619789Y-40487771D01*
X2713413Y-40231158D01*
X2806874Y-39975141D01*
X2899038Y-39722827D01*
X2988771Y-39477325D01*
X3074939Y-39241744D01*
X3156408Y-39019191D01*
X3232042Y-38812775D01*
X3300709Y-38625604D01*
X3361273Y-38460787D01*
X3412600Y-38321432D01*
X3453557Y-38210647D01*
X3483009Y-38131540D01*
X3499822Y-38087221D01*
X3503339Y-38078673D01*
X3528010Y-38056795D01*
X3582323Y-38019732D01*
X3658615Y-37972403D01*
X3749225Y-37919727D01*
X3763000Y-37911991D01*
X4169457Y-37666458D01*
X4558232Y-37395399D01*
X4743332Y-37251794D01*
X4866123Y-37149621D01*
X5008169Y-37025971D01*
X5162319Y-36887532D01*
X5321419Y-36740990D01*
X5478314Y-36593032D01*
X5625853Y-36450345D01*
X5756881Y-36319615D01*
X5864245Y-36207531D01*
X5886964Y-36182750D01*
X5952762Y-36111698D01*
X6007947Y-36055031D01*
X6046648Y-36018576D01*
X6062914Y-36008070D01*
X6057302Y-36028853D01*
G37*
G36*
X3998679Y-97675252D02*
G01*
X4253888Y-97732782D01*
X4496606Y-97829684D01*
X4728875Y-97966790D01*
X4952735Y-98144933D01*
X4974369Y-98164697D01*
X5118213Y-98297635D01*
X5260357Y-98161165D01*
X5393267Y-98041497D01*
X5519710Y-97946707D01*
X5655628Y-97865686D01*
X5757464Y-97814739D01*
X5883754Y-97758915D01*
X5998017Y-97718629D01*
X6111808Y-97691592D01*
X6236680Y-97675515D01*
X6384187Y-97668111D01*
X6504087Y-97666861D01*
X6635828Y-97667733D01*
X6735658Y-97671075D01*
X6814011Y-97677976D01*
X6881322Y-97689526D01*
X6948024Y-97706816D01*
X6979987Y-97716559D01*
X7239253Y-97818710D01*
X7474775Y-97953616D01*
X7683906Y-98118756D01*
X7863999Y-98311608D01*
X8012406Y-98529654D01*
X8126481Y-98770372D01*
X8147389Y-98828110D01*
X8215981Y-99091148D01*
X8245955Y-99361168D01*
X8238189Y-99632521D01*
X8193556Y-99899557D01*
X8112934Y-100156625D01*
X7997198Y-100398076D01*
X7875429Y-100582137D01*
X7842758Y-100619265D01*
X7782614Y-100681496D01*
X7697939Y-100766070D01*
X7591674Y-100870230D01*
X7466760Y-100991218D01*
X7326140Y-101126276D01*
X7172753Y-101272645D01*
X7009543Y-101427567D01*
X6839450Y-101588285D01*
X6665416Y-101752041D01*
X6490382Y-101916076D01*
X6317290Y-102077632D01*
X6149082Y-102233951D01*
X5988697Y-102382276D01*
X5839079Y-102519847D01*
X5703169Y-102643908D01*
X5583908Y-102751699D01*
X5484237Y-102840463D01*
X5407098Y-102907443D01*
X5355432Y-102949878D01*
X5335342Y-102963852D01*
X5241280Y-102996047D01*
X5128964Y-103011218D01*
X5019727Y-103007450D01*
X4968997Y-102996706D01*
X4898430Y-102967565D01*
X4831534Y-102928729D01*
X4831344Y-102928594D01*
X4801404Y-102903745D01*
X4743737Y-102852568D01*
X4661369Y-102777898D01*
X4557327Y-102682576D01*
X4434639Y-102569437D01*
X4296331Y-102441320D01*
X4145430Y-102301063D01*
X3984963Y-102151504D01*
X3817956Y-101995480D01*
X3647436Y-101835830D01*
X3476430Y-101675390D01*
X3307966Y-101516999D01*
X3145069Y-101363495D01*
X2990767Y-101217715D01*
X2848086Y-101082497D01*
X2720053Y-100960680D01*
X2609696Y-100855100D01*
X2520040Y-100768595D01*
X2454113Y-100704004D01*
X2414941Y-100664164D01*
X2408508Y-100657056D01*
X2249301Y-100439913D01*
X2126788Y-100201878D01*
X2041235Y-99943717D01*
X1992911Y-99666199D01*
X1981234Y-99434470D01*
X1995317Y-99173713D01*
X2039109Y-98937134D01*
X2114928Y-98716561D01*
X2225092Y-98503820D01*
X2261596Y-98445787D01*
X2427059Y-98229430D01*
X2618975Y-98045182D01*
X2834375Y-97894640D01*
X3070287Y-97779404D01*
X3323742Y-97701071D01*
X3591769Y-97661239D01*
X3728941Y-97656260D01*
X3998679Y-97675252D01*
G37*
G36*
X5193232Y-67001685D02*
G01*
X5299670Y-67040205D01*
X5309306Y-67045977D01*
X5340018Y-67069118D01*
X5399131Y-67117413D01*
X5483264Y-67187974D01*
X5589039Y-67277910D01*
X5713076Y-67384331D01*
X5851996Y-67504349D01*
X6002420Y-67635072D01*
X6160968Y-67773613D01*
X6190132Y-67799177D01*
X6405053Y-67988517D01*
X6587666Y-68151235D01*
X6738355Y-68287687D01*
X6857501Y-68398226D01*
X6945486Y-68483209D01*
X7002693Y-68542989D01*
X7029503Y-68577922D01*
X7030075Y-68579070D01*
X7059914Y-68680718D01*
X7063788Y-68793376D01*
X7042282Y-68899455D01*
X7017698Y-68952204D01*
X6991342Y-68983269D01*
X6936657Y-69038437D01*
X6857451Y-69114180D01*
X6757533Y-69206968D01*
X6640710Y-69313273D01*
X6510792Y-69429566D01*
X6371587Y-69552316D01*
X6345204Y-69575378D01*
X6207575Y-69695974D01*
X6080771Y-69807974D01*
X5968176Y-69908319D01*
X5873176Y-69993954D01*
X5799156Y-70061820D01*
X5749501Y-70108862D01*
X5727595Y-70132023D01*
X5726871Y-70133774D01*
X5743767Y-70150138D01*
X5789113Y-70191277D01*
X5859423Y-70254101D01*
X5951210Y-70335520D01*
X6060988Y-70432444D01*
X6185272Y-70541781D01*
X6320575Y-70660442D01*
X6351269Y-70687312D01*
X6490858Y-70810231D01*
X6621914Y-70927088D01*
X6740610Y-71034362D01*
X6843119Y-71128533D01*
X6925613Y-71206079D01*
X6984266Y-71263479D01*
X7015249Y-71297214D01*
X7017267Y-71300005D01*
X7052498Y-71384251D01*
X7065831Y-71488354D01*
X7056664Y-71595515D01*
X7030742Y-71676439D01*
X7005099Y-71710287D01*
X6947962Y-71769934D01*
X6859125Y-71855567D01*
X6738386Y-71967375D01*
X6585539Y-72105548D01*
X6400381Y-72270274D01*
X6182707Y-72461743D01*
X6178073Y-72465801D01*
X6017945Y-72605746D01*
X5866138Y-72737942D01*
X5725886Y-72859605D01*
X5600423Y-72967952D01*
X5492985Y-73060198D01*
X5406805Y-73133561D01*
X5345118Y-73185256D01*
X5311159Y-73212501D01*
X5307173Y-73215297D01*
X5254199Y-73238412D01*
X5184354Y-73256811D01*
X5115771Y-73266868D01*
X5066580Y-73264957D01*
X5063553Y-73264014D01*
X5028178Y-73254060D01*
X4985744Y-73244014D01*
X4914584Y-73212426D01*
X4840563Y-73154341D01*
X4778130Y-73081966D01*
X4760915Y-73054110D01*
X4752317Y-73034894D01*
X4745060Y-73008819D01*
X4738975Y-72972108D01*
X4733895Y-72920985D01*
X4729652Y-72851672D01*
X4726078Y-72760392D01*
X4723004Y-72643369D01*
X4720264Y-72496825D01*
X4717689Y-72316983D01*
X4715111Y-72100066D01*
X4714012Y-71999339D01*
X4708558Y-71490402D01*
X5497831Y-71490402D01*
X5498497Y-71629484D01*
X5500365Y-71753240D01*
X5503241Y-71855768D01*
X5506929Y-71931164D01*
X5511237Y-71973526D01*
X5513976Y-71980634D01*
X5534521Y-71967361D01*
X5581243Y-71930601D01*
X5648566Y-71874943D01*
X5730917Y-71804976D01*
X5799965Y-71745195D01*
X5888894Y-71666765D01*
X5965312Y-71597768D01*
X6024007Y-71543038D01*
X6059767Y-71507414D01*
X6068398Y-71496071D01*
X6052883Y-71478678D01*
X6011591Y-71439469D01*
X5950984Y-71384142D01*
X5877525Y-71318393D01*
X5797677Y-71247920D01*
X5717902Y-71178419D01*
X5644662Y-71115589D01*
X5584421Y-71065126D01*
X5543640Y-71032728D01*
X5538872Y-71029258D01*
X5525797Y-71021261D01*
X5515842Y-71021400D01*
X5508583Y-71034453D01*
X5503594Y-71065200D01*
X5500449Y-71118417D01*
X5498725Y-71198883D01*
X5497994Y-71311375D01*
X5497833Y-71460671D01*
X5497831Y-71490402D01*
X4708558Y-71490402D01*
X4703419Y-71010949D01*
X4247957Y-71413065D01*
X4126545Y-71519049D01*
X4011275Y-71617410D01*
X3907100Y-71704095D01*
X3818974Y-71775052D01*
X3751848Y-71826228D01*
X3710678Y-71853570D01*
X3707756Y-71855038D01*
X3590852Y-71889524D01*
X3477171Y-71886514D01*
X3372452Y-71850841D01*
X3282435Y-71787339D01*
X3212857Y-71700840D01*
X3169459Y-71596179D01*
X3157979Y-71478188D01*
X3169170Y-71401446D01*
X3176850Y-71370851D01*
X3185989Y-71343029D01*
X3199405Y-71315166D01*
X3219918Y-71284451D01*
X3250347Y-71248070D01*
X3293512Y-71203210D01*
X3352232Y-71147058D01*
X3429325Y-71076801D01*
X3527613Y-70989627D01*
X3649913Y-70882723D01*
X3799046Y-70753275D01*
X3948679Y-70623706D01*
X4078185Y-70511207D01*
X4196934Y-70407303D01*
X4301241Y-70315275D01*
X4387424Y-70238404D01*
X4451799Y-70179973D01*
X4490682Y-70143263D01*
X4500959Y-70131727D01*
X4485793Y-70114972D01*
X4442018Y-70073503D01*
X4373041Y-70010383D01*
X4282269Y-69928673D01*
X4173109Y-69831434D01*
X4048968Y-69721728D01*
X3913252Y-69602615D01*
X3871935Y-69566505D01*
X3731551Y-69443194D01*
X3600264Y-69326465D01*
X3481762Y-69219703D01*
X3379733Y-69126292D01*
X3297863Y-69049613D01*
X3239841Y-68993052D01*
X3209353Y-68959991D01*
X3206572Y-68955979D01*
X3161969Y-68842390D01*
X3154750Y-68727899D01*
X3180553Y-68618838D01*
X3235015Y-68521537D01*
X3313771Y-68442325D01*
X3412459Y-68387533D01*
X3526715Y-68363491D01*
X3611825Y-68368056D01*
X3644593Y-68374481D01*
X3676644Y-68384661D01*
X3711785Y-68401465D01*
X3753822Y-68427762D01*
X3806563Y-68466420D01*
X3873814Y-68520310D01*
X3959383Y-68592301D01*
X4067076Y-68685261D01*
X4200700Y-68802061D01*
X4279733Y-68871445D01*
X4703419Y-69243695D01*
X4708626Y-68756163D01*
X5497831Y-68756163D01*
X5498340Y-68895124D01*
X5499768Y-69018754D01*
X5501965Y-69121145D01*
X5504783Y-69196390D01*
X5508074Y-69238579D01*
X5510149Y-69245576D01*
X5529385Y-69232302D01*
X5574879Y-69195544D01*
X5641143Y-69139897D01*
X5722686Y-69069956D01*
X5790841Y-69010644D01*
X5880011Y-68932011D01*
X5957317Y-68862747D01*
X6017377Y-68807763D01*
X6054809Y-68771970D01*
X6064787Y-68760694D01*
X6051354Y-68743423D01*
X6011933Y-68704267D01*
X5952810Y-68648812D01*
X5880273Y-68582644D01*
X5800608Y-68511349D01*
X5720101Y-68440513D01*
X5645041Y-68375723D01*
X5581713Y-68322565D01*
X5536404Y-68286625D01*
X5516840Y-68273817D01*
X5511169Y-68291953D01*
X5506251Y-68347440D01*
X5502284Y-68435231D01*
X5499467Y-68550277D01*
X5497999Y-68687530D01*
X5497831Y-68756163D01*
X4708626Y-68756163D01*
X4714012Y-68251859D01*
X4724604Y-67260023D01*
X4782884Y-67171916D01*
X4862881Y-67085564D01*
X4964697Y-67026791D01*
X5078195Y-66998023D01*
X5193232Y-67001685D01*
G37*
G36*
X3848393Y-81427817D02*
G01*
X3920797Y-81435015D01*
X3982887Y-81450914D01*
X4050658Y-81478705D01*
X4078482Y-81491737D01*
X4232174Y-81586655D01*
X4356553Y-81707875D01*
X4449686Y-81849824D01*
X4509642Y-82006925D01*
X4534491Y-82173606D01*
X4522301Y-82344292D01*
X4471139Y-82513408D01*
X4448942Y-82560958D01*
X4399017Y-82659564D01*
X4572390Y-83028738D01*
X4745763Y-83397913D01*
X5105909Y-83397913D01*
X5244118Y-83398528D01*
X5349127Y-83400960D01*
X5430092Y-83406085D01*
X5496172Y-83414781D01*
X5556525Y-83427925D01*
X5620307Y-83446395D01*
X5624025Y-83447560D01*
X5803949Y-83514359D01*
X5976927Y-83597585D01*
X6127474Y-83689533D01*
X6164298Y-83716402D01*
X6225571Y-83759987D01*
X6266788Y-83779011D01*
X6298986Y-83777719D01*
X6311036Y-83772841D01*
X6339615Y-83754825D01*
X6397194Y-83715066D01*
X6478785Y-83657136D01*
X6579397Y-83584607D01*
X6694041Y-83501049D01*
X6811259Y-83414813D01*
X7266722Y-83078253D01*
X7282310Y-82922615D01*
X7300473Y-82811609D01*
X7329897Y-82704474D01*
X7349849Y-82653406D01*
X7421647Y-82535424D01*
X7522517Y-82421863D01*
X7639928Y-82325161D01*
X7738374Y-82267814D01*
X7804203Y-82239842D01*
X7864641Y-82222773D01*
X7934168Y-82214060D01*
X8027263Y-82211157D01*
X8061134Y-82211038D01*
X8163887Y-82212721D01*
X8238826Y-82219465D01*
X8300429Y-82233820D01*
X8363176Y-82258330D01*
X8383894Y-82267814D01*
X8511856Y-82346406D01*
X8631613Y-82454205D01*
X8730358Y-82578391D01*
X8777032Y-82661445D01*
X8804988Y-82727681D01*
X8822064Y-82788808D01*
X8830821Y-82859365D01*
X8833824Y-82953895D01*
X8833979Y-82984474D01*
X8832520Y-83087072D01*
X8826012Y-83161728D01*
X8811953Y-83222826D01*
X8787841Y-83284752D01*
X8778003Y-83306217D01*
X8682423Y-83463705D01*
X8559168Y-83591051D01*
X8412287Y-83685495D01*
X8245828Y-83744277D01*
X8107429Y-83763470D01*
X7959223Y-83761768D01*
X7843537Y-83740619D01*
X7742453Y-83709216D01*
X7250376Y-84070290D01*
X7124402Y-84162739D01*
X7010041Y-84246689D01*
X6911609Y-84318972D01*
X6833418Y-84376417D01*
X6779783Y-84415858D01*
X6755017Y-84434125D01*
X6753859Y-84434997D01*
X6757747Y-84455349D01*
X6771980Y-84506342D01*
X6793804Y-84578291D01*
X6802084Y-84604610D01*
X6846743Y-84788033D01*
X6872966Y-84990448D01*
X6880335Y-85198151D01*
X6868431Y-85397438D01*
X6836835Y-85574606D01*
X6832242Y-85591790D01*
X6818505Y-85644840D01*
X6811574Y-85678574D01*
X6811377Y-85681158D01*
X6828722Y-85695734D01*
X6877469Y-85728749D01*
X6952585Y-85777002D01*
X7049036Y-85837292D01*
X7161790Y-85906417D01*
X7238711Y-85952930D01*
X7666163Y-86210072D01*
X7811023Y-86163455D01*
X7989394Y-86126780D01*
X8164640Y-86129919D01*
X8331416Y-86170625D01*
X8484373Y-86246650D01*
X8618165Y-86355746D01*
X8727445Y-86495666D01*
X8765514Y-86564641D01*
X8798438Y-86635350D01*
X8818818Y-86693822D01*
X8829616Y-86754780D01*
X8833793Y-86832944D01*
X8834362Y-86906933D01*
X8833090Y-87006231D01*
X8827301Y-87077868D01*
X8814034Y-87136559D01*
X8790330Y-87197017D01*
X8765514Y-87249136D01*
X8667140Y-87404872D01*
X8542483Y-87527839D01*
X8394032Y-87616398D01*
X8224273Y-87668910D01*
X8107642Y-87682739D01*
X7998217Y-87683180D01*
X7898944Y-87674211D01*
X7847794Y-87663696D01*
X7686435Y-87597136D01*
X7545338Y-87497767D01*
X7429480Y-87371367D01*
X7343834Y-87223713D01*
X7293378Y-87060584D01*
X7286059Y-87011391D01*
X7272709Y-86893317D01*
X6842579Y-86635056D01*
X6720727Y-86562357D01*
X6610662Y-86497576D01*
X6517662Y-86443746D01*
X6447003Y-86403900D01*
X6403961Y-86381072D01*
X6393382Y-86376794D01*
X6368219Y-86390955D01*
X6327962Y-86426458D01*
X6312095Y-86442627D01*
X6211790Y-86531470D01*
X6081039Y-86621732D01*
X5931074Y-86707197D01*
X5773125Y-86781645D01*
X5618424Y-86838860D01*
X5571977Y-86852369D01*
X5442613Y-86878139D01*
X5288259Y-86894988D01*
X5125511Y-86902098D01*
X4970967Y-86898649D01*
X4862302Y-86887413D01*
X4604664Y-86826910D01*
X4361133Y-86729836D01*
X4135534Y-86599562D01*
X3931693Y-86439461D01*
X3753434Y-86252904D01*
X3604584Y-86043263D01*
X3488968Y-85813910D01*
X3423060Y-85618823D01*
X3398951Y-85528714D01*
X2946856Y-85528714D01*
X2494762Y-85528714D01*
X2415343Y-85625715D01*
X2285109Y-85753541D01*
X2135186Y-85846779D01*
X1971410Y-85904066D01*
X1799617Y-85924043D01*
X1625645Y-85905346D01*
X1459710Y-85848682D01*
X1307596Y-85755530D01*
X1183927Y-85631415D01*
X1087418Y-85475036D01*
X1084210Y-85468315D01*
X1051026Y-85393255D01*
X1031039Y-85330212D01*
X1020997Y-85262997D01*
X1017647Y-85175423D01*
X1017453Y-85136031D01*
X1017783Y-85114252D01*
X4546000Y-85114252D01*
X4553865Y-85254159D01*
X4596372Y-85389521D01*
X4657334Y-85490621D01*
X4766186Y-85600537D01*
X4895546Y-85676469D01*
X5038497Y-85716760D01*
X5188124Y-85719748D01*
X5337513Y-85683775D01*
X5382399Y-85664593D01*
X5489195Y-85592944D01*
X5582393Y-85491173D01*
X5654778Y-85370620D01*
X5699136Y-85242626D01*
X5709675Y-85150131D01*
X5690046Y-85005369D01*
X5634934Y-84869124D01*
X5549999Y-84749333D01*
X5440900Y-84653931D01*
X5313296Y-84590853D01*
X5310036Y-84589797D01*
X5197243Y-84561248D01*
X5097734Y-84556374D01*
X4990688Y-84574993D01*
X4948872Y-84586644D01*
X4816713Y-84646374D01*
X4708134Y-84735860D01*
X4625347Y-84848242D01*
X4570565Y-84976659D01*
X4546000Y-85114252D01*
X1017783Y-85114252D01*
X1018930Y-85038619D01*
X1025678Y-84967745D01*
X1040980Y-84907591D01*
X1068118Y-84842340D01*
X1086195Y-84804801D01*
X1185307Y-84650139D01*
X1315587Y-84523220D01*
X1469100Y-84429611D01*
X1531887Y-84402665D01*
X1589477Y-84385881D01*
X1655391Y-84376970D01*
X1743151Y-84373640D01*
X1801168Y-84373354D01*
X1902882Y-84374595D01*
X1975566Y-84379806D01*
X2032529Y-84391469D01*
X2087083Y-84412068D01*
X2136468Y-84435907D01*
X2232007Y-84495990D01*
X2329728Y-84577154D01*
X2373674Y-84621276D01*
X2487422Y-84744240D01*
X2942276Y-84744240D01*
X3397129Y-84744240D01*
X3444169Y-84601127D01*
X3513290Y-84417783D01*
X3595243Y-84256451D01*
X3697567Y-84104921D01*
X3827802Y-83950988D01*
X3879561Y-83896160D01*
X4033066Y-83737145D01*
X3859819Y-83362305D01*
X3686572Y-82987464D01*
X3601835Y-82972979D01*
X3453626Y-82927644D01*
X3311675Y-82847023D01*
X3185060Y-82738141D01*
X3082857Y-82608024D01*
X3046777Y-82543453D01*
X3000502Y-82410273D01*
X2977962Y-82257310D01*
X2979859Y-82100371D01*
X3006897Y-81955266D01*
X3018981Y-81919144D01*
X3090774Y-81782122D01*
X3195965Y-81655584D01*
X3325596Y-81549049D01*
X3417685Y-81495544D01*
X3491343Y-81461327D01*
X3552106Y-81440610D01*
X3615827Y-81430079D01*
X3698360Y-81426417D01*
X3749680Y-81426127D01*
X3848393Y-81427817D01*
G37*
G36*
X6165582Y-36229720D02*
G01*
X6187871Y-36288708D01*
X6223044Y-36383252D01*
X6270315Y-36511202D01*
X6328895Y-36670406D01*
X6397999Y-36858715D01*
X6476839Y-37073975D01*
X6564629Y-37314037D01*
X6660582Y-37576750D01*
X6763910Y-37859962D01*
X6873827Y-38161523D01*
X6989546Y-38479281D01*
X7110280Y-38811086D01*
X7235242Y-39154786D01*
X7298745Y-39329549D01*
X7425537Y-39678550D01*
X7548447Y-40016857D01*
X7666690Y-40342311D01*
X7779482Y-40652749D01*
X7886036Y-40946010D01*
X7985568Y-41219935D01*
X8077292Y-41472361D01*
X8160423Y-41701128D01*
X8234176Y-41904074D01*
X8297764Y-42079039D01*
X8350405Y-42223861D01*
X8391310Y-42336379D01*
X8419697Y-42414433D01*
X8434778Y-42455861D01*
X8437077Y-42462145D01*
X8431191Y-42467102D01*
X8408060Y-42471441D01*
X8365394Y-42475197D01*
X8300903Y-42478406D01*
X8212299Y-42481102D01*
X8097290Y-42483323D01*
X7953589Y-42485104D01*
X7778904Y-42486480D01*
X7570946Y-42487486D01*
X7327426Y-42488159D01*
X7046054Y-42488534D01*
X6733996Y-42488648D01*
X5021008Y-42488648D01*
X4772180Y-41791045D01*
X4736505Y-41690521D01*
X4911250Y-41690521D01*
X4915693Y-41711724D01*
X4932384Y-41765809D01*
X4959035Y-41845825D01*
X4993358Y-41944824D01*
X5015787Y-42007948D01*
X5127106Y-42318588D01*
X5291284Y-42318810D01*
X5368426Y-42317030D01*
X5425781Y-42312112D01*
X5453263Y-42305026D01*
X5454294Y-42303130D01*
X5446982Y-42278661D01*
X5427587Y-42221645D01*
X5398646Y-42139337D01*
X5362694Y-42038990D01*
X5341237Y-41979799D01*
X5229348Y-41672370D01*
X5073690Y-41678052D01*
X4997425Y-41681660D01*
X4939875Y-41685936D01*
X4912111Y-41690030D01*
X4911250Y-41690521D01*
X4736505Y-41690521D01*
X4719958Y-41643895D01*
X5381524Y-41643895D01*
X5384693Y-41666494D01*
X5400469Y-41722064D01*
X5426701Y-41803826D01*
X5461236Y-41905002D01*
X5491188Y-41989262D01*
X5611936Y-42323537D01*
X5962682Y-42310967D01*
X6095668Y-42306401D01*
X6257630Y-42301154D01*
X6435187Y-42295642D01*
X6614961Y-42290277D01*
X6783573Y-42285477D01*
X6795371Y-42285152D01*
X6967084Y-42279477D01*
X7102727Y-42272931D01*
X7200696Y-42265631D01*
X7259387Y-42257694D01*
X7277314Y-42249885D01*
X7270413Y-42223933D01*
X7251187Y-42164648D01*
X7221851Y-42078526D01*
X7184624Y-41972062D01*
X7141719Y-41851752D01*
X7137056Y-41838806D01*
X7084343Y-41695301D01*
X7042701Y-41588549D01*
X7010468Y-41514861D01*
X6985982Y-41470546D01*
X6967582Y-41451914D01*
X6962286Y-41450778D01*
X6924343Y-41453777D01*
X6852318Y-41461184D01*
X6751865Y-41472306D01*
X6628635Y-41486453D01*
X6488281Y-41502935D01*
X6336455Y-41521062D01*
X6178809Y-41540142D01*
X6020995Y-41559485D01*
X5868667Y-41578401D01*
X5727475Y-41596199D01*
X5603073Y-41612189D01*
X5501113Y-41625680D01*
X5427246Y-41635981D01*
X5387126Y-41642403D01*
X5381524Y-41643895D01*
X4719958Y-41643895D01*
X4714013Y-41627144D01*
X4660672Y-41475251D01*
X4613791Y-41340142D01*
X4575003Y-41226592D01*
X4545943Y-41139377D01*
X4528244Y-41083274D01*
X4523353Y-41063693D01*
X4529816Y-41029049D01*
X4546659Y-40968373D01*
X4553266Y-40947669D01*
X4634985Y-40947669D01*
X4645044Y-40975733D01*
X4666522Y-41035925D01*
X4696632Y-41120428D01*
X4732585Y-41221419D01*
X4747906Y-41264478D01*
X4788628Y-41377872D01*
X4818708Y-41457032D01*
X4841382Y-41507789D01*
X4859888Y-41535973D01*
X4877465Y-41547414D01*
X4897349Y-41547942D01*
X4904670Y-41546769D01*
X4958327Y-41538164D01*
X5030364Y-41527784D01*
X5058257Y-41524021D01*
X5116911Y-41513550D01*
X5153361Y-41501773D01*
X5159241Y-41496155D01*
X5152726Y-41472100D01*
X5134507Y-41415222D01*
X5106963Y-41332690D01*
X5072472Y-41231674D01*
X5049947Y-41166653D01*
X4940294Y-40851753D01*
X4864225Y-40864338D01*
X4762289Y-40884825D01*
X4686666Y-40907460D01*
X4642977Y-40930199D01*
X4634985Y-40947669D01*
X4553266Y-40947669D01*
X4567270Y-40903788D01*
X4596295Y-40817769D01*
X5084192Y-40817769D01*
X5087982Y-40839691D01*
X5104174Y-40894687D01*
X5130598Y-40976013D01*
X5165079Y-41076928D01*
X5194731Y-41160879D01*
X5239288Y-41284061D01*
X5272878Y-41372467D01*
X5298212Y-41431454D01*
X5318001Y-41466379D01*
X5334958Y-41482598D01*
X5351792Y-41485470D01*
X5358395Y-41484255D01*
X5402639Y-41476246D01*
X5472193Y-41466440D01*
X5534904Y-41458910D01*
X5603414Y-41448870D01*
X5643952Y-41438937D01*
X7221503Y-41438937D01*
X7225746Y-41467494D01*
X7245128Y-41534290D01*
X7279238Y-41638119D01*
X7327662Y-41777775D01*
X7389989Y-41952053D01*
X7465805Y-42159747D01*
X7498437Y-42248184D01*
X7516182Y-42258218D01*
X7562969Y-42263934D01*
X7642715Y-42265495D01*
X7759341Y-42263068D01*
X7810809Y-42261260D01*
X7918926Y-42257009D01*
X8010414Y-42253115D01*
X8077698Y-42249923D01*
X8113199Y-42247780D01*
X8116797Y-42247299D01*
X8111046Y-42227475D01*
X8093057Y-42174860D01*
X8065365Y-42096404D01*
X8030503Y-41999060D01*
X7991005Y-41889779D01*
X7949406Y-41775512D01*
X7908240Y-41663211D01*
X7870041Y-41559827D01*
X7837342Y-41472312D01*
X7812679Y-41407618D01*
X7798586Y-41372696D01*
X7796480Y-41368625D01*
X7770591Y-41365033D01*
X7712893Y-41367077D01*
X7632955Y-41373588D01*
X7540347Y-41383395D01*
X7444639Y-41395329D01*
X7355399Y-41408218D01*
X7282197Y-41420893D01*
X7234602Y-41432184D01*
X7221503Y-41438937D01*
X5643952Y-41438937D01*
X5651253Y-41437148D01*
X5667306Y-41427295D01*
X5660657Y-41404604D01*
X5642591Y-41350049D01*
X5615929Y-41271706D01*
X5583490Y-41177648D01*
X5548095Y-41075950D01*
X5512565Y-40974687D01*
X5479719Y-40881934D01*
X5452378Y-40805764D01*
X5433363Y-40754254D01*
X5425747Y-40735722D01*
X5405384Y-40737881D01*
X5355852Y-40747976D01*
X5288960Y-40763170D01*
X5216518Y-40780626D01*
X5150334Y-40797509D01*
X5102218Y-40810980D01*
X5084192Y-40817769D01*
X4596295Y-40817769D01*
X4611188Y-40773633D01*
X4724441Y-40748266D01*
X4791897Y-40731594D01*
X4843163Y-40716098D01*
X4860588Y-40708740D01*
X4863142Y-40696346D01*
X5587019Y-40696346D01*
X5591994Y-40716779D01*
X5608796Y-40769537D01*
X5634805Y-40847083D01*
X5667400Y-40941879D01*
X5703962Y-41046388D01*
X5741871Y-41153073D01*
X5778506Y-41254395D01*
X5811247Y-41342819D01*
X5817314Y-41358863D01*
X5832317Y-41385109D01*
X5857883Y-41400340D01*
X5901239Y-41405076D01*
X5969608Y-41399835D01*
X6070214Y-41385138D01*
X6104462Y-41379512D01*
X6255630Y-41354340D01*
X6125414Y-40990140D01*
X6083246Y-40873375D01*
X6045384Y-40770744D01*
X6014314Y-40688808D01*
X5992521Y-40634129D01*
X5982716Y-40613448D01*
X5959569Y-40613649D01*
X5906578Y-40621598D01*
X5835043Y-40634927D01*
X5756266Y-40651269D01*
X5681547Y-40668255D01*
X5622189Y-40683519D01*
X5589491Y-40694692D01*
X5587019Y-40696346D01*
X4863142Y-40696346D01*
X4866254Y-40681248D01*
X4852318Y-40617464D01*
X4819145Y-40518148D01*
X4788754Y-40433266D01*
X4771655Y-40375774D01*
X4766584Y-40333240D01*
X4772276Y-40293232D01*
X4787469Y-40243317D01*
X4790333Y-40234677D01*
X4825856Y-40127637D01*
X4918722Y-40389887D01*
X4953798Y-40487930D01*
X4984018Y-40570509D01*
X5006516Y-40629933D01*
X5018430Y-40658508D01*
X5019268Y-40659823D01*
X5041174Y-40658172D01*
X5091961Y-40648210D01*
X5159653Y-40632853D01*
X5232274Y-40615019D01*
X5297848Y-40597627D01*
X5344400Y-40583593D01*
X5359795Y-40576861D01*
X5357133Y-40564498D01*
X6183090Y-40564498D01*
X6186344Y-40589317D01*
X6202173Y-40647344D01*
X6228525Y-40731989D01*
X6263351Y-40836662D01*
X6303828Y-40952604D01*
X6355429Y-41094100D01*
X6396244Y-41198442D01*
X6427807Y-41269047D01*
X6451650Y-41309333D01*
X6469308Y-41322718D01*
X6469937Y-41322742D01*
X6504864Y-41320323D01*
X6570754Y-41313657D01*
X6656549Y-41303908D01*
X6710634Y-41297356D01*
X6801479Y-41283920D01*
X6870897Y-41269377D01*
X6910775Y-41255627D01*
X6917181Y-41248969D01*
X6910253Y-41222604D01*
X6891295Y-41164425D01*
X6863042Y-41082013D01*
X6828233Y-40982950D01*
X6789602Y-40874816D01*
X6749888Y-40765194D01*
X6711827Y-40661664D01*
X6678155Y-40571808D01*
X6651610Y-40503207D01*
X6634928Y-40463442D01*
X6631229Y-40456826D01*
X6606648Y-40456267D01*
X6551927Y-40464877D01*
X6477650Y-40480112D01*
X6394398Y-40499430D01*
X6312754Y-40520288D01*
X6243298Y-40540144D01*
X6196615Y-40556455D01*
X6183090Y-40564498D01*
X5357133Y-40564498D01*
X5355248Y-40555740D01*
X5338606Y-40502891D01*
X5312728Y-40426260D01*
X5280471Y-40333796D01*
X5244694Y-40233446D01*
X5208255Y-40133157D01*
X5174012Y-40040875D01*
X5144824Y-39964549D01*
X5123548Y-39912126D01*
X5113439Y-39891858D01*
X5088498Y-39892118D01*
X5037244Y-39905951D01*
X4989631Y-39923117D01*
X4922797Y-39946454D01*
X4890734Y-39949659D01*
X4887854Y-39939796D01*
X4895825Y-39916148D01*
X4916310Y-39855150D01*
X4926227Y-39825594D01*
X5270534Y-39825594D01*
X5275477Y-39847351D01*
X5294443Y-39905916D01*
X5326437Y-39998452D01*
X5370459Y-40122119D01*
X5425512Y-40274076D01*
X5489283Y-40447922D01*
X5513385Y-40503668D01*
X5536386Y-40527011D01*
X5567162Y-40526756D01*
X5568420Y-40526446D01*
X5611626Y-40515555D01*
X5680995Y-40498045D01*
X5761609Y-40477682D01*
X5762635Y-40477423D01*
X5834972Y-40456380D01*
X5887767Y-40435752D01*
X5910675Y-40419660D01*
X5910926Y-40418336D01*
X5907140Y-40400627D01*
X6836104Y-40400627D01*
X6841257Y-40420938D01*
X6858455Y-40473971D01*
X6885186Y-40552625D01*
X6918939Y-40649800D01*
X6957204Y-40758393D01*
X6997468Y-40871305D01*
X7037222Y-40981434D01*
X7073954Y-41081679D01*
X7105152Y-41164939D01*
X7119729Y-41202666D01*
X7145053Y-41230929D01*
X7190330Y-41230893D01*
X7234583Y-41223738D01*
X7308852Y-41213346D01*
X7401065Y-41201364D01*
X7461132Y-41193957D01*
X7553636Y-41181783D01*
X7630888Y-41169736D01*
X7682847Y-41159489D01*
X7698564Y-41154429D01*
X7699005Y-41130153D01*
X7684368Y-41069499D01*
X7655536Y-40975364D01*
X7613394Y-40850650D01*
X7562802Y-40709137D01*
X7516248Y-40582194D01*
X7474426Y-40469291D01*
X7439544Y-40376302D01*
X7413813Y-40309098D01*
X7399442Y-40273553D01*
X7397376Y-40269522D01*
X7375766Y-40271715D01*
X7322334Y-40282071D01*
X7246349Y-40298426D01*
X7157081Y-40318615D01*
X7063800Y-40340471D01*
X6975777Y-40361829D01*
X6902280Y-40380525D01*
X6852581Y-40394393D01*
X6836104Y-40400627D01*
X5907140Y-40400627D01*
X5903848Y-40385230D01*
X5884540Y-40322895D01*
X5855891Y-40238982D01*
X5820787Y-40141141D01*
X5782116Y-40037023D01*
X5742767Y-39934279D01*
X5705628Y-39840558D01*
X5673585Y-39763512D01*
X5649528Y-39710791D01*
X5636344Y-39690044D01*
X5635989Y-39689983D01*
X5609268Y-39696994D01*
X5555012Y-39715205D01*
X5484636Y-39740378D01*
X5409555Y-39768278D01*
X5341184Y-39794670D01*
X5290937Y-39815317D01*
X5270534Y-39825594D01*
X4926227Y-39825594D01*
X4948353Y-39759654D01*
X4990767Y-39633201D01*
X5836767Y-39633201D01*
X5843699Y-39660305D01*
X5862969Y-39720406D01*
X5892272Y-39806710D01*
X5929303Y-39912423D01*
X5969169Y-40023607D01*
X6019614Y-40160173D01*
X6059002Y-40260230D01*
X6089126Y-40327671D01*
X6111782Y-40366394D01*
X6128764Y-40380294D01*
X6133361Y-40380117D01*
X6167484Y-40370972D01*
X6231056Y-40354283D01*
X6312494Y-40333082D01*
X6345204Y-40324607D01*
X6428398Y-40301774D01*
X6495943Y-40280810D01*
X6537193Y-40265118D01*
X6543916Y-40261106D01*
X6541841Y-40238102D01*
X6527701Y-40182802D01*
X6504016Y-40102725D01*
X6473308Y-40005386D01*
X6438095Y-39898302D01*
X6400900Y-39788991D01*
X6364243Y-39684969D01*
X6330643Y-39593753D01*
X6302623Y-39522859D01*
X6282701Y-39479806D01*
X6280914Y-39476769D01*
X6261998Y-39462599D01*
X6225956Y-39466099D01*
X6172268Y-39484003D01*
X6098747Y-39511411D01*
X6010301Y-39544212D01*
X5958590Y-39563314D01*
X5894525Y-39590691D01*
X5850398Y-39616733D01*
X5836767Y-39633201D01*
X4990767Y-39633201D01*
X4990998Y-39632513D01*
X5043287Y-39476580D01*
X5076846Y-39376486D01*
X6454595Y-39376486D01*
X6525088Y-39570338D01*
X6565754Y-39682174D01*
X6612692Y-39811272D01*
X6657689Y-39935044D01*
X6671204Y-39972221D01*
X6703513Y-40060070D01*
X6731007Y-40132914D01*
X6750187Y-40181595D01*
X6756879Y-40196533D01*
X6779023Y-40196591D01*
X6832763Y-40187710D01*
X6908820Y-40172107D01*
X6997915Y-40151999D01*
X7090769Y-40129603D01*
X7178101Y-40107136D01*
X7250633Y-40086815D01*
X7299084Y-40070856D01*
X7313657Y-40063515D01*
X7309129Y-40042501D01*
X7292700Y-39988621D01*
X7266802Y-39908916D01*
X7233870Y-39810422D01*
X7196338Y-39700180D01*
X7156639Y-39585226D01*
X7117206Y-39472599D01*
X7080474Y-39369339D01*
X7048877Y-39282482D01*
X7024848Y-39219068D01*
X7010820Y-39186135D01*
X7009523Y-39183956D01*
X6988789Y-39187972D01*
X6935685Y-39204362D01*
X6857548Y-39230705D01*
X6761717Y-39264584D01*
X6729310Y-39276331D01*
X6454595Y-39376486D01*
X5076846Y-39376486D01*
X5104265Y-39294708D01*
X5172975Y-39089749D01*
X5248460Y-38864558D01*
X5329764Y-38621986D01*
X5415930Y-38364887D01*
X5506003Y-38096113D01*
X5520445Y-38053015D01*
X5610890Y-37783694D01*
X5697677Y-37526392D01*
X5779850Y-37283880D01*
X5856453Y-37058928D01*
X5926529Y-36854308D01*
X5989122Y-36672789D01*
X6043277Y-36517143D01*
X6088037Y-36390140D01*
X6122446Y-36294551D01*
X6145547Y-36233147D01*
X6156386Y-36208699D01*
X6156964Y-36208441D01*
X6165582Y-36229720D01*
G37*
%TD*%
D11*
%TO.C,X1*%
X21520000Y-16750000D03*
D12*
X21520000Y-19290000D03*
D11*
X24060000Y-16750000D03*
X24060000Y-19290000D03*
D13*
X26600000Y-16750000D03*
X26600000Y-19290000D03*
%TD*%
D14*
%TO.C,J3*%
X52890000Y-133395000D03*
X47110000Y-133395000D03*
D15*
X54320000Y-137075000D03*
D16*
X54320000Y-132895000D03*
D15*
X45680000Y-137075000D03*
D16*
X45680000Y-132895000D03*
%TD*%
D17*
%TO.C,SW1*%
X60147881Y-79152843D03*
X59024061Y-81934396D03*
%TD*%
D18*
%TO.C,BT1*%
X80000000Y-67000000D03*
X80000000Y-120000000D03*
%TD*%
%TO.C,BT2*%
X20000000Y-67000000D03*
X20000000Y-120000000D03*
%TD*%
M02*
