%TF.GenerationSoftware,KiCad,Pcbnew,9.0.1*%
%TF.CreationDate,2025-04-28T20:18:20+02:00*%
%TF.ProjectId,circle-badge,63697263-6c65-42d6-9261-6467652e6b69,0.1*%
%TF.SameCoordinates,PX2faf080PY1c9c380*%
%TF.FileFunction,Copper,L1,Top*%
%TF.FilePolarity,Positive*%
%FSLAX46Y46*%
G04 Gerber Fmt 4.6, Leading zero omitted, Abs format (unit mm)*
G04 Created by KiCad (PCBNEW 9.0.1) date 2025-04-28 20:18:20*
%MOMM*%
%LPD*%
G01*
G04 APERTURE LIST*
%TA.AperFunction,ComponentPad*%
%ADD10O,1.727200X1.727200*%
%TD*%
%TA.AperFunction,ComponentPad*%
%ADD11R,1.727200X1.727200*%
%TD*%
%TA.AperFunction,ComponentPad*%
%ADD12C,1.727200*%
%TD*%
%TA.AperFunction,HeatsinkPad*%
%ADD13O,1.000000X1.600000*%
%TD*%
%TA.AperFunction,HeatsinkPad*%
%ADD14O,1.000000X2.100000*%
%TD*%
%TA.AperFunction,ComponentPad*%
%ADD15C,2.000000*%
%TD*%
%TA.AperFunction,ViaPad*%
%ADD16C,0.600000*%
%TD*%
%TA.AperFunction,ViaPad*%
%ADD17C,0.500000*%
%TD*%
%TA.AperFunction,Conductor*%
%ADD18C,0.400000*%
%TD*%
%TA.AperFunction,Conductor*%
%ADD19C,0.150000*%
%TD*%
%TA.AperFunction,Conductor*%
%ADD20C,0.200000*%
%TD*%
%TA.AperFunction,Conductor*%
%ADD21C,0.300000*%
%TD*%
G04 APERTURE END LIST*
D10*
%TO.P,X1,1,VCC*%
%TO.N,VCC*%
X21520000Y-16750000D03*
D11*
%TO.P,X1,2,GND*%
%TO.N,GND*%
X21520000Y-19290000D03*
D10*
%TO.P,X1,3,SDA*%
%TO.N,/SDA*%
X24060000Y-16750000D03*
%TO.P,X1,4,SCL*%
%TO.N,/SCL*%
X24060000Y-19290000D03*
D12*
%TO.P,X1,5,GPIO1*%
%TO.N,/SAO_GPIO1*%
X26600000Y-16750000D03*
%TO.P,X1,6,GPIO2*%
%TO.N,/SAO_GPIO2*%
X26600000Y-19290000D03*
%TD*%
D13*
%TO.P,J3,S1,SHIELD*%
%TO.N,GND*%
X54320000Y-137075000D03*
D14*
X54320000Y-132895000D03*
D13*
X45680000Y-137075000D03*
D14*
X45680000Y-132895000D03*
%TD*%
D15*
%TO.P,BT1,1,+*%
%TO.N,/PSU 2xAA USB 3v3/BAT+*%
X80000000Y-67000000D03*
%TO.P,BT1,2,-*%
%TO.N,Net-(BT1--)*%
X80000000Y-120000000D03*
%TD*%
%TO.P,BT2,1,+*%
%TO.N,Net-(BT1--)*%
X20000000Y-67000000D03*
%TO.P,BT2,2,-*%
%TO.N,GND*%
X20000000Y-120000000D03*
%TD*%
D16*
%TO.N,GND*%
X10620000Y-37700000D03*
%TO.N,VCC*%
X37500000Y-84250000D03*
X34250000Y-94250000D03*
X43650000Y-74650000D03*
%TO.N,GND*%
X87500000Y-57000000D03*
X53600000Y-56600000D03*
X91500000Y-61000000D03*
X10660000Y-82840000D03*
X65050000Y-55600000D03*
X34950000Y-74600000D03*
X36000000Y-5500000D03*
X40000000Y-9500000D03*
X58000000Y-27500000D03*
X10670000Y-52750000D03*
X46000000Y-15500000D03*
X84500000Y-54000000D03*
X65900000Y-67250000D03*
X53400000Y-59000000D03*
X56000000Y-25500000D03*
X10700000Y-73500000D03*
X68000000Y-37500000D03*
X80500000Y-50000000D03*
X57000000Y-66000000D03*
X70000000Y-39500000D03*
X66000000Y-35500000D03*
X88500000Y-58000000D03*
X33000000Y-2500000D03*
X44400000Y-101900000D03*
X66350000Y-63500000D03*
X37000000Y-6500000D03*
X73000000Y-42500000D03*
X44200000Y-82700000D03*
X41000000Y-10500000D03*
X75250000Y-50850000D03*
X72000000Y-41500000D03*
X58750000Y-61150000D03*
X32650000Y-80250000D03*
X57000000Y-70000000D03*
X52000000Y-21500000D03*
X45700000Y-86050000D03*
X53400000Y-62000000D03*
X48320000Y-49270000D03*
X28600000Y-19800000D03*
X37550000Y-93450000D03*
X37950000Y-90000000D03*
X85500000Y-55000000D03*
X81500000Y-51000000D03*
X43950000Y-53900000D03*
X90500000Y-60000000D03*
X55000000Y-24500000D03*
X10660000Y-67780000D03*
X49000000Y-18500000D03*
X71000000Y-40500000D03*
X96500000Y-66000000D03*
X47800000Y-64800000D03*
X93500000Y-63000000D03*
X65000000Y-34500000D03*
X83500000Y-53000000D03*
X44050000Y-106100000D03*
X46400000Y-105150000D03*
X39950000Y-85800000D03*
X10800000Y-58400000D03*
X79500000Y-49000000D03*
X10750000Y-88500000D03*
X42800000Y-19800000D03*
X95500000Y-65000000D03*
X94500000Y-64000000D03*
X53400000Y-47800000D03*
X61000000Y-30500000D03*
X89500000Y-59000000D03*
X86500000Y-56000000D03*
X54000000Y-23500000D03*
X37700000Y-70450000D03*
X63000000Y-32500000D03*
X40150000Y-83100000D03*
X97500000Y-67000000D03*
X62000000Y-31500000D03*
X36100000Y-88000000D03*
X45000000Y-14500000D03*
X10800000Y-43400000D03*
X92500000Y-62000000D03*
X36350000Y-97050000D03*
X76500000Y-46000000D03*
X64000000Y-33500000D03*
X66150000Y-52950000D03*
X42000000Y-11500000D03*
X53000000Y-22500000D03*
X44000000Y-88200000D03*
X57600000Y-63800000D03*
X48000000Y-17500000D03*
X48700000Y-72300000D03*
X57000000Y-26500000D03*
X46400000Y-102200000D03*
X98500000Y-68000000D03*
X51800000Y-88650000D03*
X67000000Y-36500000D03*
X44000000Y-13500000D03*
X82500000Y-52000000D03*
X50200000Y-63200000D03*
X39000000Y-8500000D03*
X44000000Y-98300000D03*
X34000000Y-3500000D03*
X51000000Y-20500000D03*
X78500000Y-48000000D03*
X10700000Y-102500000D03*
X59000000Y-28500000D03*
X69000000Y-38500000D03*
X43000000Y-12500000D03*
X40150000Y-64350000D03*
X37200000Y-98350000D03*
X53400000Y-70800000D03*
X41850000Y-60000000D03*
X53200000Y-51400000D03*
X35000000Y-4500000D03*
X38200000Y-91800000D03*
X60000000Y-29500000D03*
X74000000Y-43500000D03*
X73900000Y-52200000D03*
X38000000Y-7500000D03*
X75000000Y-44500000D03*
X53400000Y-64200000D03*
X77500000Y-47000000D03*
X10670000Y-97820000D03*
X50000000Y-19500000D03*
X47000000Y-16500000D03*
D17*
%TO.N,/5 WS2812/DIN*%
X32000000Y-101900000D03*
X36800000Y-95550000D03*
%TO.N,/esp31-c3-mini/USB_D-*%
X44709731Y-84565095D03*
X49675000Y-130450000D03*
X44834835Y-124265165D03*
X50800000Y-130450000D03*
%TO.N,/esp31-c3-mini/USB_D+*%
X45365165Y-123734835D03*
X45240061Y-85095425D03*
%TO.N,/SCL*%
X39150000Y-84150000D03*
X51750000Y-45700000D03*
%TO.N,/SDA*%
X39750000Y-84750000D03*
X52300000Y-46850000D03*
%TO.N,/PSU 2xAA USB 3v3/BAT+*%
X56800000Y-79400000D03*
D16*
X71250000Y-58250000D03*
%TO.N,Net-(BT1--)*%
X20000000Y-107000000D03*
%TO.N,/PSU 2xAA USB 3v3/USB_BUS_POWER*%
X36300000Y-121700000D03*
X31200000Y-87050000D03*
D17*
%TO.N,Net-(SW1-A)*%
X55900000Y-77050000D03*
X57050000Y-67450000D03*
%TO.N,/LoRa SX1262/BUSY*%
X46400000Y-83975000D03*
X41800000Y-100200000D03*
%TO.N,/LoRa SX1262/RF_SW1*%
X39000000Y-90400000D03*
X43500000Y-83400000D03*
%TO.N,/LoRa SX1262/DIO1*%
X68600000Y-53700000D03*
X57705025Y-69055025D03*
%TO.N,/LoRa SX1262/MISO*%
X40850000Y-101550000D03*
X46759138Y-82561423D03*
%TO.N,/SAO_GPIO1*%
X52000000Y-131200000D03*
X47100000Y-86500000D03*
%TO.N,/SAO_GPIO2*%
X47700000Y-85900000D03*
X48500000Y-129600000D03*
%TD*%
D18*
%TO.N,VCC*%
X34250000Y-86300000D02*
X36300000Y-84250000D01*
X34250000Y-94250000D02*
X34250000Y-86300000D01*
X36300000Y-84250000D02*
X37500000Y-84250000D01*
X37500000Y-84250000D02*
X43650000Y-78100000D01*
X43650000Y-78100000D02*
X43650000Y-74650000D01*
D19*
%TO.N,/5 WS2812/DIN*%
X32000000Y-101900000D02*
X33150000Y-100750000D01*
X33150000Y-100750000D02*
X33150000Y-99200000D01*
X33150000Y-99200000D02*
X36800000Y-95550000D01*
D20*
%TO.N,/esp31-c3-mini/USB_D-*%
X44834835Y-124053034D02*
X44834835Y-124265165D01*
X42475000Y-121693199D02*
X44834835Y-124053034D01*
X42475000Y-87011957D02*
X42475000Y-121693199D01*
X44709731Y-84565095D02*
X44709731Y-84777226D01*
X44709731Y-84777226D02*
X42475000Y-87011957D01*
X50800000Y-130450000D02*
X49675000Y-130450000D01*
%TO.N,/esp31-c3-mini/USB_D+*%
X45240061Y-85095425D02*
X45027930Y-85095425D01*
X42925000Y-87198355D02*
X42925000Y-121506801D01*
X45027930Y-85095425D02*
X42925000Y-87198355D01*
X45153034Y-123734835D02*
X45365165Y-123734835D01*
X42925000Y-121506801D02*
X45153034Y-123734835D01*
D19*
%TO.N,/SCL*%
X24060000Y-20110000D02*
X24060000Y-19290000D01*
X40350000Y-84150000D02*
X51750000Y-72750000D01*
X44600000Y-21800000D02*
X25750000Y-21800000D01*
X25750000Y-21800000D02*
X24060000Y-20110000D01*
X39150000Y-84150000D02*
X40350000Y-84150000D01*
X51750000Y-72750000D02*
X51750000Y-45700000D01*
X51750000Y-28950000D02*
X44600000Y-21800000D01*
X51750000Y-45700000D02*
X51750000Y-28950000D01*
%TO.N,/SDA*%
X52300000Y-72694974D02*
X52300000Y-46850000D01*
X44750000Y-21450000D02*
X52300000Y-29000000D01*
X25350000Y-20905026D02*
X25894974Y-21450000D01*
X40494974Y-84500000D02*
X52300000Y-72694974D01*
X52300000Y-29000000D02*
X52300000Y-46850000D01*
X24060000Y-16750000D02*
X25350000Y-18040000D01*
X25350000Y-18040000D02*
X25350000Y-20905026D01*
X25894974Y-21450000D02*
X44750000Y-21450000D01*
X39750000Y-84750000D02*
X40000000Y-84500000D01*
X40000000Y-84500000D02*
X40494974Y-84500000D01*
D18*
%TO.N,/PSU 2xAA USB 3v3/BAT+*%
X56800000Y-71700000D02*
X56800000Y-79400000D01*
X71250000Y-58250000D02*
X70250000Y-58250000D01*
X70250000Y-58250000D02*
X56800000Y-71700000D01*
%TO.N,Net-(BT1--)*%
X20000000Y-107000000D02*
X20000000Y-67000000D01*
D21*
%TO.N,/PSU 2xAA USB 3v3/USB_BUS_POWER*%
X31200000Y-116600000D02*
X31200000Y-87050000D01*
X36300000Y-121700000D02*
X31200000Y-116600000D01*
D18*
%TO.N,Net-(SW1-A)*%
X55900000Y-69300000D02*
X55900000Y-77050000D01*
X57050000Y-68150000D02*
X55900000Y-69300000D01*
X57050000Y-67450000D02*
X57050000Y-68150000D01*
D19*
%TO.N,/LoRa SX1262/BUSY*%
X40800000Y-99200000D02*
X40800000Y-87700000D01*
X44600000Y-83900000D02*
X46325000Y-83900000D01*
X40800000Y-87700000D02*
X44600000Y-83900000D01*
X46325000Y-83900000D02*
X46400000Y-83975000D01*
X41800000Y-100200000D02*
X40800000Y-99200000D01*
%TO.N,/LoRa SX1262/RF_SW1*%
X39000000Y-90400000D02*
X39000000Y-87900000D01*
X39000000Y-87900000D02*
X43500000Y-83400000D01*
%TO.N,/LoRa SX1262/DIO1*%
X68600000Y-53700000D02*
X65200000Y-61950000D01*
X58020395Y-69055025D02*
X65162710Y-61912710D01*
X57705025Y-69055025D02*
X58020395Y-69055025D01*
%TO.N,/LoRa SX1262/MISO*%
X40450000Y-87555025D02*
X45443602Y-82561423D01*
X40450000Y-101150000D02*
X40450000Y-87555025D01*
X40850000Y-101550000D02*
X40450000Y-101150000D01*
X45443602Y-82561423D02*
X46759138Y-82561423D01*
%TO.N,/SAO_GPIO1*%
X52000000Y-125800000D02*
X45450000Y-119250000D01*
X52000000Y-131200000D02*
X52000000Y-125800000D01*
X45450000Y-88150000D02*
X47100000Y-86500000D01*
X48400000Y-86500000D02*
X54950000Y-79950000D01*
X43394975Y-17850000D02*
X27700000Y-17850000D01*
X27700000Y-17850000D02*
X26600000Y-16750000D01*
X54950000Y-29405025D02*
X43394975Y-17850000D01*
X47100000Y-86500000D02*
X48400000Y-86500000D01*
X45450000Y-119250000D02*
X45450000Y-88150000D01*
X54950000Y-79950000D02*
X54950000Y-29405025D01*
%TO.N,/SAO_GPIO2*%
X54600000Y-29550000D02*
X43250000Y-18200000D01*
X48500000Y-129600000D02*
X50900000Y-127200000D01*
X48505026Y-85900000D02*
X54600000Y-79805026D01*
X50900000Y-127200000D02*
X50900000Y-125194974D01*
X43250000Y-18200000D02*
X27690000Y-18200000D01*
X50900000Y-125194974D02*
X45100000Y-119394974D01*
X46900000Y-85900000D02*
X47700000Y-85900000D01*
X27690000Y-18200000D02*
X26600000Y-19290000D01*
X45100000Y-119394974D02*
X45100000Y-87700000D01*
X47700000Y-85900000D02*
X48505026Y-85900000D01*
X45100000Y-87700000D02*
X46900000Y-85900000D01*
X54600000Y-79805026D02*
X54600000Y-29550000D01*
%TD*%
%TA.AperFunction,Conductor*%
%TO.N,GND*%
G36*
X32702450Y-1204009D02*
G01*
X32712226Y-1212226D01*
X99477826Y-67977826D01*
X99499500Y-68030152D01*
X99499500Y-99999410D01*
X99499491Y-100000572D01*
X99480027Y-101239545D01*
X99479954Y-101241869D01*
X99421611Y-102479034D01*
X99421465Y-102481354D01*
X99324290Y-103716080D01*
X99324071Y-103718394D01*
X99188164Y-104949430D01*
X99187873Y-104951737D01*
X99013358Y-106177942D01*
X99012994Y-106180238D01*
X98800052Y-107400338D01*
X98799616Y-107402621D01*
X98548460Y-108615405D01*
X98547953Y-108617674D01*
X98258823Y-109821989D01*
X98258245Y-109824241D01*
X97931430Y-111018874D01*
X97930782Y-111021106D01*
X97566593Y-112204923D01*
X97565874Y-112207134D01*
X97164700Y-113378867D01*
X97163913Y-113381054D01*
X96726116Y-114539648D01*
X96725260Y-114541810D01*
X96251294Y-115686068D01*
X96250371Y-115688201D01*
X95740689Y-116817020D01*
X95739699Y-116819123D01*
X95194832Y-117931335D01*
X95193777Y-117933407D01*
X94614217Y-119028005D01*
X94613097Y-119030042D01*
X93999447Y-120105885D01*
X93998263Y-120107886D01*
X93351149Y-121163881D01*
X93349904Y-121165844D01*
X92669895Y-122201058D01*
X92668588Y-122202980D01*
X91956444Y-123216259D01*
X91955078Y-123218140D01*
X91211424Y-124208593D01*
X91209999Y-124210430D01*
X90435609Y-125177028D01*
X90434127Y-125178819D01*
X89629775Y-126120594D01*
X89628238Y-126122338D01*
X88794674Y-127038412D01*
X88793082Y-127040107D01*
X87931172Y-127929529D01*
X87929529Y-127931172D01*
X87040107Y-128793082D01*
X87038412Y-128794674D01*
X86122338Y-129628238D01*
X86120594Y-129629775D01*
X85178819Y-130434127D01*
X85177028Y-130435609D01*
X84210430Y-131209999D01*
X84208593Y-131211424D01*
X83218140Y-131955078D01*
X83216259Y-131956444D01*
X82202980Y-132668588D01*
X82201058Y-132669895D01*
X81165844Y-133349904D01*
X81163881Y-133351149D01*
X80107886Y-133998263D01*
X80105885Y-133999447D01*
X79030042Y-134613097D01*
X79028005Y-134614217D01*
X77933407Y-135193777D01*
X77931335Y-135194832D01*
X76819123Y-135739699D01*
X76817020Y-135740689D01*
X75688201Y-136250371D01*
X75686068Y-136251294D01*
X74541810Y-136725260D01*
X74539648Y-136726116D01*
X73381054Y-137163913D01*
X73378867Y-137164700D01*
X72207134Y-137565874D01*
X72204923Y-137566593D01*
X71021106Y-137930782D01*
X71018874Y-137931430D01*
X69824241Y-138258245D01*
X69821989Y-138258823D01*
X68617674Y-138547953D01*
X68615405Y-138548460D01*
X67402621Y-138799616D01*
X67400338Y-138800052D01*
X66180238Y-139012994D01*
X66177942Y-139013358D01*
X64951737Y-139187873D01*
X64949430Y-139188164D01*
X63718394Y-139324071D01*
X63716080Y-139324290D01*
X62481354Y-139421465D01*
X62479034Y-139421611D01*
X61241869Y-139479954D01*
X61239545Y-139480027D01*
X60000573Y-139499491D01*
X59999411Y-139499500D01*
X40000589Y-139499500D01*
X39999427Y-139499491D01*
X38760454Y-139480027D01*
X38758130Y-139479954D01*
X37520965Y-139421611D01*
X37518645Y-139421465D01*
X36283919Y-139324290D01*
X36281605Y-139324071D01*
X35050569Y-139188164D01*
X35048262Y-139187873D01*
X33822057Y-139013358D01*
X33819761Y-139012994D01*
X32599661Y-138800052D01*
X32597378Y-138799616D01*
X31384594Y-138548460D01*
X31382325Y-138547953D01*
X30178010Y-138258823D01*
X30175758Y-138258245D01*
X28981125Y-137931430D01*
X28978893Y-137930782D01*
X27795076Y-137566593D01*
X27792865Y-137565874D01*
X26766171Y-137214358D01*
X26621132Y-137164700D01*
X26618945Y-137163913D01*
X25593871Y-136776569D01*
X25460351Y-136726116D01*
X25458189Y-136725260D01*
X25423716Y-136710981D01*
X45030000Y-136710981D01*
X45030000Y-136975000D01*
X45380000Y-136975000D01*
X45380000Y-137175000D01*
X45030000Y-137175000D01*
X45030000Y-137439018D01*
X45054977Y-137564591D01*
X45054979Y-137564598D01*
X45103978Y-137682890D01*
X45175111Y-137789350D01*
X45265649Y-137879888D01*
X45372109Y-137951021D01*
X45490401Y-138000020D01*
X45490408Y-138000022D01*
X45579999Y-138017842D01*
X45580000Y-138017842D01*
X45580000Y-137658788D01*
X45640504Y-137675000D01*
X45719496Y-137675000D01*
X45780000Y-137658788D01*
X45780000Y-138017842D01*
X45869591Y-138000022D01*
X45869598Y-138000020D01*
X45987890Y-137951021D01*
X46094350Y-137879888D01*
X46094352Y-137879887D01*
X46184887Y-137789352D01*
X46184888Y-137789350D01*
X46256021Y-137682890D01*
X46305020Y-137564598D01*
X46305022Y-137564591D01*
X46330000Y-137439018D01*
X46330000Y-137175000D01*
X45980000Y-137175000D01*
X45980000Y-136975000D01*
X46330000Y-136975000D01*
X46330000Y-136710981D01*
X53670000Y-136710981D01*
X53670000Y-136975000D01*
X54020000Y-136975000D01*
X54020000Y-137175000D01*
X53670000Y-137175000D01*
X53670000Y-137439018D01*
X53694977Y-137564591D01*
X53694979Y-137564598D01*
X53743978Y-137682890D01*
X53815111Y-137789350D01*
X53905649Y-137879888D01*
X54012109Y-137951021D01*
X54130401Y-138000020D01*
X54130408Y-138000022D01*
X54219999Y-138017842D01*
X54220000Y-138017842D01*
X54220000Y-137658788D01*
X54280504Y-137675000D01*
X54359496Y-137675000D01*
X54420000Y-137658788D01*
X54420000Y-138017842D01*
X54509591Y-138000022D01*
X54509598Y-138000020D01*
X54627890Y-137951021D01*
X54734350Y-137879888D01*
X54734352Y-137879887D01*
X54824887Y-137789352D01*
X54824888Y-137789350D01*
X54896021Y-137682890D01*
X54945020Y-137564598D01*
X54945022Y-137564591D01*
X54970000Y-137439018D01*
X54970000Y-137175000D01*
X54620000Y-137175000D01*
X54620000Y-136975000D01*
X54970000Y-136975000D01*
X54970000Y-136710981D01*
X54945022Y-136585408D01*
X54945020Y-136585401D01*
X54896021Y-136467109D01*
X54824888Y-136360649D01*
X54734350Y-136270111D01*
X54627890Y-136198978D01*
X54509598Y-136149979D01*
X54509591Y-136149977D01*
X54420000Y-136132156D01*
X54420000Y-136491211D01*
X54359496Y-136475000D01*
X54280504Y-136475000D01*
X54220000Y-136491211D01*
X54220000Y-136132157D01*
X54219999Y-136132156D01*
X54130408Y-136149977D01*
X54130401Y-136149979D01*
X54012109Y-136198978D01*
X53905649Y-136270111D01*
X53905648Y-136270113D01*
X53815113Y-136360648D01*
X53815111Y-136360649D01*
X53743978Y-136467109D01*
X53694979Y-136585401D01*
X53694977Y-136585408D01*
X53670000Y-136710981D01*
X46330000Y-136710981D01*
X46305022Y-136585408D01*
X46305020Y-136585401D01*
X46256021Y-136467109D01*
X46184888Y-136360649D01*
X46094350Y-136270111D01*
X45987890Y-136198978D01*
X45869598Y-136149979D01*
X45869591Y-136149977D01*
X45780000Y-136132156D01*
X45780000Y-136491211D01*
X45719496Y-136475000D01*
X45640504Y-136475000D01*
X45580000Y-136491211D01*
X45580000Y-136132157D01*
X45579999Y-136132156D01*
X45490408Y-136149977D01*
X45490401Y-136149979D01*
X45372109Y-136198978D01*
X45265649Y-136270111D01*
X45265648Y-136270113D01*
X45175113Y-136360648D01*
X45175111Y-136360649D01*
X45103978Y-136467109D01*
X45054979Y-136585401D01*
X45054977Y-136585408D01*
X45030000Y-136710981D01*
X25423716Y-136710981D01*
X24359364Y-136270113D01*
X24313923Y-136251290D01*
X24311798Y-136250371D01*
X24197975Y-136198978D01*
X23182979Y-135740689D01*
X23180876Y-135739699D01*
X22068664Y-135194832D01*
X22066592Y-135193777D01*
X20971994Y-134614217D01*
X20969957Y-134613097D01*
X19894114Y-133999447D01*
X19892113Y-133998263D01*
X19053721Y-133484496D01*
X18836104Y-133351140D01*
X18834155Y-133349904D01*
X18807506Y-133332399D01*
X17798941Y-132669895D01*
X17797019Y-132668588D01*
X17326482Y-132337889D01*
X17245510Y-132280981D01*
X45030000Y-132280981D01*
X45030000Y-132795000D01*
X45380000Y-132795000D01*
X45380000Y-132995000D01*
X45030000Y-132995000D01*
X45030000Y-133509018D01*
X45054977Y-133634591D01*
X45054979Y-133634598D01*
X45103978Y-133752890D01*
X45175111Y-133859350D01*
X45265649Y-133949888D01*
X45372109Y-134021021D01*
X45490401Y-134070020D01*
X45490408Y-134070022D01*
X45579999Y-134087842D01*
X45580000Y-134087842D01*
X45580000Y-133728788D01*
X45640504Y-133745000D01*
X45719496Y-133745000D01*
X45780000Y-133728788D01*
X45780000Y-134087842D01*
X45869591Y-134070022D01*
X45869598Y-134070020D01*
X45987890Y-134021021D01*
X46094350Y-133949888D01*
X46094352Y-133949887D01*
X46184887Y-133859352D01*
X46184888Y-133859350D01*
X46256021Y-133752890D01*
X46305020Y-133634598D01*
X46305022Y-133634591D01*
X46330000Y-133509018D01*
X46330000Y-133332396D01*
X46634500Y-133332396D01*
X46634500Y-133457603D01*
X46666904Y-133578535D01*
X46728406Y-133685060D01*
X46729505Y-133686964D01*
X46818036Y-133775495D01*
X46926464Y-133838095D01*
X46926463Y-133838095D01*
X46996286Y-133856804D01*
X47047396Y-133870499D01*
X47047397Y-133870500D01*
X47047399Y-133870500D01*
X47172603Y-133870500D01*
X47172603Y-133870499D01*
X47293536Y-133838095D01*
X47401964Y-133775495D01*
X47490495Y-133686964D01*
X47553095Y-133578536D01*
X47585499Y-133457603D01*
X47585500Y-133457603D01*
X47585500Y-133332397D01*
X47585499Y-133332396D01*
X52414500Y-133332396D01*
X52414500Y-133457603D01*
X52446904Y-133578535D01*
X52508406Y-133685060D01*
X52509505Y-133686964D01*
X52598036Y-133775495D01*
X52706464Y-133838095D01*
X52706463Y-133838095D01*
X52776286Y-133856804D01*
X52827396Y-133870499D01*
X52827397Y-133870500D01*
X52827399Y-133870500D01*
X52952603Y-133870500D01*
X52952603Y-133870499D01*
X53073536Y-133838095D01*
X53181964Y-133775495D01*
X53270495Y-133686964D01*
X53333095Y-133578536D01*
X53365499Y-133457603D01*
X53365500Y-133457603D01*
X53365500Y-133332397D01*
X53365499Y-133332396D01*
X53333095Y-133211464D01*
X53270495Y-133103036D01*
X53181963Y-133014504D01*
X53073534Y-132951904D01*
X53073536Y-132951904D01*
X52952603Y-132919500D01*
X52952601Y-132919500D01*
X52827399Y-132919500D01*
X52827397Y-132919500D01*
X52706464Y-132951904D01*
X52598036Y-133014504D01*
X52509504Y-133103036D01*
X52446904Y-133211464D01*
X52414500Y-133332396D01*
X47585499Y-133332396D01*
X47553095Y-133211464D01*
X47490495Y-133103036D01*
X47401963Y-133014504D01*
X47293534Y-132951904D01*
X47293536Y-132951904D01*
X47172603Y-132919500D01*
X47172601Y-132919500D01*
X47047399Y-132919500D01*
X47047397Y-132919500D01*
X46926464Y-132951904D01*
X46818036Y-133014504D01*
X46729504Y-133103036D01*
X46666904Y-133211464D01*
X46634500Y-133332396D01*
X46330000Y-133332396D01*
X46330000Y-132995000D01*
X45980000Y-132995000D01*
X45980000Y-132795000D01*
X46330000Y-132795000D01*
X46330000Y-132280981D01*
X53670000Y-132280981D01*
X53670000Y-132795000D01*
X54020000Y-132795000D01*
X54020000Y-132995000D01*
X53670000Y-132995000D01*
X53670000Y-133509018D01*
X53694977Y-133634591D01*
X53694979Y-133634598D01*
X53743978Y-133752890D01*
X53815111Y-133859350D01*
X53905649Y-133949888D01*
X54012109Y-134021021D01*
X54130401Y-134070020D01*
X54130408Y-134070022D01*
X54219999Y-134087842D01*
X54220000Y-134087842D01*
X54220000Y-133728788D01*
X54280504Y-133745000D01*
X54359496Y-133745000D01*
X54420000Y-133728788D01*
X54420000Y-134087842D01*
X54509591Y-134070022D01*
X54509598Y-134070020D01*
X54627890Y-134021021D01*
X54734350Y-133949888D01*
X54734352Y-133949887D01*
X54824887Y-133859352D01*
X54824888Y-133859350D01*
X54896021Y-133752890D01*
X54945020Y-133634598D01*
X54945022Y-133634591D01*
X54970000Y-133509018D01*
X54970000Y-132995000D01*
X54620000Y-132995000D01*
X54620000Y-132795000D01*
X54970000Y-132795000D01*
X54970000Y-132280981D01*
X54945022Y-132155408D01*
X54945020Y-132155401D01*
X54896021Y-132037109D01*
X54824888Y-131930649D01*
X54734350Y-131840111D01*
X54627890Y-131768978D01*
X54509598Y-131719979D01*
X54509591Y-131719977D01*
X54420000Y-131702156D01*
X54420000Y-132061211D01*
X54359496Y-132045000D01*
X54280504Y-132045000D01*
X54220000Y-132061211D01*
X54220000Y-131702157D01*
X54219999Y-131702156D01*
X54130408Y-131719977D01*
X54130401Y-131719979D01*
X54012109Y-131768978D01*
X53905649Y-131840111D01*
X53905648Y-131840113D01*
X53815113Y-131930648D01*
X53815111Y-131930649D01*
X53743978Y-132037109D01*
X53694979Y-132155401D01*
X53694977Y-132155408D01*
X53670000Y-132280981D01*
X46330000Y-132280981D01*
X46305022Y-132155408D01*
X46305020Y-132155401D01*
X46256021Y-132037109D01*
X46184888Y-131930649D01*
X46094350Y-131840111D01*
X45987890Y-131768978D01*
X45869598Y-131719979D01*
X45869591Y-131719977D01*
X45780000Y-131702156D01*
X45780000Y-132061211D01*
X45719496Y-132045000D01*
X45640504Y-132045000D01*
X45580000Y-132061211D01*
X45580000Y-131702157D01*
X45579999Y-131702156D01*
X45490408Y-131719977D01*
X45490401Y-131719979D01*
X45372109Y-131768978D01*
X45265649Y-131840111D01*
X45265648Y-131840113D01*
X45175113Y-131930648D01*
X45175111Y-131930649D01*
X45103978Y-132037109D01*
X45054979Y-132155401D01*
X45054977Y-132155408D01*
X45030000Y-132280981D01*
X17245510Y-132280981D01*
X16783740Y-131956444D01*
X16781859Y-131955078D01*
X15791406Y-131211424D01*
X15789569Y-131209999D01*
X14841152Y-130450175D01*
X14841152Y-130450174D01*
X14822971Y-130435608D01*
X14821180Y-130434127D01*
X14778026Y-130397270D01*
X49274500Y-130397270D01*
X49274500Y-130502729D01*
X49301791Y-130604582D01*
X49301792Y-130604585D01*
X49301793Y-130604587D01*
X49354520Y-130695913D01*
X49429087Y-130770480D01*
X49520413Y-130823207D01*
X49622270Y-130850499D01*
X49622271Y-130850500D01*
X49622273Y-130850500D01*
X49727729Y-130850500D01*
X49727729Y-130850499D01*
X49829587Y-130823207D01*
X49920913Y-130770480D01*
X49969219Y-130722174D01*
X50021545Y-130700500D01*
X50453455Y-130700500D01*
X50505781Y-130722174D01*
X50554087Y-130770480D01*
X50645413Y-130823207D01*
X50747270Y-130850499D01*
X50747271Y-130850500D01*
X50747273Y-130850500D01*
X50852729Y-130850500D01*
X50852729Y-130850499D01*
X50954587Y-130823207D01*
X51045913Y-130770480D01*
X51120480Y-130695913D01*
X51173207Y-130604587D01*
X51200499Y-130502729D01*
X51200500Y-130502729D01*
X51200500Y-130397271D01*
X51200499Y-130397270D01*
X51173208Y-130295417D01*
X51173207Y-130295413D01*
X51120480Y-130204087D01*
X51045913Y-130129520D01*
X50954591Y-130076795D01*
X50954582Y-130076791D01*
X50852729Y-130049500D01*
X50852727Y-130049500D01*
X50747273Y-130049500D01*
X50747271Y-130049500D01*
X50645417Y-130076791D01*
X50645408Y-130076795D01*
X50554086Y-130129520D01*
X50505781Y-130177826D01*
X50453455Y-130199500D01*
X50021545Y-130199500D01*
X49969219Y-130177826D01*
X49920913Y-130129520D01*
X49829591Y-130076795D01*
X49829582Y-130076791D01*
X49727729Y-130049500D01*
X49727727Y-130049500D01*
X49622273Y-130049500D01*
X49622271Y-130049500D01*
X49520417Y-130076791D01*
X49520408Y-130076795D01*
X49429086Y-130129520D01*
X49354520Y-130204086D01*
X49301795Y-130295408D01*
X49301791Y-130295417D01*
X49274500Y-130397270D01*
X14778026Y-130397270D01*
X14723209Y-130350452D01*
X13879393Y-129629765D01*
X13877661Y-129628238D01*
X13790641Y-129549056D01*
X12961586Y-128794673D01*
X12959892Y-128793082D01*
X12070470Y-127931172D01*
X12068827Y-127929529D01*
X11206917Y-127040107D01*
X11205325Y-127038412D01*
X10371747Y-126122322D01*
X10370224Y-126120594D01*
X10176186Y-125893405D01*
X9565867Y-125178814D01*
X9564390Y-125177028D01*
X8790000Y-124210430D01*
X8788575Y-124208593D01*
X8044921Y-123218140D01*
X8043555Y-123216259D01*
X7331411Y-122202980D01*
X7330104Y-122201058D01*
X7296893Y-122150499D01*
X6650076Y-121165814D01*
X6648870Y-121163912D01*
X6100717Y-120269409D01*
X6001736Y-120107886D01*
X6000552Y-120105885D01*
X5907787Y-119943250D01*
X5888531Y-119909491D01*
X18850000Y-119909491D01*
X18850000Y-120090508D01*
X18878316Y-120269289D01*
X18878319Y-120269302D01*
X18934251Y-120441443D01*
X19016431Y-120602728D01*
X19117179Y-120741398D01*
X19669324Y-120189253D01*
X19695124Y-120233940D01*
X19766060Y-120304876D01*
X19810745Y-120330675D01*
X19258600Y-120882819D01*
X19397271Y-120983568D01*
X19558556Y-121065748D01*
X19558555Y-121065748D01*
X19730697Y-121121680D01*
X19730710Y-121121683D01*
X19909491Y-121150000D01*
X20090509Y-121150000D01*
X20269289Y-121121683D01*
X20269302Y-121121680D01*
X20441443Y-121065748D01*
X20602732Y-120983566D01*
X20602733Y-120983566D01*
X20741398Y-120882820D01*
X20189254Y-120330675D01*
X20233940Y-120304876D01*
X20304876Y-120233940D01*
X20330675Y-120189253D01*
X20882820Y-120741398D01*
X20983566Y-120602733D01*
X20983566Y-120602732D01*
X21065748Y-120441443D01*
X21121680Y-120269302D01*
X21121683Y-120269289D01*
X21150000Y-120090508D01*
X21150000Y-119909491D01*
X21121683Y-119730710D01*
X21121680Y-119730697D01*
X21065748Y-119558556D01*
X20983568Y-119397271D01*
X20882819Y-119258600D01*
X20330674Y-119810744D01*
X20304876Y-119766060D01*
X20233940Y-119695124D01*
X20189253Y-119669323D01*
X20741398Y-119117179D01*
X20602728Y-119016431D01*
X20441443Y-118934251D01*
X20441444Y-118934251D01*
X20269302Y-118878319D01*
X20269289Y-118878316D01*
X20090509Y-118850000D01*
X19909491Y-118850000D01*
X19730710Y-118878316D01*
X19730697Y-118878319D01*
X19558558Y-118934250D01*
X19397273Y-119016429D01*
X19258600Y-119117179D01*
X19810745Y-119669324D01*
X19766060Y-119695124D01*
X19695124Y-119766060D01*
X19669324Y-119810745D01*
X19117179Y-119258600D01*
X19016429Y-119397273D01*
X18934250Y-119558558D01*
X18878319Y-119730697D01*
X18878316Y-119730710D01*
X18850000Y-119909491D01*
X5888531Y-119909491D01*
X5473604Y-119182046D01*
X5386902Y-119030042D01*
X5385782Y-119028005D01*
X4806222Y-117933407D01*
X4805167Y-117931335D01*
X4260300Y-116819123D01*
X4259310Y-116817020D01*
X4244632Y-116784511D01*
X3749611Y-115688163D01*
X3748721Y-115686106D01*
X3274739Y-114541810D01*
X3273883Y-114539648D01*
X3088419Y-114048833D01*
X2836074Y-113381021D01*
X2835311Y-113378902D01*
X2434116Y-112207108D01*
X2433406Y-112204923D01*
X2069217Y-111021106D01*
X2068569Y-111018874D01*
X1926900Y-110501021D01*
X1741753Y-109824239D01*
X1741176Y-109821989D01*
X1659253Y-109480755D01*
X1452044Y-108617668D01*
X1451539Y-108615405D01*
X1447397Y-108595405D01*
X1200373Y-107402572D01*
X1199956Y-107400385D01*
X986999Y-106180201D01*
X986646Y-106177979D01*
X812119Y-104951686D01*
X811841Y-104949482D01*
X675925Y-103718368D01*
X675709Y-103716080D01*
X658703Y-103500001D01*
X578532Y-102481335D01*
X578388Y-102479034D01*
X520043Y-101241824D01*
X519973Y-101239590D01*
X500509Y-100000572D01*
X500500Y-99999410D01*
X500500Y-99426826D01*
X1983021Y-99426826D01*
X1983021Y-99426842D01*
X1994696Y-99658549D01*
X1994697Y-99658560D01*
X2043021Y-99936080D01*
X2043025Y-99936095D01*
X2128571Y-100194234D01*
X2128574Y-100194241D01*
X2251086Y-100432274D01*
X2251092Y-100432284D01*
X2410293Y-100649419D01*
X2410295Y-100649421D01*
X2416728Y-100656529D01*
X2433803Y-100673895D01*
X2455906Y-100696376D01*
X2507031Y-100746464D01*
X2521827Y-100760960D01*
X2556955Y-100794853D01*
X2611499Y-100847481D01*
X2721878Y-100953082D01*
X2753936Y-100983583D01*
X2849873Y-101074862D01*
X2992554Y-101210080D01*
X2992595Y-101210119D01*
X3146820Y-101355827D01*
X3146821Y-101355827D01*
X3146856Y-101355860D01*
X3309753Y-101509364D01*
X3328293Y-101526795D01*
X3478188Y-101667728D01*
X3649251Y-101828221D01*
X3819713Y-101987818D01*
X3819714Y-101987818D01*
X3952651Y-102112013D01*
X3986750Y-102143869D01*
X3986782Y-102143899D01*
X3986781Y-102143899D01*
X4147179Y-102293393D01*
X4232646Y-102372831D01*
X4298118Y-102433685D01*
X4436426Y-102561802D01*
X4436487Y-102561858D01*
X4436486Y-102561858D01*
X4559026Y-102674860D01*
X4663195Y-102770299D01*
X4745525Y-102844934D01*
X4803183Y-102896104D01*
X4833124Y-102920953D01*
X4833128Y-102920957D01*
X4833324Y-102921096D01*
X4833331Y-102921100D01*
X4900214Y-102959929D01*
X4941032Y-102976785D01*
X4969188Y-102988412D01*
X4970782Y-102989070D01*
X4970789Y-102989073D01*
X5021509Y-102999814D01*
X5021514Y-102999815D01*
X5067029Y-103001385D01*
X5130744Y-103003583D01*
X5130745Y-103003582D01*
X5130751Y-103003583D01*
X5243067Y-102988412D01*
X5337129Y-102956217D01*
X5357219Y-102942243D01*
X5408885Y-102899808D01*
X5486024Y-102832828D01*
X5585695Y-102744064D01*
X5704956Y-102636273D01*
X5840866Y-102512212D01*
X5990484Y-102374641D01*
X6150869Y-102226316D01*
X6319077Y-102069997D01*
X6492169Y-101908441D01*
X6667203Y-101744406D01*
X6817772Y-101602729D01*
X6841181Y-101580703D01*
X6920665Y-101505600D01*
X7011330Y-101419932D01*
X7174540Y-101265010D01*
X7327927Y-101118641D01*
X7468547Y-100983583D01*
X7502480Y-100950717D01*
X7526860Y-100927102D01*
X7593461Y-100862595D01*
X7699726Y-100758435D01*
X7784401Y-100673861D01*
X7844545Y-100611630D01*
X7877216Y-100574502D01*
X7998985Y-100390441D01*
X8114721Y-100148990D01*
X8195343Y-99891922D01*
X8239976Y-99624886D01*
X8247742Y-99353533D01*
X8217768Y-99083513D01*
X8149176Y-98820475D01*
X8128268Y-98762737D01*
X8014193Y-98522019D01*
X7865786Y-98303973D01*
X7865783Y-98303970D01*
X7865782Y-98303968D01*
X7685695Y-98111122D01*
X7476563Y-97945981D01*
X7476560Y-97945979D01*
X7241045Y-97811077D01*
X6981775Y-97708924D01*
X6967760Y-97704652D01*
X6949811Y-97699181D01*
X6883109Y-97681891D01*
X6883105Y-97681890D01*
X6883104Y-97681890D01*
X6815809Y-97670342D01*
X6787856Y-97667880D01*
X6737445Y-97663440D01*
X6637615Y-97660098D01*
X6637613Y-97660097D01*
X6637584Y-97660097D01*
X6505896Y-97659225D01*
X6385975Y-97660475D01*
X6238469Y-97667879D01*
X6113605Y-97683954D01*
X6113598Y-97683956D01*
X5999809Y-97710992D01*
X5999792Y-97710997D01*
X5885555Y-97751274D01*
X5885548Y-97751277D01*
X5885542Y-97751279D01*
X5885541Y-97751280D01*
X5759251Y-97807104D01*
X5759241Y-97807108D01*
X5759241Y-97807109D01*
X5759226Y-97807115D01*
X5657424Y-97858046D01*
X5657418Y-97858049D01*
X5657415Y-97858051D01*
X5629381Y-97874761D01*
X5521498Y-97939070D01*
X5395056Y-98033859D01*
X5262131Y-98153542D01*
X5170282Y-98241724D01*
X5117526Y-98262328D01*
X5068808Y-98242689D01*
X4976107Y-98157017D01*
X4954531Y-98137306D01*
X4954527Y-98137303D01*
X4954522Y-98137298D01*
X4954506Y-98137285D01*
X4730670Y-97959160D01*
X4730661Y-97959154D01*
X4559383Y-97858051D01*
X4498393Y-97822049D01*
X4498390Y-97822047D01*
X4498387Y-97822046D01*
X4255679Y-97725148D01*
X4255680Y-97725148D01*
X4000468Y-97667617D01*
X4000462Y-97667616D01*
X3730727Y-97648624D01*
X3593558Y-97653603D01*
X3325533Y-97693435D01*
X3325527Y-97693436D01*
X3072075Y-97771768D01*
X3072065Y-97771772D01*
X2836164Y-97887003D01*
X2836155Y-97887008D01*
X2620758Y-98037549D01*
X2428843Y-98221796D01*
X2263389Y-98438143D01*
X2263374Y-98438164D01*
X2226887Y-98496170D01*
X2226874Y-98496194D01*
X2116717Y-98708921D01*
X2116714Y-98708927D01*
X2040897Y-98929494D01*
X1997105Y-99166066D01*
X1997103Y-99166083D01*
X1983021Y-99426826D01*
X500500Y-99426826D01*
X500500Y-85131174D01*
X1028947Y-85131174D01*
X1029141Y-85170576D01*
X1032492Y-85258159D01*
X1042533Y-85325370D01*
X1042534Y-85325372D01*
X1062521Y-85388415D01*
X1095705Y-85463475D01*
X1098913Y-85470196D01*
X1195422Y-85626575D01*
X1195425Y-85626578D01*
X1319089Y-85750689D01*
X1319090Y-85750690D01*
X1412242Y-85807734D01*
X1471205Y-85843842D01*
X1637140Y-85900506D01*
X1811112Y-85919203D01*
X1971898Y-85900506D01*
X1982906Y-85899226D01*
X2025347Y-85884380D01*
X2146681Y-85841939D01*
X2293406Y-85750690D01*
X2296601Y-85748703D01*
X2296601Y-85748702D01*
X2296604Y-85748701D01*
X2426838Y-85620875D01*
X2484052Y-85550995D01*
X2533971Y-85524239D01*
X2541309Y-85523874D01*
X2958351Y-85523874D01*
X3353642Y-85523874D01*
X3405968Y-85545548D01*
X3425127Y-85578747D01*
X3434552Y-85613971D01*
X3434558Y-85613993D01*
X3500463Y-85809071D01*
X3500465Y-85809075D01*
X3570498Y-85948002D01*
X3616079Y-86038423D01*
X3764929Y-86248064D01*
X3943188Y-86434621D01*
X4102576Y-86559808D01*
X4147030Y-86594723D01*
X4147035Y-86594725D01*
X4372628Y-86724996D01*
X4372634Y-86724998D01*
X4372641Y-86725002D01*
X4612081Y-86820444D01*
X4616159Y-86822070D01*
X4873797Y-86882573D01*
X4982462Y-86893809D01*
X5137006Y-86897258D01*
X5171151Y-86895766D01*
X5299742Y-86890149D01*
X5299748Y-86890148D01*
X5299754Y-86890148D01*
X5454108Y-86873299D01*
X5550165Y-86854163D01*
X5583463Y-86847531D01*
X5583465Y-86847530D01*
X5583472Y-86847529D01*
X5629919Y-86834020D01*
X5784620Y-86776805D01*
X5942569Y-86702357D01*
X6092534Y-86616892D01*
X6124645Y-86594725D01*
X6223278Y-86526635D01*
X6223279Y-86526633D01*
X6223285Y-86526630D01*
X6323590Y-86437787D01*
X6337608Y-86423501D01*
X6341436Y-86419872D01*
X6361743Y-86401963D01*
X6415323Y-86383610D01*
X6445357Y-86392090D01*
X6457681Y-86398627D01*
X6459262Y-86399491D01*
X6528924Y-86438774D01*
X6529501Y-86439105D01*
X6618857Y-86490826D01*
X6621881Y-86492576D01*
X6622304Y-86492822D01*
X6724084Y-86552727D01*
X6732083Y-86557435D01*
X6732398Y-86557622D01*
X6849917Y-86627736D01*
X6853895Y-86630109D01*
X6854029Y-86630289D01*
X6854074Y-86630216D01*
X7252871Y-86869664D01*
X7286574Y-86915182D01*
X7288309Y-86924793D01*
X7297552Y-87006546D01*
X7304870Y-87055730D01*
X7304872Y-87055739D01*
X7304873Y-87055744D01*
X7310218Y-87073025D01*
X7355328Y-87218872D01*
X7355329Y-87218874D01*
X7439425Y-87363855D01*
X7440975Y-87366527D01*
X7556833Y-87492927D01*
X7697930Y-87592296D01*
X7859289Y-87658856D01*
X7859295Y-87658857D01*
X7859297Y-87658858D01*
X7859295Y-87658858D01*
X7910424Y-87669368D01*
X7910439Y-87669371D01*
X8009712Y-87678340D01*
X8119137Y-87677899D01*
X8196891Y-87668679D01*
X8235761Y-87664071D01*
X8235763Y-87664070D01*
X8235768Y-87664070D01*
X8235770Y-87664069D01*
X8235772Y-87664069D01*
X8272619Y-87652670D01*
X8405527Y-87611558D01*
X8553978Y-87522999D01*
X8678635Y-87400032D01*
X8777009Y-87244296D01*
X8801825Y-87192177D01*
X8825529Y-87131719D01*
X8838796Y-87073028D01*
X8844168Y-87006551D01*
X8844583Y-87001422D01*
X8844585Y-87001382D01*
X8845857Y-86902098D01*
X8845657Y-86876112D01*
X8845288Y-86828104D01*
X8841111Y-86749940D01*
X8830313Y-86688982D01*
X8809933Y-86630510D01*
X8777009Y-86559801D01*
X8738940Y-86490826D01*
X8738939Y-86490825D01*
X8738936Y-86490819D01*
X8629663Y-86350908D01*
X8629661Y-86350906D01*
X8495868Y-86241810D01*
X8495864Y-86241807D01*
X8342916Y-86165787D01*
X8342915Y-86165786D01*
X8338515Y-86164712D01*
X8176135Y-86125079D01*
X8176132Y-86125078D01*
X8176130Y-86125078D01*
X8000889Y-86121940D01*
X7822507Y-86158617D01*
X7709663Y-86194932D01*
X7653213Y-86190330D01*
X7648848Y-86187901D01*
X7612084Y-86165785D01*
X7250206Y-85948090D01*
X7250230Y-85948049D01*
X7250060Y-85948002D01*
X7173480Y-85901695D01*
X7173094Y-85901460D01*
X7060773Y-85832600D01*
X7060226Y-85832261D01*
X6964500Y-85772424D01*
X6963729Y-85771936D01*
X6889716Y-85724392D01*
X6888214Y-85723401D01*
X6863539Y-85706689D01*
X6832369Y-85659400D01*
X6833398Y-85626874D01*
X6843737Y-85586950D01*
X6848330Y-85569766D01*
X6879926Y-85392598D01*
X6891830Y-85193311D01*
X6891023Y-85170576D01*
X6884461Y-84985609D01*
X6883748Y-84980104D01*
X6858238Y-84783193D01*
X6813579Y-84599770D01*
X6805424Y-84573848D01*
X6805199Y-84573121D01*
X6783717Y-84502300D01*
X6783256Y-84500717D01*
X6782468Y-84497896D01*
X6777590Y-84480418D01*
X6784397Y-84424193D01*
X6805020Y-84400912D01*
X6844889Y-84371593D01*
X6844920Y-84371586D01*
X6844913Y-84371577D01*
X6923104Y-84314132D01*
X7021527Y-84241855D01*
X7021538Y-84241852D01*
X7021536Y-84241849D01*
X7135889Y-84157905D01*
X7135897Y-84157899D01*
X7261871Y-84065450D01*
X7723859Y-83726454D01*
X7778866Y-83712973D01*
X7789585Y-83715447D01*
X7855032Y-83735779D01*
X7970718Y-83756928D01*
X8007769Y-83757353D01*
X8118918Y-83758630D01*
X8118918Y-83758629D01*
X8118924Y-83758630D01*
X8257323Y-83739437D01*
X8423782Y-83680655D01*
X8524331Y-83616002D01*
X8570659Y-83586214D01*
X8570660Y-83586212D01*
X8570663Y-83586211D01*
X8693918Y-83458865D01*
X8789498Y-83301377D01*
X8799336Y-83279912D01*
X8823448Y-83217986D01*
X8837507Y-83156888D01*
X8837507Y-83156879D01*
X8837509Y-83156873D01*
X8843084Y-83092909D01*
X8844015Y-83082232D01*
X8845474Y-82979634D01*
X8845319Y-82949055D01*
X8842316Y-82854525D01*
X8833559Y-82783968D01*
X8816483Y-82722841D01*
X8788527Y-82656605D01*
X8741853Y-82573551D01*
X8741852Y-82573549D01*
X8643114Y-82449371D01*
X8643113Y-82449370D01*
X8643109Y-82449366D01*
X8643108Y-82449365D01*
X8523351Y-82341566D01*
X8395389Y-82262974D01*
X8395390Y-82262974D01*
X8395386Y-82262972D01*
X8374686Y-82253497D01*
X8374671Y-82253490D01*
X8374660Y-82253486D01*
X8374647Y-82253480D01*
X8311925Y-82228980D01*
X8311914Y-82228977D01*
X8250329Y-82214626D01*
X8250318Y-82214624D01*
X8175389Y-82207881D01*
X8175377Y-82207880D01*
X8072655Y-82206198D01*
X8072633Y-82206198D01*
X8072629Y-82206198D01*
X8052614Y-82206268D01*
X8038740Y-82206317D01*
X7950562Y-82209067D01*
X7945663Y-82209220D01*
X7876136Y-82217933D01*
X7876135Y-82217933D01*
X7876129Y-82217934D01*
X7815712Y-82234997D01*
X7815701Y-82235001D01*
X7815699Y-82235001D01*
X7815698Y-82235002D01*
X7801717Y-82240943D01*
X7749866Y-82262975D01*
X7651421Y-82320322D01*
X7651414Y-82320327D01*
X7534020Y-82417015D01*
X7534013Y-82417021D01*
X7433143Y-82530582D01*
X7433140Y-82530585D01*
X7377196Y-82622517D01*
X7361344Y-82648566D01*
X7341392Y-82699634D01*
X7318231Y-82783968D01*
X7311966Y-82806778D01*
X7293804Y-82917780D01*
X7281486Y-83040770D01*
X7254705Y-83090675D01*
X7251832Y-83092909D01*
X6874956Y-83371399D01*
X6841503Y-83396119D01*
X6822880Y-83409880D01*
X6822754Y-83409973D01*
X6705700Y-83496087D01*
X6705435Y-83496281D01*
X6591064Y-83579641D01*
X6590750Y-83579868D01*
X6490424Y-83652191D01*
X6489991Y-83652501D01*
X6409105Y-83709930D01*
X6408312Y-83710486D01*
X6352386Y-83749103D01*
X6349802Y-83750808D01*
X6332169Y-83761924D01*
X6276346Y-83771494D01*
X6261697Y-83766515D01*
X6244612Y-83758630D01*
X6243326Y-83758036D01*
X6231444Y-83751148D01*
X6176173Y-83711832D01*
X6175450Y-83711311D01*
X6138977Y-83684699D01*
X6138969Y-83684693D01*
X6003240Y-83601795D01*
X5988419Y-83592743D01*
X5815445Y-83509519D01*
X5815438Y-83509516D01*
X5635529Y-83442723D01*
X5635523Y-83442721D01*
X5635520Y-83442720D01*
X5634280Y-83442331D01*
X5631784Y-83441549D01*
X5568026Y-83423086D01*
X5567996Y-83423079D01*
X5507672Y-83409942D01*
X5507647Y-83409937D01*
X5441604Y-83401246D01*
X5441587Y-83401244D01*
X5360621Y-83396119D01*
X5255607Y-83393687D01*
X5117465Y-83393073D01*
X5117404Y-83393073D01*
X4804259Y-83393073D01*
X4751933Y-83371399D01*
X4737281Y-83350534D01*
X4583885Y-83023898D01*
X4425856Y-82687398D01*
X4423232Y-82630824D01*
X4426814Y-82622525D01*
X4460437Y-82556118D01*
X4482634Y-82508568D01*
X4533796Y-82339452D01*
X4545986Y-82168766D01*
X4545601Y-82166181D01*
X4521138Y-82002091D01*
X4521137Y-82002090D01*
X4521137Y-82002085D01*
X4461181Y-81844984D01*
X4368048Y-81703035D01*
X4243669Y-81581815D01*
X4217541Y-81565679D01*
X4096141Y-81490704D01*
X4089977Y-81486897D01*
X4089975Y-81486896D01*
X4089974Y-81486895D01*
X4062155Y-81473865D01*
X3994387Y-81446076D01*
X3994386Y-81446075D01*
X3994382Y-81446074D01*
X3932292Y-81430175D01*
X3859888Y-81422977D01*
X3857233Y-81422931D01*
X3761189Y-81421286D01*
X3709844Y-81421576D01*
X3627325Y-81425238D01*
X3563599Y-81435770D01*
X3502840Y-81456486D01*
X3502829Y-81456490D01*
X3429187Y-81490700D01*
X3429173Y-81490707D01*
X3337097Y-81544204D01*
X3207460Y-81650743D01*
X3102271Y-81777277D01*
X3030475Y-81914306D01*
X3030471Y-81914316D01*
X3018393Y-81950421D01*
X2991354Y-82095527D01*
X2989457Y-82252470D01*
X2989458Y-82252481D01*
X3011995Y-82405427D01*
X3011996Y-82405430D01*
X3011996Y-82405432D01*
X3011997Y-82405433D01*
X3012486Y-82406840D01*
X3055482Y-82530585D01*
X3058272Y-82538613D01*
X3094352Y-82603184D01*
X3196555Y-82733301D01*
X3244572Y-82774593D01*
X3323168Y-82842182D01*
X3323170Y-82842183D01*
X3465121Y-82922804D01*
X3613330Y-82968139D01*
X3659696Y-82976064D01*
X3707621Y-83006244D01*
X3714398Y-83017958D01*
X3806851Y-83217992D01*
X3871314Y-83357465D01*
X4023304Y-83686315D01*
X4025583Y-83742906D01*
X4009372Y-83768756D01*
X3891059Y-83891315D01*
X3839300Y-83946144D01*
X3709059Y-84100084D01*
X3606739Y-84251608D01*
X3524785Y-84412943D01*
X3524784Y-84412945D01*
X3503094Y-84470479D01*
X3455664Y-84596287D01*
X3448586Y-84617822D01*
X3425352Y-84688507D01*
X3388422Y-84731449D01*
X3355052Y-84739400D01*
X2531270Y-84739400D01*
X2478944Y-84717726D01*
X2476948Y-84715651D01*
X2462933Y-84700501D01*
X2385169Y-84616436D01*
X2341223Y-84572314D01*
X2243502Y-84491150D01*
X2243500Y-84491148D01*
X2243498Y-84491147D01*
X2147961Y-84431065D01*
X2147955Y-84431062D01*
X2098580Y-84407229D01*
X2098577Y-84407227D01*
X2073665Y-84397821D01*
X2044024Y-84386629D01*
X1987061Y-84374966D01*
X1987063Y-84374966D01*
X1966442Y-84373487D01*
X1914377Y-84369755D01*
X1914370Y-84369754D01*
X1914362Y-84369754D01*
X1812685Y-84368514D01*
X1812669Y-84368514D01*
X1812663Y-84368514D01*
X1806770Y-84368543D01*
X1754655Y-84368799D01*
X1666885Y-84372130D01*
X1666882Y-84372130D01*
X1600976Y-84381040D01*
X1600962Y-84381043D01*
X1543390Y-84397821D01*
X1543386Y-84397823D01*
X1480595Y-84424771D01*
X1480588Y-84424774D01*
X1327082Y-84518379D01*
X1196800Y-84645300D01*
X1097690Y-84799960D01*
X1079610Y-84837506D01*
X1079606Y-84837516D01*
X1052475Y-84902749D01*
X1037174Y-84962899D01*
X1037173Y-84962902D01*
X1037173Y-84962905D01*
X1035011Y-84985609D01*
X1030424Y-85033783D01*
X1029278Y-85109412D01*
X1029278Y-85109414D01*
X1028947Y-85131174D01*
X500500Y-85131174D01*
X500500Y-68734129D01*
X3167878Y-68734129D01*
X3175098Y-68848617D01*
X3219699Y-68962202D01*
X3219700Y-68962203D01*
X3219701Y-68962205D01*
X3222482Y-68966217D01*
X3252970Y-68999278D01*
X3252978Y-68999286D01*
X3252981Y-68999289D01*
X3252987Y-68999296D01*
X3311003Y-69055850D01*
X3392838Y-69132496D01*
X3494876Y-69225916D01*
X3560016Y-69284602D01*
X3613393Y-69332691D01*
X3744680Y-69449420D01*
X3885064Y-69572731D01*
X3926381Y-69608841D01*
X4062097Y-69727954D01*
X4186238Y-69837660D01*
X4295398Y-69934899D01*
X4386051Y-70016502D01*
X4386251Y-70016683D01*
X4454744Y-70079360D01*
X4455595Y-70080154D01*
X4459398Y-70083757D01*
X4482477Y-70135478D01*
X4462223Y-70188370D01*
X4458239Y-70192270D01*
X4400785Y-70244419D01*
X4400307Y-70244849D01*
X4314597Y-70321298D01*
X4314298Y-70321564D01*
X4210149Y-70413453D01*
X4209920Y-70413654D01*
X4091355Y-70517396D01*
X4091155Y-70517570D01*
X3961896Y-70629855D01*
X3961808Y-70629932D01*
X3812175Y-70759501D01*
X3812142Y-70759530D01*
X3812141Y-70759529D01*
X3663138Y-70888863D01*
X3663139Y-70888864D01*
X3540758Y-70995839D01*
X3442412Y-71083063D01*
X3365355Y-71153289D01*
X3306656Y-71209421D01*
X3306648Y-71209429D01*
X3306641Y-71209436D01*
X3263476Y-71254296D01*
X3263471Y-71254300D01*
X3263467Y-71254306D01*
X3233046Y-71290677D01*
X3212535Y-71321390D01*
X3199116Y-71349258D01*
X3199114Y-71349264D01*
X3189982Y-71377066D01*
X3182301Y-71407661D01*
X3182298Y-71407679D01*
X3171108Y-71484409D01*
X3171107Y-71484415D01*
X3182586Y-71602398D01*
X3182589Y-71602409D01*
X3191386Y-71623623D01*
X3225986Y-71707066D01*
X3295564Y-71793565D01*
X3385581Y-71857067D01*
X3490300Y-71892740D01*
X3490299Y-71892740D01*
X3603979Y-71895750D01*
X3603979Y-71895749D01*
X3603981Y-71895750D01*
X3720885Y-71861264D01*
X3723807Y-71859796D01*
X3764977Y-71832454D01*
X3832103Y-71781278D01*
X3838460Y-71776160D01*
X3858567Y-71759970D01*
X3920229Y-71710321D01*
X4024404Y-71623636D01*
X4139674Y-71525275D01*
X4261086Y-71419291D01*
X4595310Y-71124212D01*
X4648879Y-71105830D01*
X4699759Y-71130711D01*
X4718281Y-71178894D01*
X4720858Y-71419281D01*
X4721687Y-71496628D01*
X4727141Y-72005565D01*
X4728240Y-72106292D01*
X4730263Y-72276489D01*
X4730819Y-72323299D01*
X4733390Y-72502889D01*
X4736133Y-72649649D01*
X4739206Y-72766603D01*
X4739207Y-72766618D01*
X4742781Y-72857898D01*
X4747024Y-72927211D01*
X4747025Y-72927226D01*
X4752100Y-72978306D01*
X4752105Y-72978343D01*
X4758187Y-73015039D01*
X4765444Y-73041115D01*
X4765446Y-73041120D01*
X4774041Y-73060332D01*
X4777806Y-73066424D01*
X4791259Y-73088192D01*
X4791263Y-73088197D01*
X4791267Y-73088202D01*
X4853686Y-73160561D01*
X4853688Y-73160563D01*
X4853692Y-73160567D01*
X4927713Y-73218652D01*
X4998873Y-73250240D01*
X5010599Y-73253016D01*
X5039805Y-73259931D01*
X5042800Y-73260706D01*
X5075705Y-73269965D01*
X5077670Y-73270548D01*
X5078111Y-73270685D01*
X5079709Y-73271183D01*
X5101571Y-73272032D01*
X5128895Y-73273094D01*
X5128896Y-73273093D01*
X5128900Y-73273094D01*
X5197483Y-73263037D01*
X5267328Y-73244638D01*
X5320302Y-73221523D01*
X5324288Y-73218727D01*
X5358247Y-73191482D01*
X5419934Y-73139787D01*
X5506114Y-73066424D01*
X5613552Y-72974178D01*
X5703440Y-72896553D01*
X5738953Y-72865885D01*
X5879321Y-72744122D01*
X6031124Y-72611929D01*
X6191229Y-72472003D01*
X6195836Y-72467969D01*
X6413510Y-72276500D01*
X6598668Y-72111774D01*
X6751515Y-71973601D01*
X6872254Y-71861793D01*
X6961091Y-71776160D01*
X7018228Y-71716513D01*
X7043871Y-71682665D01*
X7069793Y-71601741D01*
X7078960Y-71494580D01*
X7077657Y-71484409D01*
X7065628Y-71390484D01*
X7065627Y-71390483D01*
X7065627Y-71390477D01*
X7030396Y-71306231D01*
X7028378Y-71303440D01*
X6997395Y-71269705D01*
X6938742Y-71212305D01*
X6856248Y-71134759D01*
X6753739Y-71040588D01*
X6635043Y-70933314D01*
X6634948Y-70933229D01*
X6504083Y-70816542D01*
X6504028Y-70816494D01*
X6503987Y-70816457D01*
X6364398Y-70693538D01*
X6333704Y-70666668D01*
X6198401Y-70548007D01*
X6074117Y-70438670D01*
X5964339Y-70341746D01*
X5872552Y-70260327D01*
X5802417Y-70197659D01*
X5802005Y-70197288D01*
X5796687Y-70192463D01*
X5772494Y-70141256D01*
X5791596Y-70087937D01*
X5795493Y-70083954D01*
X5811995Y-70068320D01*
X5812610Y-70067747D01*
X5886305Y-70000180D01*
X5981305Y-69914545D01*
X6093900Y-69814200D01*
X6220704Y-69702200D01*
X6358267Y-69581660D01*
X6358355Y-69581631D01*
X6358332Y-69581605D01*
X6361350Y-69578966D01*
X6384716Y-69558542D01*
X6523921Y-69435792D01*
X6653839Y-69319499D01*
X6770662Y-69213194D01*
X6870580Y-69120406D01*
X6949786Y-69044663D01*
X7004471Y-68989495D01*
X7030827Y-68958430D01*
X7055411Y-68905681D01*
X7076917Y-68799602D01*
X7073043Y-68686944D01*
X7043204Y-68585296D01*
X7042632Y-68584149D01*
X7042633Y-68584149D01*
X7037574Y-68577558D01*
X7015822Y-68549215D01*
X6958615Y-68489435D01*
X6916284Y-68448548D01*
X6870646Y-68404467D01*
X6846751Y-68382298D01*
X6751484Y-68293913D01*
X6711918Y-68258085D01*
X6600848Y-68157508D01*
X6418150Y-67994714D01*
X6203192Y-67805342D01*
X6174054Y-67779801D01*
X6174054Y-67779800D01*
X6015625Y-67641364D01*
X5973305Y-67604587D01*
X5865125Y-67510575D01*
X5726205Y-67390557D01*
X5726109Y-67390474D01*
X5602229Y-67284188D01*
X5496428Y-67194230D01*
X5496393Y-67194200D01*
X5412260Y-67123639D01*
X5353147Y-67075344D01*
X5322435Y-67052203D01*
X5312799Y-67046431D01*
X5206361Y-67007911D01*
X5091324Y-67004249D01*
X4977826Y-67033017D01*
X4977824Y-67033017D01*
X4977824Y-67033018D01*
X4876009Y-67091790D01*
X4829105Y-67142420D01*
X4796013Y-67178142D01*
X4796011Y-67178144D01*
X4796010Y-67178146D01*
X4737732Y-67266249D01*
X4737732Y-67266250D01*
X4727141Y-68258085D01*
X4721755Y-68762389D01*
X4718269Y-69088706D01*
X4696037Y-69140798D01*
X4643483Y-69161912D01*
X4595430Y-69143507D01*
X4577064Y-69127371D01*
X4451090Y-69016690D01*
X4292851Y-68877661D01*
X4292851Y-68877660D01*
X4213889Y-68808339D01*
X4213889Y-68808340D01*
X4213829Y-68808287D01*
X4080205Y-68691487D01*
X4080155Y-68691444D01*
X4080114Y-68691408D01*
X3972490Y-68598508D01*
X3886951Y-68526543D01*
X3886943Y-68526536D01*
X3840634Y-68489427D01*
X3819689Y-68472643D01*
X3776112Y-68440703D01*
X3766951Y-68433988D01*
X3724914Y-68407691D01*
X3724913Y-68407690D01*
X3724909Y-68407688D01*
X3689773Y-68390887D01*
X3661632Y-68381949D01*
X3657722Y-68380707D01*
X3657720Y-68380706D01*
X3657715Y-68380705D01*
X3624964Y-68374283D01*
X3624955Y-68374282D01*
X3624954Y-68374282D01*
X3615822Y-68373792D01*
X3539842Y-68369716D01*
X3425586Y-68393759D01*
X3326903Y-68448548D01*
X3326901Y-68448549D01*
X3248146Y-68527760D01*
X3248144Y-68527762D01*
X3248144Y-68527763D01*
X3231775Y-68557008D01*
X3193682Y-68625063D01*
X3167879Y-68734124D01*
X3167878Y-68734129D01*
X500500Y-68734129D01*
X500500Y-66909453D01*
X18849500Y-66909453D01*
X18849500Y-67090546D01*
X18877828Y-67269406D01*
X18877831Y-67269419D01*
X18933787Y-67441635D01*
X19016005Y-67602995D01*
X19016005Y-67602996D01*
X19043833Y-67641298D01*
X19122447Y-67749501D01*
X19250499Y-67877553D01*
X19397006Y-67983996D01*
X19558361Y-68066211D01*
X19598367Y-68079209D01*
X19641434Y-68115990D01*
X19649500Y-68149587D01*
X19649500Y-106686256D01*
X19639586Y-106723256D01*
X19580201Y-106826112D01*
X19580199Y-106826117D01*
X19549500Y-106940688D01*
X19549500Y-107059311D01*
X19580199Y-107173882D01*
X19580201Y-107173887D01*
X19639508Y-107276609D01*
X19639509Y-107276610D01*
X19639511Y-107276613D01*
X19723387Y-107360489D01*
X19826114Y-107419799D01*
X19826115Y-107419799D01*
X19826117Y-107419800D01*
X19883402Y-107435149D01*
X19940688Y-107450499D01*
X19940689Y-107450500D01*
X19940691Y-107450500D01*
X20059311Y-107450500D01*
X20059311Y-107450499D01*
X20173886Y-107419799D01*
X20276613Y-107360489D01*
X20360489Y-107276613D01*
X20419799Y-107173886D01*
X20450499Y-107059311D01*
X20450500Y-107059311D01*
X20450500Y-106940689D01*
X20450499Y-106940688D01*
X20419800Y-106826117D01*
X20419798Y-106826112D01*
X20360414Y-106723256D01*
X20350500Y-106686256D01*
X20350500Y-86990688D01*
X30749500Y-86990688D01*
X30749500Y-87109311D01*
X30780199Y-87223882D01*
X30780201Y-87223887D01*
X30839508Y-87326609D01*
X30839509Y-87326610D01*
X30839511Y-87326613D01*
X30877826Y-87364928D01*
X30899500Y-87417253D01*
X30899500Y-116639564D01*
X30919977Y-116715985D01*
X30919979Y-116715990D01*
X30959540Y-116784511D01*
X35827826Y-121652797D01*
X35849500Y-121705123D01*
X35849500Y-121759311D01*
X35880199Y-121873882D01*
X35880201Y-121873887D01*
X35939508Y-121976609D01*
X35939509Y-121976610D01*
X35939511Y-121976613D01*
X36023387Y-122060489D01*
X36126114Y-122119799D01*
X36126115Y-122119799D01*
X36126117Y-122119800D01*
X36183402Y-122135149D01*
X36240688Y-122150499D01*
X36240689Y-122150500D01*
X36240691Y-122150500D01*
X36359311Y-122150500D01*
X36359311Y-122150499D01*
X36473886Y-122119799D01*
X36576613Y-122060489D01*
X36660489Y-121976613D01*
X36719799Y-121873886D01*
X36750499Y-121759311D01*
X36750500Y-121759311D01*
X36750500Y-121640689D01*
X36750499Y-121640688D01*
X36719800Y-121526117D01*
X36719798Y-121526112D01*
X36660491Y-121423390D01*
X36660490Y-121423389D01*
X36660489Y-121423387D01*
X36576613Y-121339511D01*
X36576610Y-121339509D01*
X36576609Y-121339508D01*
X36473887Y-121280201D01*
X36473882Y-121280199D01*
X36359311Y-121249500D01*
X36359309Y-121249500D01*
X36305123Y-121249500D01*
X36252797Y-121227826D01*
X31522174Y-116497203D01*
X31500500Y-116444877D01*
X31500500Y-102112013D01*
X31522174Y-102059687D01*
X31574500Y-102038013D01*
X31626826Y-102059687D01*
X31638585Y-102075012D01*
X31679520Y-102145913D01*
X31754087Y-102220480D01*
X31845413Y-102273207D01*
X31947270Y-102300499D01*
X31947271Y-102300500D01*
X31947273Y-102300500D01*
X32052729Y-102300500D01*
X32052729Y-102300499D01*
X32154587Y-102273207D01*
X32245913Y-102220480D01*
X32320480Y-102145913D01*
X32373207Y-102054587D01*
X32400499Y-101952729D01*
X32400500Y-101952729D01*
X32400500Y-101849056D01*
X32422174Y-101796730D01*
X32823496Y-101395408D01*
X33267327Y-100951577D01*
X33267330Y-100951575D01*
X33277735Y-100941170D01*
X33277736Y-100941170D01*
X33341170Y-100877736D01*
X33353702Y-100847481D01*
X33355390Y-100843406D01*
X33355390Y-100843405D01*
X33375501Y-100794854D01*
X33375501Y-100705145D01*
X33375501Y-100699187D01*
X33375500Y-100699173D01*
X33375500Y-99324056D01*
X33397173Y-99271731D01*
X36696730Y-95972173D01*
X36749056Y-95950500D01*
X36852729Y-95950500D01*
X36852729Y-95950499D01*
X36954587Y-95923207D01*
X37045913Y-95870480D01*
X37120480Y-95795913D01*
X37173207Y-95704587D01*
X37200499Y-95602729D01*
X37200500Y-95602729D01*
X37200500Y-95497271D01*
X37200499Y-95497270D01*
X37173208Y-95395417D01*
X37173207Y-95395413D01*
X37120480Y-95304087D01*
X37045913Y-95229520D01*
X36954591Y-95176795D01*
X36954582Y-95176791D01*
X36852729Y-95149500D01*
X36852727Y-95149500D01*
X36747273Y-95149500D01*
X36747271Y-95149500D01*
X36645417Y-95176791D01*
X36645408Y-95176795D01*
X36554086Y-95229520D01*
X36479520Y-95304086D01*
X36426795Y-95395408D01*
X36426791Y-95395417D01*
X36399500Y-95497270D01*
X36399500Y-95600942D01*
X36377826Y-95653268D01*
X32958831Y-99072263D01*
X32958830Y-99072265D01*
X32924499Y-99155144D01*
X32924499Y-99253466D01*
X32924500Y-99253475D01*
X32924500Y-100625942D01*
X32902826Y-100678268D01*
X32103268Y-101477826D01*
X32050942Y-101499500D01*
X31947271Y-101499500D01*
X31845417Y-101526791D01*
X31845408Y-101526795D01*
X31754086Y-101579520D01*
X31679520Y-101654086D01*
X31638586Y-101724986D01*
X31593652Y-101759465D01*
X31537500Y-101752072D01*
X31503021Y-101707138D01*
X31500500Y-101687986D01*
X31500500Y-94190688D01*
X33799500Y-94190688D01*
X33799500Y-94309311D01*
X33830199Y-94423882D01*
X33830201Y-94423887D01*
X33889508Y-94526609D01*
X33889509Y-94526610D01*
X33889511Y-94526613D01*
X33973387Y-94610489D01*
X34076114Y-94669799D01*
X34076115Y-94669799D01*
X34076117Y-94669800D01*
X34133402Y-94685149D01*
X34190688Y-94700499D01*
X34190689Y-94700500D01*
X34190691Y-94700500D01*
X34309311Y-94700500D01*
X34309311Y-94700499D01*
X34423886Y-94669799D01*
X34526613Y-94610489D01*
X34610489Y-94526613D01*
X34669799Y-94423886D01*
X34700499Y-94309311D01*
X34700500Y-94309311D01*
X34700500Y-94190689D01*
X34700499Y-94190688D01*
X34669800Y-94076117D01*
X34669798Y-94076112D01*
X34610414Y-93973256D01*
X34600500Y-93936256D01*
X34600500Y-90347270D01*
X38599500Y-90347270D01*
X38599500Y-90452729D01*
X38626791Y-90554582D01*
X38626792Y-90554585D01*
X38626793Y-90554587D01*
X38679520Y-90645913D01*
X38754087Y-90720480D01*
X38845413Y-90773207D01*
X38947270Y-90800499D01*
X38947271Y-90800500D01*
X38947273Y-90800500D01*
X39052729Y-90800500D01*
X39052729Y-90800499D01*
X39154587Y-90773207D01*
X39245913Y-90720480D01*
X39320480Y-90645913D01*
X39373207Y-90554587D01*
X39400499Y-90452729D01*
X39400500Y-90452729D01*
X39400500Y-90347271D01*
X39400499Y-90347270D01*
X39373208Y-90245417D01*
X39373207Y-90245413D01*
X39320480Y-90154087D01*
X39247174Y-90080781D01*
X39225500Y-90028455D01*
X39225500Y-88024056D01*
X39247173Y-87971731D01*
X39708734Y-87510170D01*
X40224499Y-87510170D01*
X40224499Y-87599880D01*
X40224499Y-87599881D01*
X40224500Y-87608496D01*
X40224500Y-101099173D01*
X40224499Y-101099187D01*
X40224499Y-101194855D01*
X40243493Y-101240709D01*
X40258829Y-101277735D01*
X40332671Y-101351577D01*
X40332673Y-101351578D01*
X40427826Y-101446731D01*
X40449500Y-101499057D01*
X40449500Y-101602729D01*
X40476791Y-101704582D01*
X40476795Y-101704591D01*
X40478266Y-101707138D01*
X40529520Y-101795913D01*
X40604087Y-101870480D01*
X40695413Y-101923207D01*
X40797270Y-101950499D01*
X40797271Y-101950500D01*
X40797273Y-101950500D01*
X40902729Y-101950500D01*
X40902729Y-101950499D01*
X41004587Y-101923207D01*
X41095913Y-101870480D01*
X41170480Y-101795913D01*
X41223207Y-101704587D01*
X41250499Y-101602729D01*
X41250500Y-101602729D01*
X41250500Y-101497271D01*
X41250499Y-101497270D01*
X41223208Y-101395417D01*
X41223207Y-101395413D01*
X41170480Y-101304087D01*
X41095913Y-101229520D01*
X41004591Y-101176795D01*
X41004582Y-101176791D01*
X40902729Y-101149500D01*
X40902727Y-101149500D01*
X40799057Y-101149500D01*
X40799056Y-101149499D01*
X40799056Y-101149500D01*
X40783730Y-101143151D01*
X40746731Y-101127826D01*
X40746731Y-101127825D01*
X40697174Y-101078267D01*
X40675500Y-101025941D01*
X40675500Y-99573057D01*
X40697174Y-99520731D01*
X40749500Y-99499057D01*
X40801826Y-99520731D01*
X41377826Y-100096731D01*
X41399500Y-100149057D01*
X41399500Y-100252729D01*
X41426791Y-100354582D01*
X41426795Y-100354591D01*
X41471648Y-100432278D01*
X41479520Y-100445913D01*
X41554087Y-100520480D01*
X41645413Y-100573207D01*
X41747270Y-100600499D01*
X41747271Y-100600500D01*
X41747273Y-100600500D01*
X41852729Y-100600500D01*
X41852729Y-100600499D01*
X41954587Y-100573207D01*
X42045913Y-100520480D01*
X42098174Y-100468219D01*
X42150500Y-100446545D01*
X42202826Y-100468219D01*
X42224500Y-100520545D01*
X42224500Y-121743028D01*
X42262634Y-121835093D01*
X42262636Y-121835096D01*
X44449474Y-124021933D01*
X44471148Y-124074259D01*
X44462708Y-124105774D01*
X44463485Y-124106096D01*
X44461626Y-124110582D01*
X44434335Y-124212435D01*
X44434335Y-124317894D01*
X44461626Y-124419747D01*
X44461627Y-124419750D01*
X44461628Y-124419752D01*
X44514355Y-124511078D01*
X44588922Y-124585645D01*
X44680248Y-124638372D01*
X44782105Y-124665664D01*
X44782106Y-124665665D01*
X44782108Y-124665665D01*
X44887564Y-124665665D01*
X44887564Y-124665664D01*
X44989422Y-124638372D01*
X45080748Y-124585645D01*
X45155315Y-124511078D01*
X45208042Y-124419752D01*
X45235334Y-124317894D01*
X45235335Y-124317894D01*
X45235335Y-124209335D01*
X45257009Y-124157009D01*
X45309335Y-124135335D01*
X45417894Y-124135335D01*
X45417894Y-124135334D01*
X45519752Y-124108042D01*
X45611078Y-124055315D01*
X45685645Y-123980748D01*
X45738372Y-123889422D01*
X45765664Y-123787564D01*
X45765665Y-123787564D01*
X45765665Y-123682106D01*
X45765664Y-123682105D01*
X45738373Y-123580252D01*
X45738372Y-123580248D01*
X45685645Y-123488922D01*
X45611078Y-123414355D01*
X45519756Y-123361630D01*
X45519747Y-123361626D01*
X45417894Y-123334335D01*
X45417892Y-123334335D01*
X45312438Y-123334335D01*
X45312436Y-123334335D01*
X45210582Y-123361626D01*
X45206096Y-123363485D01*
X45205481Y-123362000D01*
X45155087Y-123368621D01*
X45121933Y-123349474D01*
X43197174Y-121424714D01*
X43175500Y-121372388D01*
X43175500Y-87332767D01*
X43197173Y-87280442D01*
X44996830Y-85480784D01*
X45049155Y-85459111D01*
X45080667Y-85467556D01*
X45080991Y-85466775D01*
X45085470Y-85468630D01*
X45085471Y-85468630D01*
X45085474Y-85468632D01*
X45187334Y-85495925D01*
X45187335Y-85495925D01*
X45292790Y-85495925D01*
X45292790Y-85495924D01*
X45394648Y-85468632D01*
X45485974Y-85415905D01*
X45560541Y-85341338D01*
X45613268Y-85250012D01*
X45640560Y-85148154D01*
X45640561Y-85148154D01*
X45640561Y-85042696D01*
X45640560Y-85042695D01*
X45631726Y-85009727D01*
X45613268Y-84940838D01*
X45560541Y-84849512D01*
X45485974Y-84774945D01*
X45437873Y-84747174D01*
X45394652Y-84722220D01*
X45394643Y-84722216D01*
X45292790Y-84694925D01*
X45292788Y-84694925D01*
X45187334Y-84694925D01*
X45184231Y-84694925D01*
X45131905Y-84673251D01*
X45110231Y-84620925D01*
X45110231Y-84512366D01*
X45110230Y-84512365D01*
X45109244Y-84508687D01*
X45082938Y-84410508D01*
X45030211Y-84319182D01*
X44962855Y-84251826D01*
X44941181Y-84199500D01*
X44962855Y-84147174D01*
X45015181Y-84125500D01*
X45981710Y-84125500D01*
X46034036Y-84147174D01*
X46045793Y-84162496D01*
X46079520Y-84220913D01*
X46154087Y-84295480D01*
X46245413Y-84348207D01*
X46347270Y-84375499D01*
X46347271Y-84375500D01*
X46347273Y-84375500D01*
X46452729Y-84375500D01*
X46452729Y-84375499D01*
X46554587Y-84348207D01*
X46645913Y-84295480D01*
X46720480Y-84220913D01*
X46773207Y-84129587D01*
X46800499Y-84027729D01*
X46800500Y-84027729D01*
X46800500Y-83922271D01*
X46800499Y-83922270D01*
X46791741Y-83889586D01*
X46773207Y-83820413D01*
X46720480Y-83729087D01*
X46645913Y-83654520D01*
X46631005Y-83645913D01*
X46554591Y-83601795D01*
X46554582Y-83601791D01*
X46452729Y-83574500D01*
X46452727Y-83574500D01*
X46347273Y-83574500D01*
X46347271Y-83574500D01*
X46245417Y-83601791D01*
X46245408Y-83601795D01*
X46154084Y-83654521D01*
X46150238Y-83657473D01*
X46148869Y-83655688D01*
X46103455Y-83674500D01*
X44828082Y-83674500D01*
X44775756Y-83652826D01*
X44754082Y-83600500D01*
X44775756Y-83548174D01*
X45515333Y-82808597D01*
X45567659Y-82786923D01*
X46387593Y-82786923D01*
X46439919Y-82808597D01*
X46513225Y-82881903D01*
X46604551Y-82934630D01*
X46706408Y-82961922D01*
X46706409Y-82961923D01*
X46706411Y-82961923D01*
X46811867Y-82961923D01*
X46811867Y-82961922D01*
X46913725Y-82934630D01*
X47005051Y-82881903D01*
X47079618Y-82807336D01*
X47132345Y-82716010D01*
X47159637Y-82614152D01*
X47159638Y-82614152D01*
X47159638Y-82508694D01*
X47159637Y-82508693D01*
X47135074Y-82417023D01*
X47132345Y-82406836D01*
X47079618Y-82315510D01*
X47005051Y-82240943D01*
X46994752Y-82234997D01*
X46913729Y-82188218D01*
X46913720Y-82188214D01*
X46811867Y-82160923D01*
X46811865Y-82160923D01*
X46706411Y-82160923D01*
X46706409Y-82160923D01*
X46604555Y-82188214D01*
X46604546Y-82188218D01*
X46513224Y-82240943D01*
X46439919Y-82314249D01*
X46387593Y-82335923D01*
X45497077Y-82335923D01*
X45497069Y-82335922D01*
X45488457Y-82335922D01*
X45398748Y-82335922D01*
X45350196Y-82356031D01*
X45350197Y-82356032D01*
X45315869Y-82370251D01*
X45315867Y-82370252D01*
X45252432Y-82433687D01*
X40258872Y-87427246D01*
X40258871Y-87427247D01*
X40258830Y-87427289D01*
X40258830Y-87427290D01*
X40224499Y-87510170D01*
X39708734Y-87510170D01*
X43396730Y-83822173D01*
X43449056Y-83800500D01*
X43552729Y-83800500D01*
X43552729Y-83800499D01*
X43654587Y-83773207D01*
X43745913Y-83720480D01*
X43820480Y-83645913D01*
X43873207Y-83554587D01*
X43900499Y-83452729D01*
X43900500Y-83452729D01*
X43900500Y-83347271D01*
X43900499Y-83347270D01*
X43873208Y-83245417D01*
X43873207Y-83245413D01*
X43820480Y-83154087D01*
X43745913Y-83079520D01*
X43678796Y-83040770D01*
X43654591Y-83026795D01*
X43654582Y-83026791D01*
X43552729Y-82999500D01*
X43552727Y-82999500D01*
X43447273Y-82999500D01*
X43447271Y-82999500D01*
X43345417Y-83026791D01*
X43345408Y-83026795D01*
X43254086Y-83079520D01*
X43179520Y-83154086D01*
X43126795Y-83245408D01*
X43126791Y-83245417D01*
X43099500Y-83347270D01*
X43099500Y-83450942D01*
X43077826Y-83503268D01*
X38808830Y-87772264D01*
X38803197Y-87785863D01*
X38774499Y-87855144D01*
X38774499Y-87953466D01*
X38774500Y-87953475D01*
X38774500Y-90028455D01*
X38752826Y-90080781D01*
X38679520Y-90154086D01*
X38626795Y-90245408D01*
X38626791Y-90245417D01*
X38599500Y-90347270D01*
X34600500Y-90347270D01*
X34600500Y-86475834D01*
X34622174Y-86423508D01*
X36423508Y-84622174D01*
X36475834Y-84600500D01*
X37186256Y-84600500D01*
X37223256Y-84610414D01*
X37326112Y-84669798D01*
X37326114Y-84669799D01*
X37326115Y-84669799D01*
X37326117Y-84669800D01*
X37383402Y-84685149D01*
X37440688Y-84700499D01*
X37440689Y-84700500D01*
X37440691Y-84700500D01*
X37559311Y-84700500D01*
X37559311Y-84700499D01*
X37673886Y-84669799D01*
X37776613Y-84610489D01*
X37860489Y-84526613D01*
X37919799Y-84423886D01*
X37933667Y-84372130D01*
X37950540Y-84309161D01*
X37969690Y-84275990D01*
X43930469Y-78315212D01*
X43976614Y-78235288D01*
X44000499Y-78146146D01*
X44000500Y-78146146D01*
X44000500Y-74963743D01*
X44010414Y-74926743D01*
X44069798Y-74823887D01*
X44069799Y-74823886D01*
X44100499Y-74709311D01*
X44100500Y-74709311D01*
X44100500Y-74590689D01*
X44100499Y-74590688D01*
X44069800Y-74476117D01*
X44069798Y-74476112D01*
X44010491Y-74373390D01*
X44010490Y-74373389D01*
X44010489Y-74373387D01*
X43926613Y-74289511D01*
X43926610Y-74289509D01*
X43926609Y-74289508D01*
X43823887Y-74230201D01*
X43823882Y-74230199D01*
X43709311Y-74199500D01*
X43709309Y-74199500D01*
X43590691Y-74199500D01*
X43590689Y-74199500D01*
X43476117Y-74230199D01*
X43476112Y-74230201D01*
X43373390Y-74289508D01*
X43289508Y-74373390D01*
X43230201Y-74476112D01*
X43230199Y-74476117D01*
X43199500Y-74590688D01*
X43199500Y-74709311D01*
X43230199Y-74823882D01*
X43230201Y-74823887D01*
X43289586Y-74926743D01*
X43299500Y-74963743D01*
X43299500Y-77924166D01*
X43277826Y-77976492D01*
X37474009Y-83780308D01*
X37440836Y-83799460D01*
X37326117Y-83830199D01*
X37326112Y-83830201D01*
X37223256Y-83889586D01*
X37186256Y-83899500D01*
X36253854Y-83899500D01*
X36164715Y-83923384D01*
X36164710Y-83923386D01*
X36084787Y-83969530D01*
X33969530Y-86084787D01*
X33937388Y-86140460D01*
X33923386Y-86164710D01*
X33923384Y-86164715D01*
X33899500Y-86253853D01*
X33899500Y-93936256D01*
X33889586Y-93973256D01*
X33830201Y-94076112D01*
X33830199Y-94076117D01*
X33799500Y-94190688D01*
X31500500Y-94190688D01*
X31500500Y-87417253D01*
X31522173Y-87364928D01*
X31560489Y-87326613D01*
X31619799Y-87223886D01*
X31650499Y-87109311D01*
X31650500Y-87109311D01*
X31650500Y-86990689D01*
X31650499Y-86990688D01*
X31619800Y-86876117D01*
X31619798Y-86876112D01*
X31560491Y-86773390D01*
X31560490Y-86773389D01*
X31560489Y-86773387D01*
X31476613Y-86689511D01*
X31476610Y-86689509D01*
X31476609Y-86689508D01*
X31373887Y-86630201D01*
X31373882Y-86630199D01*
X31259311Y-86599500D01*
X31259309Y-86599500D01*
X31140691Y-86599500D01*
X31140689Y-86599500D01*
X31026117Y-86630199D01*
X31026112Y-86630201D01*
X30923390Y-86689508D01*
X30839508Y-86773390D01*
X30780201Y-86876112D01*
X30780199Y-86876117D01*
X30749500Y-86990688D01*
X20350500Y-86990688D01*
X20350500Y-80006152D01*
X29495217Y-80006152D01*
X29498744Y-80030627D01*
X29499500Y-80041179D01*
X29499500Y-80065894D01*
X29507718Y-80096569D01*
X29508857Y-80100822D01*
X29514012Y-80136592D01*
X29525833Y-80164176D01*
X29527206Y-80169300D01*
X29527208Y-80169304D01*
X29533607Y-80193185D01*
X29548619Y-80219187D01*
X29551684Y-80224495D01*
X29565924Y-80257721D01*
X29584484Y-80281308D01*
X29587137Y-80285903D01*
X29596771Y-80302588D01*
X29599500Y-80307314D01*
X29625061Y-80332875D01*
X29647418Y-80361287D01*
X29671458Y-80379272D01*
X29692686Y-80400500D01*
X29720189Y-80416378D01*
X29727509Y-80421205D01*
X29752940Y-80440231D01*
X29775894Y-80449412D01*
X29785409Y-80454033D01*
X29806806Y-80466388D01*
X29806811Y-80466390D01*
X29806814Y-80466392D01*
X29806815Y-80466392D01*
X29806817Y-80466393D01*
X29837490Y-80474612D01*
X29837491Y-80474612D01*
X29841735Y-80475749D01*
X29875298Y-80489174D01*
X29905108Y-80492729D01*
X29934108Y-80500500D01*
X29965859Y-80500500D01*
X29974622Y-80501020D01*
X30006155Y-80504782D01*
X30035874Y-80500500D01*
X30065892Y-80500500D01*
X30100811Y-80491143D01*
X30136592Y-80485988D01*
X30159313Y-80476250D01*
X30169292Y-80472794D01*
X30193186Y-80466392D01*
X30224495Y-80448315D01*
X30257721Y-80434076D01*
X30281313Y-80415511D01*
X30307314Y-80400500D01*
X30332875Y-80374938D01*
X30361287Y-80352582D01*
X30379272Y-80328541D01*
X30400500Y-80307314D01*
X30418575Y-80276005D01*
X30440231Y-80247060D01*
X30451380Y-80219187D01*
X30466392Y-80193186D01*
X30474610Y-80162509D01*
X30477378Y-80154189D01*
X50451379Y-30219188D01*
X50466392Y-30193186D01*
X50475749Y-30158263D01*
X50489174Y-30124702D01*
X50492102Y-30100142D01*
X50494099Y-30089776D01*
X50500500Y-30065892D01*
X50500500Y-30034141D01*
X50501021Y-30025376D01*
X50504782Y-29993847D01*
X50501256Y-29969371D01*
X50501256Y-29969370D01*
X50500500Y-29964123D01*
X50500500Y-29934108D01*
X50491143Y-29899188D01*
X50485988Y-29863408D01*
X50476252Y-29840690D01*
X50472791Y-29830694D01*
X50466393Y-29806817D01*
X50466391Y-29806812D01*
X50450514Y-29779312D01*
X50450514Y-29779311D01*
X50448312Y-29775497D01*
X50434076Y-29742279D01*
X50415511Y-29718686D01*
X50400500Y-29692686D01*
X50378048Y-29670234D01*
X50372220Y-29663670D01*
X50352582Y-29638713D01*
X50328541Y-29620727D01*
X50307314Y-29599500D01*
X50276012Y-29581428D01*
X50272486Y-29578790D01*
X50247062Y-29559770D01*
X50247060Y-29559769D01*
X50224110Y-29550589D01*
X50214600Y-29545971D01*
X50193185Y-29533607D01*
X50162512Y-29525387D01*
X50162512Y-29525388D01*
X50158262Y-29524249D01*
X50124702Y-29510826D01*
X50094892Y-29507270D01*
X50089771Y-29505898D01*
X50089770Y-29505897D01*
X50065892Y-29499500D01*
X50034141Y-29499500D01*
X50025377Y-29498979D01*
X50017666Y-29498059D01*
X49993848Y-29495218D01*
X49993846Y-29495218D01*
X49993845Y-29495218D01*
X49969373Y-29498744D01*
X49958821Y-29499500D01*
X39682708Y-29499500D01*
X39049289Y-29537814D01*
X39049285Y-29537814D01*
X38419346Y-29614301D01*
X37795143Y-29728691D01*
X37795138Y-29728692D01*
X37795126Y-29728695D01*
X37178989Y-29880559D01*
X37178972Y-29880564D01*
X36573141Y-30069348D01*
X35979811Y-30294369D01*
X35401130Y-30554811D01*
X34839220Y-30849725D01*
X34296168Y-31178010D01*
X33773915Y-31538496D01*
X33274380Y-31929856D01*
X33274372Y-31929863D01*
X32799388Y-32350661D01*
X32350661Y-32799388D01*
X31929863Y-33274372D01*
X31929856Y-33274380D01*
X31538496Y-33773915D01*
X31178010Y-34296168D01*
X30849725Y-34839220D01*
X30554811Y-35401130D01*
X30294369Y-35979811D01*
X30069348Y-36573141D01*
X29880564Y-37178972D01*
X29880559Y-37178989D01*
X29728695Y-37795126D01*
X29728691Y-37795143D01*
X29614301Y-38419346D01*
X29537814Y-39049285D01*
X29537814Y-39049289D01*
X29499500Y-39682708D01*
X29499500Y-79965857D01*
X29498979Y-79974622D01*
X29495217Y-80006152D01*
X20350500Y-80006152D01*
X20350500Y-68149587D01*
X20372174Y-68097261D01*
X20401630Y-68079210D01*
X20441639Y-68066211D01*
X20602994Y-67983996D01*
X20749501Y-67877553D01*
X20877553Y-67749501D01*
X20983996Y-67602994D01*
X21066211Y-67441639D01*
X21122171Y-67269409D01*
X21150500Y-67090546D01*
X21150500Y-66909454D01*
X21122171Y-66730591D01*
X21122169Y-66730586D01*
X21122168Y-66730580D01*
X21066212Y-66558364D01*
X21066211Y-66558363D01*
X21066211Y-66558361D01*
X20983996Y-66397006D01*
X20877553Y-66250499D01*
X20749501Y-66122447D01*
X20664128Y-66060420D01*
X20602996Y-66016005D01*
X20441635Y-65933787D01*
X20441636Y-65933787D01*
X20269419Y-65877831D01*
X20269406Y-65877828D01*
X20090547Y-65849500D01*
X20090546Y-65849500D01*
X19909454Y-65849500D01*
X19909453Y-65849500D01*
X19730593Y-65877828D01*
X19730580Y-65877831D01*
X19558364Y-65933787D01*
X19397004Y-66016005D01*
X19397003Y-66016005D01*
X19250503Y-66122444D01*
X19250499Y-66122447D01*
X19122447Y-66250499D01*
X19122444Y-66250502D01*
X19122444Y-66250503D01*
X19016005Y-66397003D01*
X19016005Y-66397004D01*
X18933787Y-66558364D01*
X18877831Y-66730580D01*
X18877828Y-66730593D01*
X18849500Y-66909453D01*
X500500Y-66909453D01*
X500500Y-57173862D01*
X4293389Y-57173862D01*
X4293389Y-57173863D01*
X4302389Y-57343371D01*
X4302390Y-57343374D01*
X4348770Y-57510170D01*
X4433624Y-57668285D01*
X4470531Y-57716255D01*
X4470533Y-57716257D01*
X4470534Y-57716258D01*
X4576263Y-57819403D01*
X4700329Y-57905912D01*
X4826983Y-57963950D01*
X4862432Y-57973258D01*
X4862440Y-57973260D01*
X4921900Y-57980640D01*
X4971436Y-57986789D01*
X5110944Y-57988222D01*
X5151398Y-57986756D01*
X5237841Y-57980640D01*
X5237845Y-57980639D01*
X5237862Y-57980638D01*
X5303569Y-57968383D01*
X5303573Y-57968381D01*
X5303575Y-57968381D01*
X5364274Y-57946216D01*
X5364274Y-57946215D01*
X5364282Y-57946213D01*
X5435765Y-57910347D01*
X5557321Y-57832583D01*
X5684221Y-57710583D01*
X5775614Y-57565624D01*
X5831030Y-57398499D01*
X5850000Y-57210000D01*
X5850017Y-57200829D01*
X5850016Y-57200827D01*
X5850017Y-57200806D01*
X5847829Y-57105835D01*
X5847829Y-57105832D01*
X5838756Y-57034304D01*
X5819286Y-56968824D01*
X5798868Y-56921808D01*
X5785914Y-56891977D01*
X5785911Y-56891973D01*
X5785910Y-56891969D01*
X5696058Y-56743295D01*
X5577564Y-56618170D01*
X5532746Y-56587729D01*
X5438689Y-56523844D01*
X5438678Y-56523839D01*
X5285043Y-56461884D01*
X5285035Y-56461882D01*
X5122248Y-56433874D01*
X5122247Y-56433874D01*
X5039087Y-56437630D01*
X4955927Y-56441387D01*
X4955924Y-56441387D01*
X4791700Y-56485997D01*
X4635181Y-56569286D01*
X4609328Y-56587722D01*
X4609322Y-56587727D01*
X4609320Y-56587729D01*
X4568552Y-56625740D01*
X4479732Y-56708554D01*
X4383150Y-56850491D01*
X4320674Y-57007573D01*
X4293389Y-57173862D01*
X500500Y-57173862D01*
X500500Y-55588403D01*
X2604506Y-55588403D01*
X2608004Y-55714762D01*
X2608004Y-55714763D01*
X2636172Y-55792429D01*
X2649318Y-55828675D01*
X2725437Y-55923920D01*
X2833346Y-55994270D01*
X2849150Y-56001213D01*
X2849158Y-56001215D01*
X2849159Y-56001216D01*
X2860236Y-56004775D01*
X2929866Y-56027150D01*
X3007970Y-56032374D01*
X3089792Y-56014852D01*
X3181661Y-55972550D01*
X3289905Y-55903432D01*
X3420855Y-55805467D01*
X3428184Y-55799791D01*
X3437694Y-55792429D01*
X3441841Y-55789441D01*
X3686897Y-55625443D01*
X3694351Y-55621064D01*
X3964821Y-55482811D01*
X3972246Y-55479517D01*
X4261105Y-55369957D01*
X4268863Y-55367493D01*
X4568821Y-55290188D01*
X4573902Y-55289069D01*
X4587832Y-55286511D01*
X4592246Y-55285838D01*
X4705714Y-55272032D01*
X4710112Y-55271631D01*
X4852253Y-55262998D01*
X4855078Y-55262882D01*
X5014435Y-55259482D01*
X5016782Y-55259471D01*
X5180886Y-55261295D01*
X5183235Y-55261359D01*
X5339962Y-55268302D01*
X5342979Y-55268500D01*
X5479559Y-55280329D01*
X5484560Y-55280936D01*
X5590089Y-55297411D01*
X5594351Y-55298206D01*
X5599953Y-55299425D01*
X5603863Y-55300389D01*
X5927715Y-55389713D01*
X5935824Y-55392466D01*
X6179466Y-55491285D01*
X6234334Y-55513539D01*
X6242430Y-55517409D01*
X6524199Y-55673789D01*
X6531436Y-55678374D01*
X6806085Y-55875539D01*
X6806521Y-55875856D01*
X6905635Y-55948571D01*
X6966737Y-55981343D01*
X7007469Y-56003189D01*
X7007470Y-56003189D01*
X7007473Y-56003191D01*
X7101311Y-56027639D01*
X7195069Y-56024955D01*
X7256978Y-56010108D01*
X7366094Y-55954793D01*
X7451315Y-55870850D01*
X7506760Y-55765037D01*
X7526549Y-55644110D01*
X7521639Y-55562354D01*
X7503692Y-55491284D01*
X7468071Y-55424899D01*
X7468067Y-55424894D01*
X7468066Y-55424892D01*
X7410143Y-55356534D01*
X7410132Y-55356523D01*
X7325281Y-55279529D01*
X7325262Y-55279512D01*
X7325258Y-55279509D01*
X7325255Y-55279506D01*
X7208784Y-55187161D01*
X7208754Y-55187137D01*
X7150129Y-55143275D01*
X7150118Y-55143268D01*
X6825970Y-54931802D01*
X6825968Y-54931801D01*
X6825965Y-54931799D01*
X6656193Y-54845916D01*
X6482182Y-54757889D01*
X6118978Y-54621635D01*
X6118976Y-54621634D01*
X6118975Y-54621634D01*
X5736531Y-54523117D01*
X5736524Y-54523115D01*
X5736510Y-54523112D01*
X5696543Y-54515200D01*
X5642276Y-54505740D01*
X5613034Y-54500643D01*
X5531533Y-54490157D01*
X5531522Y-54490156D01*
X5531503Y-54490154D01*
X5443152Y-54483144D01*
X5338978Y-54479010D01*
X5210266Y-54477163D01*
X5168985Y-54477123D01*
X5047984Y-54477008D01*
X5047967Y-54477008D01*
X5047896Y-54477008D01*
X4975333Y-54477299D01*
X4975250Y-54477299D01*
X4975224Y-54477300D01*
X4828206Y-54478894D01*
X4828175Y-54478894D01*
X4828164Y-54478895D01*
X4711242Y-54482259D01*
X4615600Y-54488025D01*
X4532662Y-54496815D01*
X4532621Y-54496820D01*
X4453712Y-54509259D01*
X4370098Y-54525980D01*
X4144423Y-54581482D01*
X3777026Y-54705011D01*
X3777004Y-54705019D01*
X3426267Y-54866782D01*
X3088423Y-55068377D01*
X2987961Y-55136946D01*
X2856844Y-55233649D01*
X2856835Y-55233657D01*
X2757680Y-55318455D01*
X2686638Y-55395173D01*
X2686631Y-55395182D01*
X2639833Y-55467657D01*
X2639831Y-55467662D01*
X2613401Y-55539740D01*
X2613401Y-55539742D01*
X2604507Y-55588400D01*
X2604506Y-55588403D01*
X500500Y-55588403D01*
X500500Y-54303935D01*
X1140069Y-54303935D01*
X1140069Y-54303936D01*
X1142673Y-54358717D01*
X1172473Y-54477424D01*
X1193602Y-54509260D01*
X1237766Y-54575804D01*
X1341320Y-54658734D01*
X1342000Y-54659154D01*
X1418175Y-54687278D01*
X1514507Y-54697802D01*
X1612670Y-54690412D01*
X1694338Y-54664794D01*
X1695555Y-54664152D01*
X1737473Y-54636171D01*
X1801776Y-54586719D01*
X1879926Y-54522594D01*
X1963386Y-54450595D01*
X1986358Y-54430519D01*
X1988562Y-54428667D01*
X2151536Y-54297056D01*
X2161066Y-54289359D01*
X2164094Y-54287041D01*
X2361845Y-54143665D01*
X2364456Y-54141857D01*
X2575225Y-54002570D01*
X2577898Y-54000886D01*
X2788470Y-53874482D01*
X2791754Y-53872624D01*
X2989518Y-53767431D01*
X2992891Y-53765748D01*
X3077161Y-53726396D01*
X3106890Y-53712514D01*
X3109728Y-53711261D01*
X3323550Y-53622130D01*
X3326413Y-53621008D01*
X3553437Y-53537615D01*
X3556296Y-53536632D01*
X3779939Y-53464914D01*
X3783482Y-53463874D01*
X3987614Y-53409548D01*
X3991126Y-53408706D01*
X4135833Y-53377809D01*
X4140439Y-53376979D01*
X4563229Y-53314713D01*
X4569967Y-53314035D01*
X4997921Y-53290838D01*
X5004582Y-53290779D01*
X5433721Y-53306198D01*
X5440313Y-53306732D01*
X5865598Y-53360444D01*
X5872224Y-53361589D01*
X6288529Y-53453231D01*
X6295243Y-53455044D01*
X6698293Y-53584471D01*
X6703534Y-53586376D01*
X6896561Y-53664941D01*
X6900545Y-53666703D01*
X7182776Y-53801666D01*
X7186893Y-53803796D01*
X7465216Y-53959076D01*
X7469079Y-53961389D01*
X7469883Y-53961904D01*
X7733882Y-54131112D01*
X7737874Y-54133859D01*
X7862619Y-54225864D01*
X7968470Y-54303934D01*
X7979224Y-54311865D01*
X7983713Y-54315454D01*
X8052977Y-54375379D01*
X8193497Y-54496953D01*
X8195345Y-54498606D01*
X8246208Y-54545686D01*
X8336373Y-54619568D01*
X8414355Y-54666504D01*
X8488955Y-54691209D01*
X8568973Y-54698396D01*
X8568974Y-54698395D01*
X8568975Y-54698396D01*
X8586805Y-54697238D01*
X8631388Y-54694343D01*
X8753289Y-54659310D01*
X8853121Y-54591731D01*
X8925824Y-54495716D01*
X8966339Y-54375380D01*
X8972331Y-54297056D01*
X8959827Y-54219258D01*
X8930988Y-54152824D01*
X8925516Y-54140218D01*
X8900125Y-54103903D01*
X8866496Y-54055807D01*
X8779871Y-53961904D01*
X8779870Y-53961903D01*
X8779863Y-53961896D01*
X8662758Y-53854397D01*
X8662749Y-53854389D01*
X8662743Y-53854384D01*
X8512212Y-53729121D01*
X8427675Y-53662688D01*
X8396009Y-53637803D01*
X7997371Y-53357903D01*
X7997361Y-53357896D01*
X7583288Y-53117437D01*
X7583261Y-53117423D01*
X7291344Y-52980815D01*
X7153013Y-52916081D01*
X6705891Y-52753556D01*
X6241205Y-52629552D01*
X6241206Y-52629552D01*
X6241198Y-52629550D01*
X5758240Y-52543765D01*
X5650797Y-52531847D01*
X5485389Y-52519936D01*
X5299233Y-52511962D01*
X5119120Y-52508330D01*
X5102748Y-52508000D01*
X5102747Y-52508000D01*
X4906457Y-52508130D01*
X4720858Y-52512428D01*
X4556433Y-52520974D01*
X4423646Y-52533845D01*
X4423622Y-52533848D01*
X3955866Y-52612753D01*
X3491106Y-52728427D01*
X3491094Y-52728430D01*
X3048071Y-52879212D01*
X3048062Y-52879216D01*
X2624223Y-53066239D01*
X2217013Y-53290638D01*
X2217007Y-53290641D01*
X1823878Y-53553545D01*
X1823868Y-53553552D01*
X1442277Y-53856085D01*
X1442266Y-53856094D01*
X1390316Y-53901336D01*
X1288976Y-53996813D01*
X1217497Y-54078557D01*
X1171665Y-54152824D01*
X1171664Y-54152826D01*
X1147264Y-54225859D01*
X1140069Y-54303935D01*
X500500Y-54303935D01*
X500500Y-42485628D01*
X1891902Y-42485628D01*
X1891902Y-42485629D01*
X1910739Y-42486894D01*
X1967940Y-42488128D01*
X1967992Y-42488128D01*
X1968009Y-42488129D01*
X2025512Y-42488832D01*
X2059402Y-42489247D01*
X2180984Y-42490224D01*
X2328544Y-42491031D01*
X2497942Y-42491641D01*
X2685037Y-42492027D01*
X2885688Y-42492162D01*
X2885713Y-42492162D01*
X3879475Y-42492162D01*
X3944225Y-42300427D01*
X3952868Y-42274833D01*
X3954078Y-42271246D01*
X3954090Y-42271213D01*
X3954090Y-42271211D01*
X3963013Y-42244809D01*
X3969653Y-42225159D01*
X3971019Y-42221118D01*
X4000609Y-42133579D01*
X4017861Y-42082550D01*
X4042048Y-42011006D01*
X4042048Y-42011005D01*
X4094520Y-41855803D01*
X4094520Y-41855802D01*
X4157211Y-41670382D01*
X4157211Y-41670381D01*
X4158444Y-41666736D01*
X4229307Y-41457151D01*
X4309993Y-41218518D01*
X4398456Y-40956893D01*
X4417970Y-40899180D01*
X4493879Y-40674685D01*
X4493879Y-40674684D01*
X4595450Y-40374300D01*
X4598479Y-40365343D01*
X4635772Y-40255052D01*
X4673064Y-40212427D01*
X4729575Y-40208656D01*
X4772202Y-40245949D01*
X4778013Y-40293912D01*
X4778083Y-40293922D01*
X4778046Y-40294180D01*
X4778118Y-40294773D01*
X4777682Y-40296738D01*
X4771988Y-40336751D01*
X4777060Y-40379290D01*
X4777062Y-40379298D01*
X4794148Y-40436745D01*
X4794154Y-40436765D01*
X4794159Y-40436780D01*
X4823623Y-40519074D01*
X4824282Y-40520913D01*
X4824796Y-40522400D01*
X4848321Y-40592831D01*
X4856463Y-40617205D01*
X4858570Y-40624855D01*
X4862768Y-40644071D01*
X4852761Y-40699817D01*
X4811881Y-40730701D01*
X4799102Y-40734563D01*
X4795449Y-40735565D01*
X4730660Y-40751578D01*
X4729080Y-40751951D01*
X4616593Y-40777147D01*
X4616592Y-40777148D01*
X4601700Y-40821283D01*
X4572679Y-40907290D01*
X4558671Y-40951180D01*
X4558672Y-40951181D01*
X4552063Y-40971889D01*
X4535222Y-41032559D01*
X4535219Y-41032569D01*
X4528757Y-41067208D01*
X4533639Y-41086755D01*
X4533645Y-41086775D01*
X4551363Y-41142938D01*
X4580388Y-41230048D01*
X4619194Y-41343651D01*
X4666031Y-41478635D01*
X4682159Y-41524561D01*
X4705864Y-41592063D01*
X4719459Y-41630774D01*
X4725362Y-41647407D01*
X4725362Y-41647409D01*
X4725363Y-41647409D01*
X4741910Y-41694035D01*
X4741909Y-41694035D01*
X4772993Y-41781620D01*
X4777585Y-41794559D01*
X5026413Y-42492162D01*
X5026414Y-42492162D01*
X6739388Y-42492162D01*
X6739401Y-42492162D01*
X7051459Y-42492048D01*
X7332831Y-42491673D01*
X7430994Y-42491401D01*
X7576428Y-42491000D01*
X7784196Y-42489995D01*
X7802705Y-42489849D01*
X7958994Y-42488618D01*
X8102695Y-42486837D01*
X8217704Y-42484616D01*
X8306308Y-42481920D01*
X8370799Y-42478711D01*
X8413465Y-42474955D01*
X8436596Y-42470616D01*
X8442482Y-42465659D01*
X8440183Y-42459375D01*
X8425102Y-42417947D01*
X8396715Y-42339893D01*
X8392046Y-42327051D01*
X8355810Y-42227375D01*
X8355809Y-42227372D01*
X8303169Y-42082553D01*
X8303168Y-42082550D01*
X8270541Y-41992776D01*
X8239581Y-41907588D01*
X8165828Y-41704642D01*
X8163968Y-41699524D01*
X8114435Y-41563214D01*
X8082697Y-41475875D01*
X7990973Y-41223449D01*
X7989181Y-41218518D01*
X7891441Y-40949524D01*
X7891441Y-40949523D01*
X7827879Y-40774586D01*
X7784887Y-40656263D01*
X7672095Y-40345825D01*
X7671426Y-40343985D01*
X7553852Y-40020371D01*
X7430942Y-39682064D01*
X7430942Y-39682063D01*
X7382131Y-39547709D01*
X7304150Y-39333063D01*
X7240647Y-39158300D01*
X7116299Y-38816289D01*
X7115682Y-38814591D01*
X7115682Y-38814590D01*
X6994954Y-38482803D01*
X6994954Y-38482804D01*
X6994951Y-38482795D01*
X6879232Y-38165037D01*
X6769315Y-37863476D01*
X6665987Y-37580264D01*
X6570034Y-37317551D01*
X6482244Y-37077489D01*
X6403404Y-36862229D01*
X6334300Y-36673920D01*
X6275720Y-36514716D01*
X6253378Y-36454242D01*
X6228478Y-36386844D01*
X6195469Y-36298118D01*
X6193276Y-36292222D01*
X6170987Y-36233234D01*
X6162369Y-36211955D01*
X6162368Y-36211955D01*
X6162368Y-36211954D01*
X6161790Y-36212212D01*
X6150963Y-36236633D01*
X6150956Y-36236650D01*
X6127831Y-36298118D01*
X6093459Y-36393605D01*
X6052676Y-36509323D01*
X6014842Y-36551469D01*
X5958286Y-36554517D01*
X5916140Y-36516683D01*
X5912627Y-36461488D01*
X5961531Y-36313635D01*
X5961556Y-36313560D01*
X6003563Y-36185638D01*
X6034192Y-36091174D01*
X6044463Y-36058551D01*
X6052707Y-36032367D01*
X6058319Y-36011584D01*
X6042053Y-36022089D01*
X6042052Y-36022090D01*
X6003345Y-36058551D01*
X5948183Y-36115194D01*
X5882405Y-36186223D01*
X5860212Y-36210432D01*
X5859105Y-36211613D01*
X5752841Y-36322549D01*
X5751685Y-36323727D01*
X5681600Y-36393654D01*
X5621683Y-36453435D01*
X5620861Y-36454242D01*
X5474067Y-36596208D01*
X5473393Y-36596852D01*
X5317151Y-36744194D01*
X5316515Y-36744787D01*
X5158038Y-36890756D01*
X5157349Y-36891382D01*
X5004013Y-37029090D01*
X5003155Y-37029849D01*
X4862145Y-37152597D01*
X4860890Y-37153665D01*
X4739698Y-37254508D01*
X4737726Y-37256092D01*
X4555145Y-37397742D01*
X4552108Y-37399977D01*
X4166842Y-37668590D01*
X4162782Y-37671228D01*
X3759396Y-37914906D01*
X3757367Y-37916088D01*
X3744621Y-37923245D01*
X3654010Y-37975921D01*
X3577731Y-38023243D01*
X3523420Y-38060305D01*
X3523415Y-38060309D01*
X3498743Y-38082187D01*
X3498742Y-38082188D01*
X3495237Y-38090707D01*
X3478401Y-38135086D01*
X3467251Y-38165037D01*
X3448962Y-38214161D01*
X3408005Y-38324946D01*
X3356678Y-38464301D01*
X3349879Y-38482804D01*
X3296107Y-38629137D01*
X3296106Y-38629136D01*
X3227451Y-38816275D01*
X3227452Y-38816276D01*
X3151809Y-39022716D01*
X3070346Y-39245248D01*
X3070347Y-39245249D01*
X2984178Y-39480830D01*
X2984176Y-39480839D01*
X2894443Y-39726341D01*
X2802279Y-39978655D01*
X2778282Y-40044389D01*
X2708820Y-40234664D01*
X2708818Y-40234672D01*
X2686174Y-40296738D01*
X2615196Y-40491278D01*
X2615194Y-40491285D01*
X2522543Y-40745384D01*
X2431997Y-40993862D01*
X2344691Y-41233610D01*
X2342289Y-41240211D01*
X2261763Y-41461509D01*
X2261764Y-41461510D01*
X2184342Y-41674471D01*
X2184338Y-41674484D01*
X2165784Y-41725578D01*
X2113563Y-41869376D01*
X2113558Y-41869393D01*
X2050556Y-42043139D01*
X2036294Y-42082550D01*
X1996452Y-42192648D01*
X1952398Y-42314769D01*
X1919505Y-42406453D01*
X1899009Y-42464307D01*
X1891902Y-42485628D01*
X500500Y-42485628D01*
X500500Y-40000589D01*
X500509Y-39999427D01*
X502940Y-39844650D01*
X519973Y-38760407D01*
X520043Y-38758177D01*
X578389Y-37520943D01*
X578534Y-37518645D01*
X675711Y-36283888D01*
X675924Y-36281637D01*
X811842Y-35050509D01*
X812118Y-35048321D01*
X986648Y-33822010D01*
X986997Y-33819808D01*
X1199958Y-32599602D01*
X1200371Y-32597438D01*
X1451543Y-31384575D01*
X1452046Y-31382325D01*
X1501097Y-31178015D01*
X1741180Y-30177993D01*
X1741754Y-30175758D01*
X1747657Y-30154180D01*
X2068582Y-28981078D01*
X2069203Y-28978938D01*
X2433419Y-27795033D01*
X2434110Y-27792910D01*
X2835318Y-26621076D01*
X2836066Y-26618998D01*
X3273888Y-25460336D01*
X3274739Y-25458189D01*
X3748731Y-24313869D01*
X3749601Y-24311859D01*
X4259329Y-23182936D01*
X4260279Y-23180919D01*
X4805186Y-22068626D01*
X4806202Y-22066629D01*
X5385791Y-20971976D01*
X5386902Y-20969957D01*
X5464853Y-20833295D01*
X6000564Y-19894092D01*
X6001736Y-19892113D01*
X6648888Y-18836057D01*
X6650058Y-18834213D01*
X6927646Y-18411626D01*
X20506400Y-18411626D01*
X20506400Y-19190000D01*
X21020874Y-19190000D01*
X21012000Y-19223120D01*
X21012000Y-19356880D01*
X21020874Y-19390000D01*
X20506401Y-19390000D01*
X20506401Y-20168378D01*
X20515101Y-20212124D01*
X20548255Y-20261743D01*
X20548256Y-20261744D01*
X20597872Y-20294896D01*
X20641626Y-20303599D01*
X21420000Y-20303599D01*
X21420000Y-19789125D01*
X21453120Y-19798000D01*
X21586880Y-19798000D01*
X21620000Y-19789125D01*
X21620000Y-20303599D01*
X22398379Y-20303599D01*
X22442124Y-20294898D01*
X22491743Y-20261744D01*
X22491744Y-20261743D01*
X22524896Y-20212127D01*
X22533600Y-20168373D01*
X22533600Y-19390000D01*
X22019126Y-19390000D01*
X22028000Y-19356880D01*
X22028000Y-19223120D01*
X22019126Y-19190000D01*
X22533599Y-19190000D01*
X22533599Y-18411621D01*
X22524898Y-18367875D01*
X22491744Y-18318256D01*
X22491743Y-18318255D01*
X22442127Y-18285103D01*
X22398373Y-18276400D01*
X21620000Y-18276400D01*
X21620000Y-18790874D01*
X21586880Y-18782000D01*
X21453120Y-18782000D01*
X21420000Y-18790874D01*
X21420000Y-18276400D01*
X20641629Y-18276400D01*
X20597873Y-18285103D01*
X20548256Y-18318255D01*
X20548255Y-18318256D01*
X20515103Y-18367872D01*
X20506400Y-18411626D01*
X6927646Y-18411626D01*
X7330133Y-17798897D01*
X7331380Y-17797063D01*
X8043570Y-16783719D01*
X8044906Y-16781879D01*
X8143833Y-16650120D01*
X20505900Y-16650120D01*
X20505900Y-16849879D01*
X20544869Y-17045795D01*
X20544872Y-17045806D01*
X20621314Y-17230354D01*
X20621315Y-17230355D01*
X20621316Y-17230357D01*
X20732297Y-17396451D01*
X20873549Y-17537703D01*
X21039643Y-17648684D01*
X21224198Y-17725129D01*
X21420120Y-17764100D01*
X21420121Y-17764100D01*
X21619879Y-17764100D01*
X21619880Y-17764100D01*
X21815802Y-17725129D01*
X22000357Y-17648684D01*
X22166451Y-17537703D01*
X22307703Y-17396451D01*
X22418684Y-17230357D01*
X22495129Y-17045802D01*
X22534100Y-16849880D01*
X22534100Y-16650120D01*
X23045900Y-16650120D01*
X23045900Y-16849879D01*
X23084869Y-17045795D01*
X23084872Y-17045806D01*
X23161314Y-17230354D01*
X23161315Y-17230355D01*
X23161316Y-17230357D01*
X23272297Y-17396451D01*
X23413549Y-17537703D01*
X23579643Y-17648684D01*
X23764198Y-17725129D01*
X23960120Y-17764100D01*
X23960121Y-17764100D01*
X24159879Y-17764100D01*
X24159880Y-17764100D01*
X24355802Y-17725129D01*
X24540357Y-17648684D01*
X24549459Y-17642601D01*
X24605007Y-17631552D01*
X24642898Y-17651804D01*
X25102826Y-18111731D01*
X25124500Y-18164057D01*
X25124500Y-18837935D01*
X25102826Y-18890261D01*
X25050500Y-18911935D01*
X24998174Y-18890261D01*
X24982133Y-18866254D01*
X24958684Y-18809643D01*
X24847705Y-18643552D01*
X24847703Y-18643549D01*
X24706451Y-18502297D01*
X24570745Y-18411621D01*
X24540354Y-18391314D01*
X24355806Y-18314872D01*
X24355795Y-18314869D01*
X24206147Y-18285103D01*
X24159880Y-18275900D01*
X23960120Y-18275900D01*
X23921362Y-18283609D01*
X23764204Y-18314869D01*
X23764193Y-18314872D01*
X23579645Y-18391314D01*
X23413552Y-18502294D01*
X23272294Y-18643552D01*
X23161314Y-18809645D01*
X23084872Y-18994193D01*
X23084869Y-18994204D01*
X23045900Y-19190120D01*
X23045900Y-19389879D01*
X23084869Y-19585795D01*
X23084872Y-19585806D01*
X23161314Y-19770354D01*
X23161315Y-19770356D01*
X23161316Y-19770357D01*
X23272297Y-19936451D01*
X23413549Y-20077703D01*
X23579643Y-20188684D01*
X23579644Y-20188684D01*
X23579645Y-20188685D01*
X23687281Y-20233269D01*
X23764198Y-20265129D01*
X23906989Y-20293531D01*
X23944877Y-20313782D01*
X25558829Y-21927734D01*
X25558830Y-21927736D01*
X25622264Y-21991170D01*
X25646539Y-22001225D01*
X25705145Y-22025501D01*
X25705146Y-22025501D01*
X25803467Y-22025501D01*
X25803475Y-22025500D01*
X44475943Y-22025500D01*
X44528269Y-22047174D01*
X51502826Y-29021731D01*
X51524500Y-29074057D01*
X51524500Y-45328455D01*
X51502826Y-45380781D01*
X51429520Y-45454086D01*
X51376795Y-45545408D01*
X51376791Y-45545417D01*
X51349500Y-45647270D01*
X51349500Y-45752729D01*
X51376791Y-45854582D01*
X51376795Y-45854591D01*
X51429520Y-45945913D01*
X51502826Y-46019219D01*
X51524500Y-46071545D01*
X51524500Y-72625943D01*
X51502826Y-72678269D01*
X40278269Y-83902826D01*
X40225943Y-83924500D01*
X39521545Y-83924500D01*
X39469219Y-83902826D01*
X39395913Y-83829520D01*
X39304591Y-83776795D01*
X39304582Y-83776791D01*
X39202729Y-83749500D01*
X39202727Y-83749500D01*
X39097273Y-83749500D01*
X39097271Y-83749500D01*
X38995417Y-83776791D01*
X38995408Y-83776795D01*
X38904086Y-83829520D01*
X38829520Y-83904086D01*
X38776795Y-83995408D01*
X38776791Y-83995417D01*
X38749500Y-84097270D01*
X38749500Y-84202729D01*
X38776791Y-84304582D01*
X38776795Y-84304591D01*
X38813701Y-84368514D01*
X38829520Y-84395913D01*
X38904087Y-84470480D01*
X38995413Y-84523207D01*
X39097270Y-84550499D01*
X39097271Y-84550500D01*
X39097273Y-84550500D01*
X39202729Y-84550500D01*
X39202729Y-84550499D01*
X39279417Y-84529951D01*
X39335570Y-84537343D01*
X39370048Y-84582276D01*
X39370049Y-84620581D01*
X39349500Y-84697273D01*
X39349500Y-84802729D01*
X39376791Y-84904582D01*
X39376795Y-84904591D01*
X39397722Y-84940838D01*
X39429520Y-84995913D01*
X39504087Y-85070480D01*
X39595413Y-85123207D01*
X39697270Y-85150499D01*
X39697271Y-85150500D01*
X39697273Y-85150500D01*
X39802729Y-85150500D01*
X39802729Y-85150499D01*
X39904587Y-85123207D01*
X39995913Y-85070480D01*
X40070480Y-84995913D01*
X40123207Y-84904587D01*
X40150499Y-84802729D01*
X40150500Y-84802729D01*
X40150500Y-84799500D01*
X40151123Y-84797995D01*
X40151133Y-84797920D01*
X40151153Y-84797922D01*
X40172174Y-84747174D01*
X40224500Y-84725500D01*
X40441499Y-84725500D01*
X40441507Y-84725501D01*
X40450119Y-84725501D01*
X40539828Y-84725501D01*
X40539829Y-84725501D01*
X40600185Y-84700500D01*
X40622710Y-84691170D01*
X40686144Y-84627736D01*
X40686144Y-84627735D01*
X40696549Y-84617330D01*
X40696551Y-84617327D01*
X52417327Y-72896551D01*
X52417330Y-72896549D01*
X52427735Y-72886144D01*
X52427736Y-72886144D01*
X52491170Y-72822710D01*
X52514404Y-72766618D01*
X52514411Y-72766603D01*
X52525501Y-72739829D01*
X52525501Y-72644161D01*
X52525500Y-72644147D01*
X52525500Y-47221545D01*
X52547174Y-47169219D01*
X52620480Y-47095913D01*
X52673207Y-47004587D01*
X52700499Y-46902729D01*
X52700500Y-46902729D01*
X52700500Y-46797271D01*
X52700499Y-46797270D01*
X52673208Y-46695417D01*
X52673207Y-46695413D01*
X52620480Y-46604087D01*
X52547174Y-46530781D01*
X52525500Y-46478455D01*
X52525500Y-28955145D01*
X52525499Y-28955143D01*
X52491171Y-28872266D01*
X52491169Y-28872263D01*
X52427735Y-28808829D01*
X44951578Y-21332673D01*
X44951578Y-21332672D01*
X44877738Y-21258832D01*
X44877736Y-21258830D01*
X44853460Y-21248774D01*
X44853458Y-21248773D01*
X44853458Y-21248772D01*
X44794855Y-21224499D01*
X44705145Y-21224499D01*
X44696533Y-21224499D01*
X44696525Y-21224500D01*
X26019031Y-21224500D01*
X25966705Y-21202826D01*
X25597174Y-20833295D01*
X25575500Y-20780969D01*
X25575500Y-19826005D01*
X25597174Y-19773679D01*
X25649500Y-19752005D01*
X25701826Y-19773679D01*
X25711027Y-19784890D01*
X25812297Y-19936451D01*
X25953549Y-20077703D01*
X26119643Y-20188684D01*
X26119644Y-20188684D01*
X26119645Y-20188685D01*
X26227281Y-20233269D01*
X26304198Y-20265129D01*
X26500120Y-20304100D01*
X26500121Y-20304100D01*
X26699879Y-20304100D01*
X26699880Y-20304100D01*
X26895802Y-20265129D01*
X27080357Y-20188684D01*
X27246451Y-20077703D01*
X27387703Y-19936451D01*
X27498684Y-19770357D01*
X27575129Y-19585802D01*
X27614100Y-19389880D01*
X27614100Y-19190120D01*
X27575129Y-18994198D01*
X27510403Y-18837935D01*
X27498684Y-18809642D01*
X27492601Y-18800539D01*
X27481551Y-18744991D01*
X27501801Y-18707102D01*
X27761731Y-18447174D01*
X27814057Y-18425500D01*
X43125943Y-18425500D01*
X43178269Y-18447174D01*
X54352826Y-29621731D01*
X54374500Y-29674057D01*
X54374500Y-79680969D01*
X54352826Y-79733295D01*
X48433295Y-85652826D01*
X48380969Y-85674500D01*
X48071545Y-85674500D01*
X48019219Y-85652826D01*
X47945913Y-85579520D01*
X47854591Y-85526795D01*
X47854582Y-85526791D01*
X47752729Y-85499500D01*
X47752727Y-85499500D01*
X47647273Y-85499500D01*
X47647271Y-85499500D01*
X47545417Y-85526791D01*
X47545408Y-85526795D01*
X47454086Y-85579520D01*
X47380781Y-85652826D01*
X47328455Y-85674500D01*
X46855145Y-85674500D01*
X46772266Y-85708828D01*
X46772263Y-85708831D01*
X44908829Y-87572264D01*
X44905853Y-87579451D01*
X44905853Y-87579452D01*
X44874499Y-87655144D01*
X44874499Y-87753466D01*
X44874500Y-87753475D01*
X44874500Y-119344147D01*
X44874499Y-119344161D01*
X44874499Y-119439829D01*
X44889275Y-119475501D01*
X44908829Y-119522708D01*
X44908831Y-119522711D01*
X44982671Y-119596551D01*
X44982673Y-119596552D01*
X50652826Y-125266705D01*
X50674500Y-125319031D01*
X50674500Y-127075942D01*
X50652826Y-127128268D01*
X48603268Y-129177826D01*
X48550942Y-129199500D01*
X48447271Y-129199500D01*
X48345417Y-129226791D01*
X48345408Y-129226795D01*
X48254086Y-129279520D01*
X48179520Y-129354086D01*
X48126795Y-129445408D01*
X48126791Y-129445417D01*
X48099500Y-129547270D01*
X48099500Y-129652729D01*
X48126791Y-129754582D01*
X48126792Y-129754585D01*
X48126793Y-129754587D01*
X48179520Y-129845913D01*
X48254087Y-129920480D01*
X48345413Y-129973207D01*
X48447270Y-130000499D01*
X48447271Y-130000500D01*
X48447273Y-130000500D01*
X48552729Y-130000500D01*
X48552729Y-130000499D01*
X48654587Y-129973207D01*
X48745913Y-129920480D01*
X48820480Y-129845913D01*
X48873207Y-129754587D01*
X48900499Y-129652729D01*
X48900500Y-129652729D01*
X48900500Y-129549056D01*
X48922174Y-129496730D01*
X49777330Y-128641574D01*
X51017327Y-127401577D01*
X51017330Y-127401575D01*
X51027735Y-127391170D01*
X51027736Y-127391170D01*
X51091170Y-127327736D01*
X51105390Y-127293405D01*
X51125501Y-127244854D01*
X51125501Y-127155145D01*
X51125501Y-127149187D01*
X51125500Y-127149173D01*
X51125500Y-125423057D01*
X51147174Y-125370731D01*
X51199500Y-125349057D01*
X51251826Y-125370731D01*
X51752826Y-125871731D01*
X51774500Y-125924057D01*
X51774500Y-130828455D01*
X51752826Y-130880781D01*
X51679520Y-130954086D01*
X51626795Y-131045408D01*
X51626791Y-131045417D01*
X51599500Y-131147270D01*
X51599500Y-131252729D01*
X51626791Y-131354582D01*
X51626792Y-131354585D01*
X51626793Y-131354587D01*
X51679520Y-131445913D01*
X51754087Y-131520480D01*
X51845413Y-131573207D01*
X51947270Y-131600499D01*
X51947271Y-131600500D01*
X51947273Y-131600500D01*
X52052729Y-131600500D01*
X52052729Y-131600499D01*
X52154587Y-131573207D01*
X52245913Y-131520480D01*
X52320480Y-131445913D01*
X52373207Y-131354587D01*
X52400499Y-131252729D01*
X52400500Y-131252729D01*
X52400500Y-131147271D01*
X52400499Y-131147270D01*
X52373208Y-131045417D01*
X52373207Y-131045413D01*
X52320480Y-130954087D01*
X52247174Y-130880781D01*
X52225500Y-130828455D01*
X52225500Y-125853475D01*
X52225501Y-125853466D01*
X52225501Y-125755146D01*
X52196137Y-125684257D01*
X52191170Y-125672265D01*
X52191170Y-125672264D01*
X52127736Y-125608830D01*
X52127734Y-125608829D01*
X46428358Y-119909453D01*
X78849500Y-119909453D01*
X78849500Y-120090546D01*
X78877828Y-120269406D01*
X78877831Y-120269419D01*
X78933787Y-120441635D01*
X78933788Y-120441638D01*
X78933789Y-120441639D01*
X79016004Y-120602994D01*
X79122447Y-120749501D01*
X79250499Y-120877553D01*
X79397006Y-120983996D01*
X79558361Y-121066211D01*
X79558364Y-121066212D01*
X79558363Y-121066212D01*
X79730580Y-121122168D01*
X79730586Y-121122169D01*
X79730591Y-121122171D01*
X79849833Y-121141057D01*
X79909453Y-121150500D01*
X79909454Y-121150500D01*
X80090547Y-121150500D01*
X80135261Y-121143417D01*
X80269409Y-121122171D01*
X80269416Y-121122168D01*
X80269419Y-121122168D01*
X80347601Y-121096765D01*
X80441639Y-121066211D01*
X80602994Y-120983996D01*
X80749501Y-120877553D01*
X80877553Y-120749501D01*
X80983996Y-120602994D01*
X81066211Y-120441639D01*
X81122171Y-120269409D01*
X81150500Y-120090546D01*
X81150500Y-119909454D01*
X81122171Y-119730591D01*
X81122169Y-119730586D01*
X81122168Y-119730580D01*
X81066212Y-119558364D01*
X81066211Y-119558363D01*
X81066211Y-119558361D01*
X80983996Y-119397006D01*
X80877553Y-119250499D01*
X80749501Y-119122447D01*
X80622316Y-119030042D01*
X80602996Y-119016005D01*
X80441635Y-118933787D01*
X80441636Y-118933787D01*
X80269419Y-118877831D01*
X80269406Y-118877828D01*
X80090547Y-118849500D01*
X80090546Y-118849500D01*
X79909454Y-118849500D01*
X79909453Y-118849500D01*
X79730593Y-118877828D01*
X79730580Y-118877831D01*
X79558364Y-118933787D01*
X79397004Y-119016005D01*
X79397003Y-119016005D01*
X79257750Y-119117179D01*
X79250499Y-119122447D01*
X79122447Y-119250499D01*
X79122444Y-119250502D01*
X79122444Y-119250503D01*
X79016005Y-119397003D01*
X79016005Y-119397004D01*
X78933787Y-119558364D01*
X78877831Y-119730580D01*
X78877828Y-119730593D01*
X78849500Y-119909453D01*
X46428358Y-119909453D01*
X45697174Y-119178269D01*
X45675500Y-119125943D01*
X45675500Y-103500001D01*
X46500000Y-103500001D01*
X49674308Y-109395144D01*
X49680032Y-109451491D01*
X49677860Y-109457710D01*
X49550589Y-109775884D01*
X49550590Y-109775885D01*
X49548620Y-109780811D01*
X49533608Y-109806814D01*
X49524250Y-109841736D01*
X49522618Y-109845817D01*
X49510825Y-109875300D01*
X49507898Y-109899841D01*
X49505898Y-109910228D01*
X49499500Y-109934107D01*
X49499500Y-109965857D01*
X49498979Y-109974622D01*
X49495217Y-110006152D01*
X49498575Y-110029457D01*
X49499500Y-110035873D01*
X49499500Y-110065892D01*
X49508856Y-110100811D01*
X49509484Y-110105169D01*
X49509483Y-110105170D01*
X49514011Y-110136591D01*
X49514011Y-110136592D01*
X49523747Y-110159309D01*
X49527208Y-110169304D01*
X49533607Y-110193185D01*
X49533608Y-110193186D01*
X49551684Y-110224495D01*
X49565924Y-110257721D01*
X49584484Y-110281308D01*
X49587137Y-110285903D01*
X49596771Y-110302588D01*
X49599500Y-110307314D01*
X49625061Y-110332875D01*
X49647418Y-110361287D01*
X49671458Y-110379272D01*
X49692686Y-110400500D01*
X49720189Y-110416378D01*
X49727509Y-110421205D01*
X49752940Y-110440231D01*
X49775894Y-110449412D01*
X49785409Y-110454033D01*
X49806806Y-110466388D01*
X49806811Y-110466390D01*
X49806814Y-110466392D01*
X49806815Y-110466392D01*
X49806817Y-110466393D01*
X49837490Y-110474612D01*
X49837491Y-110474612D01*
X49841735Y-110475749D01*
X49875298Y-110489174D01*
X49905108Y-110492729D01*
X49934108Y-110500500D01*
X49965859Y-110500500D01*
X49974622Y-110501020D01*
X50006155Y-110504782D01*
X50030627Y-110501255D01*
X50041179Y-110500500D01*
X60317276Y-110500500D01*
X60317292Y-110500500D01*
X60950717Y-110462185D01*
X61232463Y-110427975D01*
X61580653Y-110385698D01*
X61580660Y-110385696D01*
X61580674Y-110385695D01*
X62204862Y-110271308D01*
X62821006Y-110119442D01*
X63426856Y-109930652D01*
X64020202Y-109705625D01*
X64598878Y-109445184D01*
X65160774Y-109150278D01*
X65703838Y-108821985D01*
X66226090Y-108461500D01*
X66725623Y-108070141D01*
X67200616Y-107649334D01*
X67649334Y-107200616D01*
X68070141Y-106725623D01*
X68461500Y-106226090D01*
X68821985Y-105703838D01*
X69150278Y-105160774D01*
X69445184Y-104598878D01*
X69705625Y-104020202D01*
X69930652Y-103426856D01*
X70119442Y-102821006D01*
X70271308Y-102204862D01*
X70385695Y-101580674D01*
X70385836Y-101579520D01*
X70430693Y-101210080D01*
X70462185Y-100950717D01*
X70500500Y-100317292D01*
X70500500Y-100000000D01*
X70500500Y-99934108D01*
X70500500Y-66909453D01*
X78849500Y-66909453D01*
X78849500Y-67090546D01*
X78877828Y-67269406D01*
X78877831Y-67269419D01*
X78933787Y-67441635D01*
X79016005Y-67602995D01*
X79016005Y-67602996D01*
X79043833Y-67641298D01*
X79122447Y-67749501D01*
X79250499Y-67877553D01*
X79397006Y-67983996D01*
X79558361Y-68066211D01*
X79558364Y-68066212D01*
X79558363Y-68066212D01*
X79730580Y-68122168D01*
X79730586Y-68122169D01*
X79730591Y-68122171D01*
X79849833Y-68141057D01*
X79909453Y-68150500D01*
X79909454Y-68150500D01*
X80090547Y-68150500D01*
X80135261Y-68143417D01*
X80269409Y-68122171D01*
X80269416Y-68122168D01*
X80269419Y-68122168D01*
X80350501Y-68095823D01*
X80441639Y-68066211D01*
X80602994Y-67983996D01*
X80749501Y-67877553D01*
X80877553Y-67749501D01*
X80983996Y-67602994D01*
X81066211Y-67441639D01*
X81122171Y-67269409D01*
X81150500Y-67090546D01*
X81150500Y-66909454D01*
X81122171Y-66730591D01*
X81122169Y-66730586D01*
X81122168Y-66730580D01*
X81066212Y-66558364D01*
X81066211Y-66558363D01*
X81066211Y-66558361D01*
X80983996Y-66397006D01*
X80877553Y-66250499D01*
X80749501Y-66122447D01*
X80664128Y-66060420D01*
X80602996Y-66016005D01*
X80441635Y-65933787D01*
X80441636Y-65933787D01*
X80269419Y-65877831D01*
X80269406Y-65877828D01*
X80090547Y-65849500D01*
X80090546Y-65849500D01*
X79909454Y-65849500D01*
X79909453Y-65849500D01*
X79730593Y-65877828D01*
X79730580Y-65877831D01*
X79558364Y-65933787D01*
X79397004Y-66016005D01*
X79397003Y-66016005D01*
X79250503Y-66122444D01*
X79250499Y-66122447D01*
X79122447Y-66250499D01*
X79122444Y-66250502D01*
X79122444Y-66250503D01*
X79016005Y-66397003D01*
X79016005Y-66397004D01*
X78933787Y-66558364D01*
X78877831Y-66730580D01*
X78877828Y-66730593D01*
X78849500Y-66909453D01*
X70500500Y-66909453D01*
X70500500Y-60029745D01*
X70504782Y-59993845D01*
X70500500Y-59964126D01*
X70500500Y-59934108D01*
X70492279Y-59903427D01*
X70490516Y-59894839D01*
X70485988Y-59863408D01*
X70476252Y-59840690D01*
X70472791Y-59830694D01*
X70466393Y-59806817D01*
X70466391Y-59806812D01*
X70450514Y-59779312D01*
X70450514Y-59779311D01*
X70448312Y-59775497D01*
X70434076Y-59742279D01*
X70415511Y-59718686D01*
X70400500Y-59692686D01*
X70378048Y-59670234D01*
X70372220Y-59663670D01*
X70352582Y-59638713D01*
X70330178Y-59621952D01*
X70328539Y-59620725D01*
X70307314Y-59599500D01*
X70276012Y-59581428D01*
X70272486Y-59578790D01*
X70247062Y-59559770D01*
X70247060Y-59559769D01*
X70224110Y-59550589D01*
X70214600Y-59545971D01*
X70193185Y-59533607D01*
X70162512Y-59525387D01*
X70162512Y-59525388D01*
X70158262Y-59524249D01*
X70124702Y-59510826D01*
X70094892Y-59507270D01*
X70089771Y-59505898D01*
X70089770Y-59505897D01*
X70065892Y-59499500D01*
X70034141Y-59499500D01*
X70025377Y-59498979D01*
X70017666Y-59498059D01*
X69993848Y-59495218D01*
X69993846Y-59495218D01*
X69993845Y-59495218D01*
X69986445Y-59496284D01*
X69969373Y-59498743D01*
X69964126Y-59499500D01*
X69934108Y-59499500D01*
X69899188Y-59508856D01*
X69894831Y-59509483D01*
X69894829Y-59509483D01*
X69863409Y-59514011D01*
X69863404Y-59514012D01*
X69840685Y-59523748D01*
X69830695Y-59527208D01*
X69806813Y-59533608D01*
X69779303Y-59549489D01*
X69775492Y-59551688D01*
X69742279Y-59565924D01*
X69718694Y-59584480D01*
X69714098Y-59587135D01*
X69714097Y-59587137D01*
X69692686Y-59599499D01*
X69692684Y-59599501D01*
X69670232Y-59621952D01*
X69663671Y-59627777D01*
X69638712Y-59647418D01*
X69623900Y-59667215D01*
X69620721Y-59671463D01*
X69599500Y-59692686D01*
X69581431Y-59723981D01*
X69578793Y-59727508D01*
X69559770Y-59752936D01*
X69559769Y-59752938D01*
X69550588Y-59775889D01*
X69545970Y-59785398D01*
X69533609Y-59806809D01*
X69533608Y-59806813D01*
X69525389Y-59837486D01*
X69522618Y-59845815D01*
X59030663Y-86075701D01*
X58991106Y-86116235D01*
X58978596Y-86120323D01*
X52999999Y-87500000D01*
X52999998Y-87500001D01*
X52220701Y-89418267D01*
X52181058Y-89458532D01*
X52161237Y-89466945D01*
X47211027Y-101719145D01*
X47211290Y-101749128D01*
X47211237Y-101749260D01*
X46990169Y-102293428D01*
X46501220Y-103496999D01*
X46500000Y-103500001D01*
X45675500Y-103500001D01*
X45675500Y-88274057D01*
X45697174Y-88221731D01*
X46996731Y-86922174D01*
X47049057Y-86900500D01*
X47152729Y-86900500D01*
X47152729Y-86900499D01*
X47254587Y-86873207D01*
X47345913Y-86820480D01*
X47419219Y-86747174D01*
X47471545Y-86725500D01*
X48346525Y-86725500D01*
X48346533Y-86725501D01*
X48355145Y-86725501D01*
X48444854Y-86725501D01*
X48444855Y-86725501D01*
X48507625Y-86699500D01*
X48527736Y-86691170D01*
X48591170Y-86627736D01*
X48591170Y-86627735D01*
X48601575Y-86617330D01*
X48601577Y-86617327D01*
X53363568Y-81855336D01*
X58423561Y-81855336D01*
X58423561Y-82013455D01*
X58464482Y-82166175D01*
X58464483Y-82166177D01*
X58464484Y-82166180D01*
X58543541Y-82303112D01*
X58655345Y-82414916D01*
X58792277Y-82493973D01*
X58945001Y-82534895D01*
X58945002Y-82534896D01*
X58945004Y-82534896D01*
X59103120Y-82534896D01*
X59103120Y-82534895D01*
X59255845Y-82493973D01*
X59392777Y-82414916D01*
X59504581Y-82303112D01*
X59583638Y-82166180D01*
X59624560Y-82013455D01*
X59624561Y-82013455D01*
X59624561Y-81855337D01*
X59624560Y-81855336D01*
X59583639Y-81702616D01*
X59583638Y-81702612D01*
X59504581Y-81565680D01*
X59392777Y-81453876D01*
X59255845Y-81374819D01*
X59255842Y-81374818D01*
X59255840Y-81374817D01*
X59103120Y-81333896D01*
X59103118Y-81333896D01*
X58945004Y-81333896D01*
X58945002Y-81333896D01*
X58792281Y-81374817D01*
X58792275Y-81374820D01*
X58655344Y-81453876D01*
X58543541Y-81565679D01*
X58464485Y-81702610D01*
X58464482Y-81702616D01*
X58423561Y-81855336D01*
X53363568Y-81855336D01*
X55067327Y-80151577D01*
X55067330Y-80151575D01*
X55077735Y-80141170D01*
X55077736Y-80141170D01*
X55141170Y-80077736D01*
X55160725Y-80030526D01*
X55175501Y-79994854D01*
X55175501Y-79905145D01*
X55175501Y-79899187D01*
X55175500Y-79899173D01*
X55175500Y-79347270D01*
X56399500Y-79347270D01*
X56399500Y-79452729D01*
X56426791Y-79554582D01*
X56426792Y-79554585D01*
X56426793Y-79554587D01*
X56479520Y-79645913D01*
X56554087Y-79720480D01*
X56645413Y-79773207D01*
X56747270Y-79800499D01*
X56747271Y-79800500D01*
X56747273Y-79800500D01*
X56852729Y-79800500D01*
X56852729Y-79800499D01*
X56954587Y-79773207D01*
X57045913Y-79720480D01*
X57120480Y-79645913D01*
X57173207Y-79554587D01*
X57200499Y-79452729D01*
X57200500Y-79452729D01*
X57200500Y-79347271D01*
X57200499Y-79347270D01*
X57173208Y-79245417D01*
X57173207Y-79245413D01*
X57169037Y-79238190D01*
X57160413Y-79223252D01*
X57150500Y-79186254D01*
X57150500Y-79073783D01*
X59547381Y-79073783D01*
X59547381Y-79231902D01*
X59588302Y-79384622D01*
X59588303Y-79384624D01*
X59588304Y-79384627D01*
X59667361Y-79521559D01*
X59779165Y-79633363D01*
X59916097Y-79712420D01*
X60068821Y-79753342D01*
X60068822Y-79753343D01*
X60068824Y-79753343D01*
X60226940Y-79753343D01*
X60226940Y-79753342D01*
X60379665Y-79712420D01*
X60516597Y-79633363D01*
X60628401Y-79521559D01*
X60707458Y-79384627D01*
X60748380Y-79231902D01*
X60748381Y-79231902D01*
X60748381Y-79073784D01*
X60748380Y-79073783D01*
X60707459Y-78921063D01*
X60707458Y-78921059D01*
X60628401Y-78784127D01*
X60516597Y-78672323D01*
X60379665Y-78593266D01*
X60379662Y-78593265D01*
X60379660Y-78593264D01*
X60226940Y-78552343D01*
X60226938Y-78552343D01*
X60068824Y-78552343D01*
X60068822Y-78552343D01*
X59916101Y-78593264D01*
X59916095Y-78593267D01*
X59779164Y-78672323D01*
X59667361Y-78784126D01*
X59588305Y-78921057D01*
X59588302Y-78921063D01*
X59547381Y-79073783D01*
X57150500Y-79073783D01*
X57150500Y-71875833D01*
X57172174Y-71823507D01*
X70373507Y-58622174D01*
X70425833Y-58600500D01*
X70936256Y-58600500D01*
X70973256Y-58610414D01*
X71076112Y-58669798D01*
X71076114Y-58669799D01*
X71076115Y-58669799D01*
X71076117Y-58669800D01*
X71133402Y-58685149D01*
X71190688Y-58700499D01*
X71190689Y-58700500D01*
X71190691Y-58700500D01*
X71309311Y-58700500D01*
X71309311Y-58700499D01*
X71423886Y-58669799D01*
X71526613Y-58610489D01*
X71610489Y-58526613D01*
X71669799Y-58423886D01*
X71700499Y-58309311D01*
X71700500Y-58309311D01*
X71700500Y-58190689D01*
X71700499Y-58190688D01*
X71669800Y-58076117D01*
X71669798Y-58076112D01*
X71610491Y-57973390D01*
X71610490Y-57973389D01*
X71610489Y-57973387D01*
X71526613Y-57889511D01*
X71526610Y-57889509D01*
X71526609Y-57889508D01*
X71423887Y-57830201D01*
X71423882Y-57830199D01*
X71309311Y-57799500D01*
X71309309Y-57799500D01*
X71190691Y-57799500D01*
X71190689Y-57799500D01*
X71076117Y-57830199D01*
X71076112Y-57830201D01*
X70973256Y-57889586D01*
X70936256Y-57899500D01*
X70203854Y-57899500D01*
X70114715Y-57923384D01*
X70114710Y-57923386D01*
X70034791Y-57969528D01*
X56519530Y-71484787D01*
X56496155Y-71525275D01*
X56473386Y-71564710D01*
X56473384Y-71564715D01*
X56449500Y-71653853D01*
X56449500Y-79186254D01*
X56439587Y-79223252D01*
X56426794Y-79245410D01*
X56426791Y-79245417D01*
X56399500Y-79347270D01*
X55175500Y-79347270D01*
X55175500Y-76997270D01*
X55499500Y-76997270D01*
X55499500Y-77102729D01*
X55526791Y-77204582D01*
X55526792Y-77204585D01*
X55526793Y-77204587D01*
X55579520Y-77295913D01*
X55654087Y-77370480D01*
X55745413Y-77423207D01*
X55847270Y-77450499D01*
X55847271Y-77450500D01*
X55847273Y-77450500D01*
X55952729Y-77450500D01*
X55952729Y-77450499D01*
X56054587Y-77423207D01*
X56145913Y-77370480D01*
X56220480Y-77295913D01*
X56273207Y-77204587D01*
X56300499Y-77102729D01*
X56300500Y-77102729D01*
X56300500Y-76997271D01*
X56300499Y-76997270D01*
X56273208Y-76895417D01*
X56273207Y-76895413D01*
X56269037Y-76888190D01*
X56260413Y-76873252D01*
X56250500Y-76836254D01*
X56250500Y-69475834D01*
X56272174Y-69423508D01*
X56693387Y-69002295D01*
X57304525Y-69002295D01*
X57304525Y-69107754D01*
X57331816Y-69209607D01*
X57331820Y-69209616D01*
X57357362Y-69253856D01*
X57384545Y-69300938D01*
X57459112Y-69375505D01*
X57550438Y-69428232D01*
X57652295Y-69455524D01*
X57652296Y-69455525D01*
X57652298Y-69455525D01*
X57757754Y-69455525D01*
X57757754Y-69455524D01*
X57859612Y-69428232D01*
X57950938Y-69375505D01*
X58025246Y-69301196D01*
X58050629Y-69284602D01*
X58061057Y-69280526D01*
X58065250Y-69280526D01*
X58134594Y-69251802D01*
X58148131Y-69246195D01*
X58211565Y-69182761D01*
X58211565Y-69182760D01*
X58221970Y-69172355D01*
X58221972Y-69172352D01*
X65197238Y-62197085D01*
X65238718Y-62179864D01*
X65238114Y-62176854D01*
X65245256Y-62175420D01*
X65245258Y-62175420D01*
X65245259Y-62175419D01*
X65245261Y-62175419D01*
X65264320Y-62167484D01*
X65328077Y-62140942D01*
X65391398Y-62077394D01*
X68668150Y-54126447D01*
X68708126Y-54086329D01*
X68717402Y-54083170D01*
X68754587Y-54073207D01*
X68845913Y-54020480D01*
X68920480Y-53945913D01*
X68973207Y-53854587D01*
X69000499Y-53752729D01*
X69000500Y-53752729D01*
X69000500Y-53647271D01*
X69000499Y-53647270D01*
X68997962Y-53637803D01*
X68973207Y-53545413D01*
X68920480Y-53454087D01*
X68845913Y-53379520D01*
X68808459Y-53357896D01*
X68754591Y-53326795D01*
X68754582Y-53326791D01*
X68652729Y-53299500D01*
X68652727Y-53299500D01*
X68547273Y-53299500D01*
X68547271Y-53299500D01*
X68445417Y-53326791D01*
X68445408Y-53326795D01*
X68354086Y-53379520D01*
X68279520Y-53454086D01*
X68226795Y-53545408D01*
X68226791Y-53545417D01*
X68199500Y-53647270D01*
X68199500Y-53752729D01*
X68226791Y-53854582D01*
X68226795Y-53854591D01*
X68246863Y-53889350D01*
X68254255Y-53945503D01*
X68251195Y-53954546D01*
X65064640Y-61686630D01*
X65037339Y-61719960D01*
X65034975Y-61721539D01*
X58036121Y-68720393D01*
X57983795Y-68742067D01*
X57946795Y-68732153D01*
X57859616Y-68681820D01*
X57859607Y-68681816D01*
X57757754Y-68654525D01*
X57757752Y-68654525D01*
X57652298Y-68654525D01*
X57652296Y-68654525D01*
X57550442Y-68681816D01*
X57550433Y-68681820D01*
X57459111Y-68734545D01*
X57384545Y-68809111D01*
X57331820Y-68900433D01*
X57331816Y-68900442D01*
X57304525Y-69002295D01*
X56693387Y-69002295D01*
X56750560Y-68945122D01*
X57040273Y-68655409D01*
X57330470Y-68365212D01*
X57376614Y-68285288D01*
X57400500Y-68196143D01*
X57400500Y-68103856D01*
X57400500Y-67663744D01*
X57410415Y-67626743D01*
X57423205Y-67604590D01*
X57423204Y-67604590D01*
X57423207Y-67604587D01*
X57450500Y-67502727D01*
X57450500Y-67397273D01*
X57450500Y-67397271D01*
X57450499Y-67397270D01*
X57448678Y-67390475D01*
X57423207Y-67295413D01*
X57370480Y-67204087D01*
X57295913Y-67129520D01*
X57228408Y-67090546D01*
X57204591Y-67076795D01*
X57204582Y-67076791D01*
X57102729Y-67049500D01*
X57102727Y-67049500D01*
X56997273Y-67049500D01*
X56997271Y-67049500D01*
X56895417Y-67076791D01*
X56895408Y-67076795D01*
X56804086Y-67129520D01*
X56729520Y-67204086D01*
X56676795Y-67295408D01*
X56676791Y-67295417D01*
X56649500Y-67397270D01*
X56649500Y-67397273D01*
X56649500Y-67502727D01*
X56676367Y-67602996D01*
X56676794Y-67604590D01*
X56689585Y-67626743D01*
X56699500Y-67663744D01*
X56699500Y-67974166D01*
X56677826Y-68026492D01*
X55619530Y-69084787D01*
X55573386Y-69164710D01*
X55573384Y-69164715D01*
X55549500Y-69253853D01*
X55549500Y-76836254D01*
X55539587Y-76873252D01*
X55526794Y-76895410D01*
X55526791Y-76895417D01*
X55499500Y-76997270D01*
X55175500Y-76997270D01*
X55175500Y-29458500D01*
X55175501Y-29458491D01*
X55175501Y-29360169D01*
X55146137Y-29289282D01*
X55141170Y-29277290D01*
X55141170Y-29277289D01*
X55077736Y-29213855D01*
X55077734Y-29213854D01*
X43596553Y-17732673D01*
X43596553Y-17732672D01*
X43522712Y-17658831D01*
X43522708Y-17658828D01*
X43498216Y-17648684D01*
X43439830Y-17624499D01*
X43350120Y-17624499D01*
X43341508Y-17624499D01*
X43341500Y-17624500D01*
X27824057Y-17624500D01*
X27771731Y-17602826D01*
X27501803Y-17332898D01*
X27480129Y-17280572D01*
X27492602Y-17239459D01*
X27498684Y-17230357D01*
X27575129Y-17045802D01*
X27614100Y-16849880D01*
X27614100Y-16650120D01*
X27575129Y-16454198D01*
X27498684Y-16269643D01*
X27387703Y-16103549D01*
X27246451Y-15962297D01*
X27080357Y-15851316D01*
X27080356Y-15851315D01*
X27080354Y-15851314D01*
X26895806Y-15774872D01*
X26895795Y-15774869D01*
X26748196Y-15745510D01*
X26699880Y-15735900D01*
X26500120Y-15735900D01*
X26461362Y-15743609D01*
X26304204Y-15774869D01*
X26304193Y-15774872D01*
X26119645Y-15851314D01*
X25953552Y-15962294D01*
X25812294Y-16103552D01*
X25701314Y-16269645D01*
X25624872Y-16454193D01*
X25624869Y-16454204D01*
X25585900Y-16650120D01*
X25585900Y-16849879D01*
X25624869Y-17045795D01*
X25624872Y-17045806D01*
X25701314Y-17230354D01*
X25701315Y-17230355D01*
X25701316Y-17230357D01*
X25812297Y-17396451D01*
X25953549Y-17537703D01*
X26119643Y-17648684D01*
X26304198Y-17725129D01*
X26500120Y-17764100D01*
X26500121Y-17764100D01*
X26699879Y-17764100D01*
X26699880Y-17764100D01*
X26895802Y-17725129D01*
X27080357Y-17648684D01*
X27089459Y-17642602D01*
X27145003Y-17631550D01*
X27182898Y-17651803D01*
X27498768Y-17967673D01*
X27520442Y-18019999D01*
X27498768Y-18072325D01*
X27182898Y-18388195D01*
X27130572Y-18409869D01*
X27089461Y-18397399D01*
X27080355Y-18391314D01*
X26895806Y-18314872D01*
X26895795Y-18314869D01*
X26746147Y-18285103D01*
X26699880Y-18275900D01*
X26500120Y-18275900D01*
X26461362Y-18283609D01*
X26304204Y-18314869D01*
X26304193Y-18314872D01*
X26119645Y-18391314D01*
X25953552Y-18502294D01*
X25812294Y-18643552D01*
X25711029Y-18795106D01*
X25663936Y-18826572D01*
X25608388Y-18815523D01*
X25576922Y-18768430D01*
X25575500Y-18753994D01*
X25575500Y-17995145D01*
X25575499Y-17995143D01*
X25541171Y-17912266D01*
X25541169Y-17912263D01*
X24961804Y-17332898D01*
X24940130Y-17280572D01*
X24952602Y-17239459D01*
X24952605Y-17239455D01*
X24958684Y-17230357D01*
X25035129Y-17045802D01*
X25074100Y-16849880D01*
X25074100Y-16650120D01*
X25035129Y-16454198D01*
X24958684Y-16269643D01*
X24847703Y-16103549D01*
X24706451Y-15962297D01*
X24540357Y-15851316D01*
X24540356Y-15851315D01*
X24540354Y-15851314D01*
X24355806Y-15774872D01*
X24355795Y-15774869D01*
X24208196Y-15745510D01*
X24159880Y-15735900D01*
X23960120Y-15735900D01*
X23921362Y-15743609D01*
X23764204Y-15774869D01*
X23764193Y-15774872D01*
X23579645Y-15851314D01*
X23413552Y-15962294D01*
X23272294Y-16103552D01*
X23161314Y-16269645D01*
X23084872Y-16454193D01*
X23084869Y-16454204D01*
X23045900Y-16650120D01*
X22534100Y-16650120D01*
X22495129Y-16454198D01*
X22418684Y-16269643D01*
X22307703Y-16103549D01*
X22166451Y-15962297D01*
X22000357Y-15851316D01*
X22000356Y-15851315D01*
X22000354Y-15851314D01*
X21815806Y-15774872D01*
X21815795Y-15774869D01*
X21668196Y-15745510D01*
X21619880Y-15735900D01*
X21420120Y-15735900D01*
X21381362Y-15743609D01*
X21224204Y-15774869D01*
X21224193Y-15774872D01*
X21039645Y-15851314D01*
X20873552Y-15962294D01*
X20732294Y-16103552D01*
X20621314Y-16269645D01*
X20544872Y-16454193D01*
X20544869Y-16454204D01*
X20505900Y-16650120D01*
X8143833Y-16650120D01*
X8788582Y-15791396D01*
X8790000Y-15789569D01*
X8801775Y-15774872D01*
X9564420Y-14822934D01*
X9565841Y-14821217D01*
X10370266Y-13879357D01*
X10371719Y-13877708D01*
X11205357Y-12961552D01*
X11206884Y-12959926D01*
X12068852Y-12070444D01*
X12070444Y-12068852D01*
X12959926Y-11206884D01*
X12961552Y-11205357D01*
X13877708Y-10371719D01*
X13879357Y-10370266D01*
X14821217Y-9565841D01*
X14822934Y-9564420D01*
X15789578Y-8789992D01*
X15791406Y-8788575D01*
X16767370Y-8055800D01*
X16781879Y-8044906D01*
X16783719Y-8043570D01*
X17797063Y-7331380D01*
X17798897Y-7330133D01*
X18834213Y-6650058D01*
X18836057Y-6648888D01*
X19892135Y-6001722D01*
X19894092Y-6000564D01*
X20969975Y-5386891D01*
X20971976Y-5385791D01*
X22066629Y-4806202D01*
X22068626Y-4805186D01*
X23180919Y-4260279D01*
X23182936Y-4259329D01*
X24311859Y-3749601D01*
X24313869Y-3748731D01*
X25458204Y-3274732D01*
X25460336Y-3273888D01*
X26618998Y-2836066D01*
X26621076Y-2835318D01*
X27792910Y-2434110D01*
X27795033Y-2433419D01*
X28978938Y-2069203D01*
X28981078Y-2068582D01*
X30175775Y-1741749D01*
X30177993Y-1741180D01*
X31382344Y-1452041D01*
X31384575Y-1451543D01*
X32597436Y-1200371D01*
X32599606Y-1199957D01*
X32647178Y-1191654D01*
X32702450Y-1204009D01*
G37*
%TD.AperFunction*%
%TD*%
M02*
